<?xml version="1.0" encoding="utf-8" standalone="no"?>
<!DOCTYPE svg PUBLIC "-//W3C//DTD SVG 1.1//EN"
  "http://www.w3.org/Graphics/SVG/1.1/DTD/svg11.dtd">
<svg xmlns:xlink="http://www.w3.org/1999/xlink" width="460.8pt" height="345.6pt" viewBox="0 0 460.8 345.6" xmlns="http://www.w3.org/2000/svg" version="1.1">
 <metadata>
  <rdf:RDF xmlns:dc="http://purl.org/dc/elements/1.1/" xmlns:cc="http://creativecommons.org/ns#" xmlns:rdf="http://www.w3.org/1999/02/22-rdf-syntax-ns#">
   <cc:Work>
    <dc:type rdf:resource="http://purl.org/dc/dcmitype/StillImage"/>
    <dc:date>2024-02-11T13:13:28.863680</dc:date>
    <dc:format>image/svg+xml</dc:format>
    <dc:creator>
     <cc:Agent>
      <dc:title>Matplotlib v3.8.2, https://matplotlib.org/</dc:title>
     </cc:Agent>
    </dc:creator>
   </cc:Work>
  </rdf:RDF>
 </metadata>
 <defs>
  <style type="text/css">*{stroke-linejoin: round; stroke-linecap: butt}</style>
 </defs>
 <g id="figure_1">
  <g id="patch_1">
   <path d="M 0 345.6
L 460.8 345.6
L 460.8 0
L 0 0
z
" style="fill: #ffffff"/>
  </g>
  <g id="axes_1">
   <g id="patch_2">
    <path d="M 73.0675 296.880313
L 443.076477 296.880313
L 443.076477 41.5155
L 73.0675 41.5155
z
" style="fill: #eaeaf2"/>
   </g>
   <g id="matplotlib.axis_1">
    <g id="xtick_1">
     <g id="line2d_1">
      <path d="M 89.88609 296.880313
L 89.88609 41.5155
" clip-path="url(#pfb41fd7ab4)" style="fill: none; stroke: #ffffff; stroke-linecap: round"/>
     </g>
     <g id="text_1">
      <!-- 0 -->
      <g style="fill: #262626" transform="translate(86.386715 314.738594) scale(0.11 -0.11)">
       <defs>
        <path id="DejaVuSans-30" d="M 2034 4250
Q 1547 4250 1301 3770
Q 1056 3291 1056 2328
Q 1056 1369 1301 889
Q 1547 409 2034 409
Q 2525 409 2770 889
Q 3016 1369 3016 2328
Q 3016 3291 2770 3770
Q 2525 4250 2034 4250
z
M 2034 4750
Q 2819 4750 3233 4129
Q 3647 3509 3647 2328
Q 3647 1150 3233 529
Q 2819 -91 2034 -91
Q 1250 -91 836 529
Q 422 1150 422 2328
Q 422 3509 836 4129
Q 1250 4750 2034 4750
z
" transform="scale(0.015625)"/>
       </defs>
       <use xlink:href="#DejaVuSans-30"/>
      </g>
     </g>
    </g>
    <g id="xtick_2">
     <g id="line2d_2">
      <path d="M 157.160449 296.880313
L 157.160449 41.5155
" clip-path="url(#pfb41fd7ab4)" style="fill: none; stroke: #ffffff; stroke-linecap: round"/>
     </g>
     <g id="text_2">
      <!-- 20000 -->
      <g style="fill: #262626" transform="translate(139.663574 314.738594) scale(0.11 -0.11)">
       <defs>
        <path id="DejaVuSans-32" d="M 1228 531
L 3431 531
L 3431 0
L 469 0
L 469 531
Q 828 903 1448 1529
Q 2069 2156 2228 2338
Q 2531 2678 2651 2914
Q 2772 3150 2772 3378
Q 2772 3750 2511 3984
Q 2250 4219 1831 4219
Q 1534 4219 1204 4116
Q 875 4013 500 3803
L 500 4441
Q 881 4594 1212 4672
Q 1544 4750 1819 4750
Q 2544 4750 2975 4387
Q 3406 4025 3406 3419
Q 3406 3131 3298 2873
Q 3191 2616 2906 2266
Q 2828 2175 2409 1742
Q 1991 1309 1228 531
z
" transform="scale(0.015625)"/>
       </defs>
       <use xlink:href="#DejaVuSans-32"/>
       <use xlink:href="#DejaVuSans-30" x="63.623047"/>
       <use xlink:href="#DejaVuSans-30" x="127.246094"/>
       <use xlink:href="#DejaVuSans-30" x="190.869141"/>
       <use xlink:href="#DejaVuSans-30" x="254.492188"/>
      </g>
     </g>
    </g>
    <g id="xtick_3">
     <g id="line2d_3">
      <path d="M 224.434809 296.880313
L 224.434809 41.5155
" clip-path="url(#pfb41fd7ab4)" style="fill: none; stroke: #ffffff; stroke-linecap: round"/>
     </g>
     <g id="text_3">
      <!-- 40000 -->
      <g style="fill: #262626" transform="translate(206.937934 314.738594) scale(0.11 -0.11)">
       <defs>
        <path id="DejaVuSans-34" d="M 2419 4116
L 825 1625
L 2419 1625
L 2419 4116
z
M 2253 4666
L 3047 4666
L 3047 1625
L 3713 1625
L 3713 1100
L 3047 1100
L 3047 0
L 2419 0
L 2419 1100
L 313 1100
L 313 1709
L 2253 4666
z
" transform="scale(0.015625)"/>
       </defs>
       <use xlink:href="#DejaVuSans-34"/>
       <use xlink:href="#DejaVuSans-30" x="63.623047"/>
       <use xlink:href="#DejaVuSans-30" x="127.246094"/>
       <use xlink:href="#DejaVuSans-30" x="190.869141"/>
       <use xlink:href="#DejaVuSans-30" x="254.492188"/>
      </g>
     </g>
    </g>
    <g id="xtick_4">
     <g id="line2d_4">
      <path d="M 291.709168 296.880313
L 291.709168 41.5155
" clip-path="url(#pfb41fd7ab4)" style="fill: none; stroke: #ffffff; stroke-linecap: round"/>
     </g>
     <g id="text_4">
      <!-- 60000 -->
      <g style="fill: #262626" transform="translate(274.212293 314.738594) scale(0.11 -0.11)">
       <defs>
        <path id="DejaVuSans-36" d="M 2113 2584
Q 1688 2584 1439 2293
Q 1191 2003 1191 1497
Q 1191 994 1439 701
Q 1688 409 2113 409
Q 2538 409 2786 701
Q 3034 994 3034 1497
Q 3034 2003 2786 2293
Q 2538 2584 2113 2584
z
M 3366 4563
L 3366 3988
Q 3128 4100 2886 4159
Q 2644 4219 2406 4219
Q 1781 4219 1451 3797
Q 1122 3375 1075 2522
Q 1259 2794 1537 2939
Q 1816 3084 2150 3084
Q 2853 3084 3261 2657
Q 3669 2231 3669 1497
Q 3669 778 3244 343
Q 2819 -91 2113 -91
Q 1303 -91 875 529
Q 447 1150 447 2328
Q 447 3434 972 4092
Q 1497 4750 2381 4750
Q 2619 4750 2861 4703
Q 3103 4656 3366 4563
z
" transform="scale(0.015625)"/>
       </defs>
       <use xlink:href="#DejaVuSans-36"/>
       <use xlink:href="#DejaVuSans-30" x="63.623047"/>
       <use xlink:href="#DejaVuSans-30" x="127.246094"/>
       <use xlink:href="#DejaVuSans-30" x="190.869141"/>
       <use xlink:href="#DejaVuSans-30" x="254.492188"/>
      </g>
     </g>
    </g>
    <g id="xtick_5">
     <g id="line2d_5">
      <path d="M 358.983528 296.880313
L 358.983528 41.5155
" clip-path="url(#pfb41fd7ab4)" style="fill: none; stroke: #ffffff; stroke-linecap: round"/>
     </g>
     <g id="text_5">
      <!-- 80000 -->
      <g style="fill: #262626" transform="translate(341.486653 314.738594) scale(0.11 -0.11)">
       <defs>
        <path id="DejaVuSans-38" d="M 2034 2216
Q 1584 2216 1326 1975
Q 1069 1734 1069 1313
Q 1069 891 1326 650
Q 1584 409 2034 409
Q 2484 409 2743 651
Q 3003 894 3003 1313
Q 3003 1734 2745 1975
Q 2488 2216 2034 2216
z
M 1403 2484
Q 997 2584 770 2862
Q 544 3141 544 3541
Q 544 4100 942 4425
Q 1341 4750 2034 4750
Q 2731 4750 3128 4425
Q 3525 4100 3525 3541
Q 3525 3141 3298 2862
Q 3072 2584 2669 2484
Q 3125 2378 3379 2068
Q 3634 1759 3634 1313
Q 3634 634 3220 271
Q 2806 -91 2034 -91
Q 1263 -91 848 271
Q 434 634 434 1313
Q 434 1759 690 2068
Q 947 2378 1403 2484
z
M 1172 3481
Q 1172 3119 1398 2916
Q 1625 2713 2034 2713
Q 2441 2713 2670 2916
Q 2900 3119 2900 3481
Q 2900 3844 2670 4047
Q 2441 4250 2034 4250
Q 1625 4250 1398 4047
Q 1172 3844 1172 3481
z
" transform="scale(0.015625)"/>
       </defs>
       <use xlink:href="#DejaVuSans-38"/>
       <use xlink:href="#DejaVuSans-30" x="63.623047"/>
       <use xlink:href="#DejaVuSans-30" x="127.246094"/>
       <use xlink:href="#DejaVuSans-30" x="190.869141"/>
       <use xlink:href="#DejaVuSans-30" x="254.492188"/>
      </g>
     </g>
    </g>
    <g id="xtick_6">
     <g id="line2d_6">
      <path d="M 426.257887 296.880313
L 426.257887 41.5155
" clip-path="url(#pfb41fd7ab4)" style="fill: none; stroke: #ffffff; stroke-linecap: round"/>
     </g>
     <g id="text_6">
      <!-- 100000 -->
      <g style="fill: #262626" transform="translate(405.261637 314.738594) scale(0.11 -0.11)">
       <defs>
        <path id="DejaVuSans-31" d="M 794 531
L 1825 531
L 1825 4091
L 703 3866
L 703 4441
L 1819 4666
L 2450 4666
L 2450 531
L 3481 531
L 3481 0
L 794 0
L 794 531
z
" transform="scale(0.015625)"/>
       </defs>
       <use xlink:href="#DejaVuSans-31"/>
       <use xlink:href="#DejaVuSans-30" x="63.623047"/>
       <use xlink:href="#DejaVuSans-30" x="127.246094"/>
       <use xlink:href="#DejaVuSans-30" x="190.869141"/>
       <use xlink:href="#DejaVuSans-30" x="254.492188"/>
       <use xlink:href="#DejaVuSans-30" x="318.115234"/>
      </g>
     </g>
    </g>
    <g id="text_7">
     <!-- Incentive Stock Option Gains -->
     <g style="fill: #262626" transform="translate(171.171364 330.144375) scale(0.12 -0.12)">
      <defs>
       <path id="DejaVuSans-49" d="M 628 4666
L 1259 4666
L 1259 0
L 628 0
L 628 4666
z
" transform="scale(0.015625)"/>
       <path id="DejaVuSans-6e" d="M 3513 2113
L 3513 0
L 2938 0
L 2938 2094
Q 2938 2591 2744 2837
Q 2550 3084 2163 3084
Q 1697 3084 1428 2787
Q 1159 2491 1159 1978
L 1159 0
L 581 0
L 581 3500
L 1159 3500
L 1159 2956
Q 1366 3272 1645 3428
Q 1925 3584 2291 3584
Q 2894 3584 3203 3211
Q 3513 2838 3513 2113
z
" transform="scale(0.015625)"/>
       <path id="DejaVuSans-63" d="M 3122 3366
L 3122 2828
Q 2878 2963 2633 3030
Q 2388 3097 2138 3097
Q 1578 3097 1268 2742
Q 959 2388 959 1747
Q 959 1106 1268 751
Q 1578 397 2138 397
Q 2388 397 2633 464
Q 2878 531 3122 666
L 3122 134
Q 2881 22 2623 -34
Q 2366 -91 2075 -91
Q 1284 -91 818 406
Q 353 903 353 1747
Q 353 2603 823 3093
Q 1294 3584 2113 3584
Q 2378 3584 2631 3529
Q 2884 3475 3122 3366
z
" transform="scale(0.015625)"/>
       <path id="DejaVuSans-65" d="M 3597 1894
L 3597 1613
L 953 1613
Q 991 1019 1311 708
Q 1631 397 2203 397
Q 2534 397 2845 478
Q 3156 559 3463 722
L 3463 178
Q 3153 47 2828 -22
Q 2503 -91 2169 -91
Q 1331 -91 842 396
Q 353 884 353 1716
Q 353 2575 817 3079
Q 1281 3584 2069 3584
Q 2775 3584 3186 3129
Q 3597 2675 3597 1894
z
M 3022 2063
Q 3016 2534 2758 2815
Q 2500 3097 2075 3097
Q 1594 3097 1305 2825
Q 1016 2553 972 2059
L 3022 2063
z
" transform="scale(0.015625)"/>
       <path id="DejaVuSans-74" d="M 1172 4494
L 1172 3500
L 2356 3500
L 2356 3053
L 1172 3053
L 1172 1153
Q 1172 725 1289 603
Q 1406 481 1766 481
L 2356 481
L 2356 0
L 1766 0
Q 1100 0 847 248
Q 594 497 594 1153
L 594 3053
L 172 3053
L 172 3500
L 594 3500
L 594 4494
L 1172 4494
z
" transform="scale(0.015625)"/>
       <path id="DejaVuSans-69" d="M 603 3500
L 1178 3500
L 1178 0
L 603 0
L 603 3500
z
M 603 4863
L 1178 4863
L 1178 4134
L 603 4134
L 603 4863
z
" transform="scale(0.015625)"/>
       <path id="DejaVuSans-76" d="M 191 3500
L 800 3500
L 1894 563
L 2988 3500
L 3597 3500
L 2284 0
L 1503 0
L 191 3500
z
" transform="scale(0.015625)"/>
       <path id="DejaVuSans-20" transform="scale(0.015625)"/>
       <path id="DejaVuSans-53" d="M 3425 4513
L 3425 3897
Q 3066 4069 2747 4153
Q 2428 4238 2131 4238
Q 1616 4238 1336 4038
Q 1056 3838 1056 3469
Q 1056 3159 1242 3001
Q 1428 2844 1947 2747
L 2328 2669
Q 3034 2534 3370 2195
Q 3706 1856 3706 1288
Q 3706 609 3251 259
Q 2797 -91 1919 -91
Q 1588 -91 1214 -16
Q 841 59 441 206
L 441 856
Q 825 641 1194 531
Q 1563 422 1919 422
Q 2459 422 2753 634
Q 3047 847 3047 1241
Q 3047 1584 2836 1778
Q 2625 1972 2144 2069
L 1759 2144
Q 1053 2284 737 2584
Q 422 2884 422 3419
Q 422 4038 858 4394
Q 1294 4750 2059 4750
Q 2388 4750 2728 4690
Q 3069 4631 3425 4513
z
" transform="scale(0.015625)"/>
       <path id="DejaVuSans-6f" d="M 1959 3097
Q 1497 3097 1228 2736
Q 959 2375 959 1747
Q 959 1119 1226 758
Q 1494 397 1959 397
Q 2419 397 2687 759
Q 2956 1122 2956 1747
Q 2956 2369 2687 2733
Q 2419 3097 1959 3097
z
M 1959 3584
Q 2709 3584 3137 3096
Q 3566 2609 3566 1747
Q 3566 888 3137 398
Q 2709 -91 1959 -91
Q 1206 -91 779 398
Q 353 888 353 1747
Q 353 2609 779 3096
Q 1206 3584 1959 3584
z
" transform="scale(0.015625)"/>
       <path id="DejaVuSans-6b" d="M 581 4863
L 1159 4863
L 1159 1991
L 2875 3500
L 3609 3500
L 1753 1863
L 3688 0
L 2938 0
L 1159 1709
L 1159 0
L 581 0
L 581 4863
z
" transform="scale(0.015625)"/>
       <path id="DejaVuSans-4f" d="M 2522 4238
Q 1834 4238 1429 3725
Q 1025 3213 1025 2328
Q 1025 1447 1429 934
Q 1834 422 2522 422
Q 3209 422 3611 934
Q 4013 1447 4013 2328
Q 4013 3213 3611 3725
Q 3209 4238 2522 4238
z
M 2522 4750
Q 3503 4750 4090 4092
Q 4678 3434 4678 2328
Q 4678 1225 4090 567
Q 3503 -91 2522 -91
Q 1538 -91 948 565
Q 359 1222 359 2328
Q 359 3434 948 4092
Q 1538 4750 2522 4750
z
" transform="scale(0.015625)"/>
       <path id="DejaVuSans-70" d="M 1159 525
L 1159 -1331
L 581 -1331
L 581 3500
L 1159 3500
L 1159 2969
Q 1341 3281 1617 3432
Q 1894 3584 2278 3584
Q 2916 3584 3314 3078
Q 3713 2572 3713 1747
Q 3713 922 3314 415
Q 2916 -91 2278 -91
Q 1894 -91 1617 61
Q 1341 213 1159 525
z
M 3116 1747
Q 3116 2381 2855 2742
Q 2594 3103 2138 3103
Q 1681 3103 1420 2742
Q 1159 2381 1159 1747
Q 1159 1113 1420 752
Q 1681 391 2138 391
Q 2594 391 2855 752
Q 3116 1113 3116 1747
z
" transform="scale(0.015625)"/>
       <path id="DejaVuSans-47" d="M 3809 666
L 3809 1919
L 2778 1919
L 2778 2438
L 4434 2438
L 4434 434
Q 4069 175 3628 42
Q 3188 -91 2688 -91
Q 1594 -91 976 548
Q 359 1188 359 2328
Q 359 3472 976 4111
Q 1594 4750 2688 4750
Q 3144 4750 3555 4637
Q 3966 4525 4313 4306
L 4313 3634
Q 3963 3931 3569 4081
Q 3175 4231 2741 4231
Q 1884 4231 1454 3753
Q 1025 3275 1025 2328
Q 1025 1384 1454 906
Q 1884 428 2741 428
Q 3075 428 3337 486
Q 3600 544 3809 666
z
" transform="scale(0.015625)"/>
       <path id="DejaVuSans-61" d="M 2194 1759
Q 1497 1759 1228 1600
Q 959 1441 959 1056
Q 959 750 1161 570
Q 1363 391 1709 391
Q 2188 391 2477 730
Q 2766 1069 2766 1631
L 2766 1759
L 2194 1759
z
M 3341 1997
L 3341 0
L 2766 0
L 2766 531
Q 2569 213 2275 61
Q 1981 -91 1556 -91
Q 1019 -91 701 211
Q 384 513 384 1019
Q 384 1609 779 1909
Q 1175 2209 1959 2209
L 2766 2209
L 2766 2266
Q 2766 2663 2505 2880
Q 2244 3097 1772 3097
Q 1472 3097 1187 3025
Q 903 2953 641 2809
L 641 3341
Q 956 3463 1253 3523
Q 1550 3584 1831 3584
Q 2591 3584 2966 3190
Q 3341 2797 3341 1997
z
" transform="scale(0.015625)"/>
       <path id="DejaVuSans-73" d="M 2834 3397
L 2834 2853
Q 2591 2978 2328 3040
Q 2066 3103 1784 3103
Q 1356 3103 1142 2972
Q 928 2841 928 2578
Q 928 2378 1081 2264
Q 1234 2150 1697 2047
L 1894 2003
Q 2506 1872 2764 1633
Q 3022 1394 3022 966
Q 3022 478 2636 193
Q 2250 -91 1575 -91
Q 1294 -91 989 -36
Q 684 19 347 128
L 347 722
Q 666 556 975 473
Q 1284 391 1588 391
Q 1994 391 2212 530
Q 2431 669 2431 922
Q 2431 1156 2273 1281
Q 2116 1406 1581 1522
L 1381 1569
Q 847 1681 609 1914
Q 372 2147 372 2553
Q 372 3047 722 3315
Q 1072 3584 1716 3584
Q 2034 3584 2315 3537
Q 2597 3491 2834 3397
z
" transform="scale(0.015625)"/>
      </defs>
      <use xlink:href="#DejaVuSans-49"/>
      <use xlink:href="#DejaVuSans-6e" x="29.492188"/>
      <use xlink:href="#DejaVuSans-63" x="92.871094"/>
      <use xlink:href="#DejaVuSans-65" x="147.851562"/>
      <use xlink:href="#DejaVuSans-6e" x="209.375"/>
      <use xlink:href="#DejaVuSans-74" x="272.753906"/>
      <use xlink:href="#DejaVuSans-69" x="311.962891"/>
      <use xlink:href="#DejaVuSans-76" x="339.746094"/>
      <use xlink:href="#DejaVuSans-65" x="398.925781"/>
      <use xlink:href="#DejaVuSans-20" x="460.449219"/>
      <use xlink:href="#DejaVuSans-53" x="492.236328"/>
      <use xlink:href="#DejaVuSans-74" x="555.712891"/>
      <use xlink:href="#DejaVuSans-6f" x="594.921875"/>
      <use xlink:href="#DejaVuSans-63" x="656.103516"/>
      <use xlink:href="#DejaVuSans-6b" x="711.083984"/>
      <use xlink:href="#DejaVuSans-20" x="768.994141"/>
      <use xlink:href="#DejaVuSans-4f" x="800.78125"/>
      <use xlink:href="#DejaVuSans-70" x="879.492188"/>
      <use xlink:href="#DejaVuSans-74" x="942.96875"/>
      <use xlink:href="#DejaVuSans-69" x="982.177734"/>
      <use xlink:href="#DejaVuSans-6f" x="1009.960938"/>
      <use xlink:href="#DejaVuSans-6e" x="1071.142578"/>
      <use xlink:href="#DejaVuSans-20" x="1134.521484"/>
      <use xlink:href="#DejaVuSans-47" x="1166.308594"/>
      <use xlink:href="#DejaVuSans-61" x="1243.798828"/>
      <use xlink:href="#DejaVuSans-69" x="1305.078125"/>
      <use xlink:href="#DejaVuSans-6e" x="1332.861328"/>
      <use xlink:href="#DejaVuSans-73" x="1396.240234"/>
     </g>
    </g>
   </g>
   <g id="matplotlib.axis_2">
    <g id="ytick_1">
     <g id="line2d_7">
      <path d="M 73.0675 296.880313
L 443.076477 296.880313
" clip-path="url(#pfb41fd7ab4)" style="fill: none; stroke: #ffffff; stroke-linecap: round"/>
     </g>
     <g id="text_8">
      <!-- 0 -->
      <g style="fill: #262626" transform="translate(56.56875 301.059453) scale(0.11 -0.11)">
       <use xlink:href="#DejaVuSans-30"/>
      </g>
     </g>
    </g>
    <g id="ytick_2">
     <g id="line2d_8">
      <path d="M 73.0675 248.002829
L 443.076477 248.002829
" clip-path="url(#pfb41fd7ab4)" style="fill: none; stroke: #ffffff; stroke-linecap: round"/>
     </g>
     <g id="text_9">
      <!-- 10000 -->
      <g style="fill: #262626" transform="translate(28.57375 252.181969) scale(0.11 -0.11)">
       <use xlink:href="#DejaVuSans-31"/>
       <use xlink:href="#DejaVuSans-30" x="63.623047"/>
       <use xlink:href="#DejaVuSans-30" x="127.246094"/>
       <use xlink:href="#DejaVuSans-30" x="190.869141"/>
       <use xlink:href="#DejaVuSans-30" x="254.492188"/>
      </g>
     </g>
    </g>
    <g id="ytick_3">
     <g id="line2d_9">
      <path d="M 73.0675 199.125345
L 443.076477 199.125345
" clip-path="url(#pfb41fd7ab4)" style="fill: none; stroke: #ffffff; stroke-linecap: round"/>
     </g>
     <g id="text_10">
      <!-- 20000 -->
      <g style="fill: #262626" transform="translate(28.57375 203.304486) scale(0.11 -0.11)">
       <use xlink:href="#DejaVuSans-32"/>
       <use xlink:href="#DejaVuSans-30" x="63.623047"/>
       <use xlink:href="#DejaVuSans-30" x="127.246094"/>
       <use xlink:href="#DejaVuSans-30" x="190.869141"/>
       <use xlink:href="#DejaVuSans-30" x="254.492188"/>
      </g>
     </g>
    </g>
    <g id="ytick_4">
     <g id="line2d_10">
      <path d="M 73.0675 150.247861
L 443.076477 150.247861
" clip-path="url(#pfb41fd7ab4)" style="fill: none; stroke: #ffffff; stroke-linecap: round"/>
     </g>
     <g id="text_11">
      <!-- 30000 -->
      <g style="fill: #262626" transform="translate(28.57375 154.427002) scale(0.11 -0.11)">
       <defs>
        <path id="DejaVuSans-33" d="M 2597 2516
Q 3050 2419 3304 2112
Q 3559 1806 3559 1356
Q 3559 666 3084 287
Q 2609 -91 1734 -91
Q 1441 -91 1130 -33
Q 819 25 488 141
L 488 750
Q 750 597 1062 519
Q 1375 441 1716 441
Q 2309 441 2620 675
Q 2931 909 2931 1356
Q 2931 1769 2642 2001
Q 2353 2234 1838 2234
L 1294 2234
L 1294 2753
L 1863 2753
Q 2328 2753 2575 2939
Q 2822 3125 2822 3475
Q 2822 3834 2567 4026
Q 2313 4219 1838 4219
Q 1578 4219 1281 4162
Q 984 4106 628 3988
L 628 4550
Q 988 4650 1302 4700
Q 1616 4750 1894 4750
Q 2613 4750 3031 4423
Q 3450 4097 3450 3541
Q 3450 3153 3228 2886
Q 3006 2619 2597 2516
z
" transform="scale(0.015625)"/>
       </defs>
       <use xlink:href="#DejaVuSans-33"/>
       <use xlink:href="#DejaVuSans-30" x="63.623047"/>
       <use xlink:href="#DejaVuSans-30" x="127.246094"/>
       <use xlink:href="#DejaVuSans-30" x="190.869141"/>
       <use xlink:href="#DejaVuSans-30" x="254.492188"/>
      </g>
     </g>
    </g>
    <g id="ytick_5">
     <g id="line2d_11">
      <path d="M 73.0675 101.370378
L 443.076477 101.370378
" clip-path="url(#pfb41fd7ab4)" style="fill: none; stroke: #ffffff; stroke-linecap: round"/>
     </g>
     <g id="text_12">
      <!-- 40000 -->
      <g style="fill: #262626" transform="translate(28.57375 105.549518) scale(0.11 -0.11)">
       <use xlink:href="#DejaVuSans-34"/>
       <use xlink:href="#DejaVuSans-30" x="63.623047"/>
       <use xlink:href="#DejaVuSans-30" x="127.246094"/>
       <use xlink:href="#DejaVuSans-30" x="190.869141"/>
       <use xlink:href="#DejaVuSans-30" x="254.492188"/>
      </g>
     </g>
    </g>
    <g id="ytick_6">
     <g id="line2d_12">
      <path d="M 73.0675 52.492894
L 443.076477 52.492894
" clip-path="url(#pfb41fd7ab4)" style="fill: none; stroke: #ffffff; stroke-linecap: round"/>
     </g>
     <g id="text_13">
      <!-- 50000 -->
      <g style="fill: #262626" transform="translate(28.57375 56.672035) scale(0.11 -0.11)">
       <defs>
        <path id="DejaVuSans-35" d="M 691 4666
L 3169 4666
L 3169 4134
L 1269 4134
L 1269 2991
Q 1406 3038 1543 3061
Q 1681 3084 1819 3084
Q 2600 3084 3056 2656
Q 3513 2228 3513 1497
Q 3513 744 3044 326
Q 2575 -91 1722 -91
Q 1428 -91 1123 -41
Q 819 9 494 109
L 494 744
Q 775 591 1075 516
Q 1375 441 1709 441
Q 2250 441 2565 725
Q 2881 1009 2881 1497
Q 2881 1984 2565 2268
Q 2250 2553 1709 2553
Q 1456 2553 1204 2497
Q 953 2441 691 2322
L 691 4666
z
" transform="scale(0.015625)"/>
       </defs>
       <use xlink:href="#DejaVuSans-35"/>
       <use xlink:href="#DejaVuSans-30" x="63.623047"/>
       <use xlink:href="#DejaVuSans-30" x="127.246094"/>
       <use xlink:href="#DejaVuSans-30" x="190.869141"/>
       <use xlink:href="#DejaVuSans-30" x="254.492188"/>
      </g>
     </g>
    </g>
    <g id="text_14">
     <!-- Total Federal Tax -->
     <g style="fill: #262626" transform="translate(22.078125 219.050406) rotate(-90) scale(0.12 -0.12)">
      <defs>
       <path id="DejaVuSans-54" d="M -19 4666
L 3928 4666
L 3928 4134
L 2272 4134
L 2272 0
L 1638 0
L 1638 4134
L -19 4134
L -19 4666
z
" transform="scale(0.015625)"/>
       <path id="DejaVuSans-6c" d="M 603 4863
L 1178 4863
L 1178 0
L 603 0
L 603 4863
z
" transform="scale(0.015625)"/>
       <path id="DejaVuSans-46" d="M 628 4666
L 3309 4666
L 3309 4134
L 1259 4134
L 1259 2759
L 3109 2759
L 3109 2228
L 1259 2228
L 1259 0
L 628 0
L 628 4666
z
" transform="scale(0.015625)"/>
       <path id="DejaVuSans-64" d="M 2906 2969
L 2906 4863
L 3481 4863
L 3481 0
L 2906 0
L 2906 525
Q 2725 213 2448 61
Q 2172 -91 1784 -91
Q 1150 -91 751 415
Q 353 922 353 1747
Q 353 2572 751 3078
Q 1150 3584 1784 3584
Q 2172 3584 2448 3432
Q 2725 3281 2906 2969
z
M 947 1747
Q 947 1113 1208 752
Q 1469 391 1925 391
Q 2381 391 2643 752
Q 2906 1113 2906 1747
Q 2906 2381 2643 2742
Q 2381 3103 1925 3103
Q 1469 3103 1208 2742
Q 947 2381 947 1747
z
" transform="scale(0.015625)"/>
       <path id="DejaVuSans-72" d="M 2631 2963
Q 2534 3019 2420 3045
Q 2306 3072 2169 3072
Q 1681 3072 1420 2755
Q 1159 2438 1159 1844
L 1159 0
L 581 0
L 581 3500
L 1159 3500
L 1159 2956
Q 1341 3275 1631 3429
Q 1922 3584 2338 3584
Q 2397 3584 2469 3576
Q 2541 3569 2628 3553
L 2631 2963
z
" transform="scale(0.015625)"/>
       <path id="DejaVuSans-78" d="M 3513 3500
L 2247 1797
L 3578 0
L 2900 0
L 1881 1375
L 863 0
L 184 0
L 1544 1831
L 300 3500
L 978 3500
L 1906 2253
L 2834 3500
L 3513 3500
z
" transform="scale(0.015625)"/>
      </defs>
      <use xlink:href="#DejaVuSans-54"/>
      <use xlink:href="#DejaVuSans-6f" x="44.083984"/>
      <use xlink:href="#DejaVuSans-74" x="105.265625"/>
      <use xlink:href="#DejaVuSans-61" x="144.474609"/>
      <use xlink:href="#DejaVuSans-6c" x="205.753906"/>
      <use xlink:href="#DejaVuSans-20" x="233.537109"/>
      <use xlink:href="#DejaVuSans-46" x="265.324219"/>
      <use xlink:href="#DejaVuSans-65" x="317.34375"/>
      <use xlink:href="#DejaVuSans-64" x="378.867188"/>
      <use xlink:href="#DejaVuSans-65" x="442.34375"/>
      <use xlink:href="#DejaVuSans-72" x="503.867188"/>
      <use xlink:href="#DejaVuSans-61" x="544.980469"/>
      <use xlink:href="#DejaVuSans-6c" x="606.259766"/>
      <use xlink:href="#DejaVuSans-20" x="634.042969"/>
      <use xlink:href="#DejaVuSans-54" x="665.830078"/>
      <use xlink:href="#DejaVuSans-61" x="710.414062"/>
      <use xlink:href="#DejaVuSans-78" x="771.693359"/>
     </g>
    </g>
   </g>
   <g id="patch_3">
    <path d="M 89.88609 296.880313
L 98.295385 296.880313
L 106.70468 296.880313
L 115.113975 296.880313
L 123.52327 296.880313
L 131.932565 296.880313
L 140.34186 296.880313
L 148.751154 296.880313
L 157.160449 296.880313
L 165.569744 296.880313
L 173.979039 296.880313
L 182.388334 296.880313
L 190.797629 296.880313
L 199.206924 296.880313
L 207.616219 296.880313
L 216.025514 296.880313
L 224.434809 296.880313
L 232.844104 296.880313
L 241.253399 296.880313
L 249.662694 296.880313
L 258.071989 296.880313
L 266.481284 296.880313
L 274.890579 296.880313
L 283.299873 296.880313
L 291.709168 296.880313
L 300.118463 296.880313
L 308.527758 296.880313
L 316.937053 296.880313
L 325.346348 296.880313
L 333.755643 296.880313
L 342.164938 296.880313
L 350.574233 296.880313
L 358.983528 296.880313
L 367.392823 296.880313
L 375.802118 296.880313
L 384.211413 296.880313
L 392.620708 296.880313
L 401.030003 296.880313
L 409.439298 296.880313
L 417.848592 296.880313
L 426.257887 296.880313
L 426.257887 139.172224
L 417.848592 142.34926
L 409.439298 145.526297
L 401.030003 148.703333
L 392.620708 151.880369
L 384.211413 155.057406
L 375.802118 158.234442
L 367.392823 161.411479
L 358.983528 164.588515
L 350.574233 167.765552
L 342.164938 170.942588
L 333.755643 174.119624
L 325.346348 177.296661
L 316.937053 180.473697
L 308.527758 183.650734
L 300.118463 186.82777
L 291.709168 190.004807
L 283.299873 193.181843
L 274.890579 196.35888
L 266.481284 199.535916
L 258.071989 202.712952
L 249.662694 205.889989
L 241.253399 209.067025
L 232.844104 212.244062
L 224.434809 215.421098
L 216.025514 218.598135
L 207.616219 221.775171
L 199.206924 224.668718
L 190.797629 224.668718
L 182.388334 224.668718
L 173.979039 224.668718
L 165.569744 224.668718
L 157.160449 224.668718
L 148.751154 224.668718
L 140.34186 224.668718
L 131.932565 224.668718
L 123.52327 224.668718
L 115.113975 224.668718
L 106.70468 224.668718
L 98.295385 224.668718
L 89.88609 224.668718
z
" clip-path="url(#p0ddf25a360)" style="fill: #4c72b0; fill-opacity: 0.7; stroke: #4c72b0; stroke-width: 2; stroke-linejoin: miter"/>
   </g>
   <g id="patch_4">
    <path d="M 89.88609 224.668718
L 98.295385 224.668718
L 106.70468 224.668718
L 115.113975 224.668718
L 123.52327 224.668718
L 131.932565 224.668718
L 140.34186 224.668718
L 148.751154 224.668718
L 157.160449 224.668718
L 165.569744 224.668718
L 173.979039 224.668718
L 182.388334 224.668718
L 190.797629 224.668718
L 199.206924 224.668718
L 207.616219 221.775171
L 216.025514 218.598135
L 224.434809 215.421098
L 232.844104 212.244062
L 241.253399 209.067025
L 249.662694 205.889989
L 258.071989 202.712952
L 266.481284 199.535916
L 274.890579 196.35888
L 283.299873 193.181843
L 291.709168 190.004807
L 300.118463 186.82777
L 308.527758 183.650734
L 316.937053 180.473697
L 325.346348 177.296661
L 333.755643 174.119624
L 342.164938 170.942588
L 350.574233 167.765552
L 358.983528 164.588515
L 367.392823 161.411479
L 375.802118 158.234442
L 384.211413 155.057406
L 392.620708 151.880369
L 401.030003 148.703333
L 409.439298 145.526297
L 417.848592 142.34926
L 426.257887 139.172224
L 426.257887 53.675729
L 417.848592 60.029802
L 409.439298 66.383875
L 401.030003 72.737948
L 392.620708 79.092021
L 384.211413 85.446094
L 375.802118 91.800166
L 367.392823 98.154239
L 358.983528 104.508312
L 350.574233 110.862385
L 342.164938 117.216458
L 333.755643 123.570531
L 325.346348 129.924604
L 316.937053 136.278677
L 308.527758 142.632749
L 300.118463 148.986822
L 291.709168 155.340895
L 283.299873 161.694968
L 274.890579 168.049041
L 266.481284 174.403114
L 258.071989 180.757187
L 249.662694 187.11126
L 241.253399 193.465333
L 232.844104 199.819405
L 224.434809 206.173478
L 216.025514 212.527551
L 207.616219 218.881624
L 199.206924 224.668718
L 190.797629 224.668718
L 182.388334 224.668718
L 173.979039 224.668718
L 165.569744 224.668718
L 157.160449 224.668718
L 148.751154 224.668718
L 140.34186 224.668718
L 131.932565 224.668718
L 123.52327 224.668718
L 115.113975 224.668718
L 106.70468 224.668718
L 98.295385 224.668718
z
" clip-path="url(#p5bdea104ae)" style="fill: #dd8452; fill-opacity: 0.7; stroke: #dd8452; stroke-width: 2; stroke-linejoin: miter"/>
   </g>
   <g id="patch_5">
    <path d="M 73.0675 296.880313
L 73.0675 41.5155
" style="fill: none; stroke: #ffffff; stroke-width: 1.25; stroke-linejoin: miter; stroke-linecap: square"/>
   </g>
   <g id="patch_6">
    <path d="M 443.076477 296.880313
L 443.076477 41.5155
" style="fill: none; stroke: #ffffff; stroke-width: 1.25; stroke-linejoin: miter; stroke-linecap: square"/>
   </g>
   <g id="patch_7">
    <path d="M 73.0675 296.880313
L 443.076477 296.880313
" style="fill: none; stroke: #ffffff; stroke-width: 1.25; stroke-linejoin: miter; stroke-linecap: square"/>
   </g>
   <g id="patch_8">
    <path d="M 73.0675 41.5155
L 443.076477 41.5155
" style="fill: none; stroke: #ffffff; stroke-width: 1.25; stroke-linejoin: miter; stroke-linecap: square"/>
   </g>
   <g id="text_15">
    <!-- Effect of ISO Gains on Federal Alternative Minimum Tax -->
    <g transform="translate(92.228239 22.078125) scale(0.12 -0.12)">
     <defs>
      <path id="DejaVuSans-45" d="M 628 4666
L 3578 4666
L 3578 4134
L 1259 4134
L 1259 2753
L 3481 2753
L 3481 2222
L 1259 2222
L 1259 531
L 3634 531
L 3634 0
L 628 0
L 628 4666
z
" transform="scale(0.015625)"/>
      <path id="DejaVuSans-66" d="M 2375 4863
L 2375 4384
L 1825 4384
Q 1516 4384 1395 4259
Q 1275 4134 1275 3809
L 1275 3500
L 2222 3500
L 2222 3053
L 1275 3053
L 1275 0
L 697 0
L 697 3053
L 147 3053
L 147 3500
L 697 3500
L 697 3744
Q 697 4328 969 4595
Q 1241 4863 1831 4863
L 2375 4863
z
" transform="scale(0.015625)"/>
      <path id="DejaVuSans-41" d="M 2188 4044
L 1331 1722
L 3047 1722
L 2188 4044
z
M 1831 4666
L 2547 4666
L 4325 0
L 3669 0
L 3244 1197
L 1141 1197
L 716 0
L 50 0
L 1831 4666
z
" transform="scale(0.015625)"/>
      <path id="DejaVuSans-4d" d="M 628 4666
L 1569 4666
L 2759 1491
L 3956 4666
L 4897 4666
L 4897 0
L 4281 0
L 4281 4097
L 3078 897
L 2444 897
L 1241 4097
L 1241 0
L 628 0
L 628 4666
z
" transform="scale(0.015625)"/>
      <path id="DejaVuSans-6d" d="M 3328 2828
Q 3544 3216 3844 3400
Q 4144 3584 4550 3584
Q 5097 3584 5394 3201
Q 5691 2819 5691 2113
L 5691 0
L 5113 0
L 5113 2094
Q 5113 2597 4934 2840
Q 4756 3084 4391 3084
Q 3944 3084 3684 2787
Q 3425 2491 3425 1978
L 3425 0
L 2847 0
L 2847 2094
Q 2847 2600 2669 2842
Q 2491 3084 2119 3084
Q 1678 3084 1418 2786
Q 1159 2488 1159 1978
L 1159 0
L 581 0
L 581 3500
L 1159 3500
L 1159 2956
Q 1356 3278 1631 3431
Q 1906 3584 2284 3584
Q 2666 3584 2933 3390
Q 3200 3197 3328 2828
z
" transform="scale(0.015625)"/>
      <path id="DejaVuSans-75" d="M 544 1381
L 544 3500
L 1119 3500
L 1119 1403
Q 1119 906 1312 657
Q 1506 409 1894 409
Q 2359 409 2629 706
Q 2900 1003 2900 1516
L 2900 3500
L 3475 3500
L 3475 0
L 2900 0
L 2900 538
Q 2691 219 2414 64
Q 2138 -91 1772 -91
Q 1169 -91 856 284
Q 544 659 544 1381
z
M 1991 3584
L 1991 3584
z
" transform="scale(0.015625)"/>
     </defs>
     <use xlink:href="#DejaVuSans-45"/>
     <use xlink:href="#DejaVuSans-66" x="63.183594"/>
     <use xlink:href="#DejaVuSans-66" x="98.388672"/>
     <use xlink:href="#DejaVuSans-65" x="133.59375"/>
     <use xlink:href="#DejaVuSans-63" x="195.117188"/>
     <use xlink:href="#DejaVuSans-74" x="250.097656"/>
     <use xlink:href="#DejaVuSans-20" x="289.306641"/>
     <use xlink:href="#DejaVuSans-6f" x="321.09375"/>
     <use xlink:href="#DejaVuSans-66" x="382.275391"/>
     <use xlink:href="#DejaVuSans-20" x="417.480469"/>
     <use xlink:href="#DejaVuSans-49" x="449.267578"/>
     <use xlink:href="#DejaVuSans-53" x="478.759766"/>
     <use xlink:href="#DejaVuSans-4f" x="542.236328"/>
     <use xlink:href="#DejaVuSans-20" x="620.947266"/>
     <use xlink:href="#DejaVuSans-47" x="652.734375"/>
     <use xlink:href="#DejaVuSans-61" x="730.224609"/>
     <use xlink:href="#DejaVuSans-69" x="791.503906"/>
     <use xlink:href="#DejaVuSans-6e" x="819.287109"/>
     <use xlink:href="#DejaVuSans-73" x="882.666016"/>
     <use xlink:href="#DejaVuSans-20" x="934.765625"/>
     <use xlink:href="#DejaVuSans-6f" x="966.552734"/>
     <use xlink:href="#DejaVuSans-6e" x="1027.734375"/>
     <use xlink:href="#DejaVuSans-20" x="1091.113281"/>
     <use xlink:href="#DejaVuSans-46" x="1122.900391"/>
     <use xlink:href="#DejaVuSans-65" x="1174.919922"/>
     <use xlink:href="#DejaVuSans-64" x="1236.443359"/>
     <use xlink:href="#DejaVuSans-65" x="1299.919922"/>
     <use xlink:href="#DejaVuSans-72" x="1361.443359"/>
     <use xlink:href="#DejaVuSans-61" x="1402.556641"/>
     <use xlink:href="#DejaVuSans-6c" x="1463.835938"/>
     <use xlink:href="#DejaVuSans-20" x="1491.619141"/>
     <use xlink:href="#DejaVuSans-41" x="1523.40625"/>
     <use xlink:href="#DejaVuSans-6c" x="1591.814453"/>
     <use xlink:href="#DejaVuSans-74" x="1619.597656"/>
     <use xlink:href="#DejaVuSans-65" x="1658.806641"/>
     <use xlink:href="#DejaVuSans-72" x="1720.330078"/>
     <use xlink:href="#DejaVuSans-6e" x="1759.693359"/>
     <use xlink:href="#DejaVuSans-61" x="1823.072266"/>
     <use xlink:href="#DejaVuSans-74" x="1884.351562"/>
     <use xlink:href="#DejaVuSans-69" x="1923.560547"/>
     <use xlink:href="#DejaVuSans-76" x="1951.34375"/>
     <use xlink:href="#DejaVuSans-65" x="2010.523438"/>
     <use xlink:href="#DejaVuSans-20" x="2072.046875"/>
     <use xlink:href="#DejaVuSans-4d" x="2103.833984"/>
     <use xlink:href="#DejaVuSans-69" x="2190.113281"/>
     <use xlink:href="#DejaVuSans-6e" x="2217.896484"/>
     <use xlink:href="#DejaVuSans-69" x="2281.275391"/>
     <use xlink:href="#DejaVuSans-6d" x="2309.058594"/>
     <use xlink:href="#DejaVuSans-75" x="2406.470703"/>
     <use xlink:href="#DejaVuSans-6d" x="2469.849609"/>
     <use xlink:href="#DejaVuSans-20" x="2567.261719"/>
     <use xlink:href="#DejaVuSans-54" x="2599.048828"/>
     <use xlink:href="#DejaVuSans-61" x="2643.632812"/>
     <use xlink:href="#DejaVuSans-78" x="2704.912109"/>
    </g>
    <!-- Given $100K W2 Income -->
    <g transform="translate(183.956051 35.5155) scale(0.12 -0.12)">
     <defs>
      <path id="DejaVuSans-24" d="M 2163 -941
L 1850 -941
L 1847 0
Q 1519 6 1191 76
Q 863 147 531 288
L 531 850
Q 850 650 1176 548
Q 1503 447 1850 444
L 1850 1869
Q 1159 1981 845 2250
Q 531 2519 531 2988
Q 531 3497 872 3790
Q 1213 4084 1850 4128
L 1850 4863
L 2163 4863
L 2163 4138
Q 2453 4125 2725 4076
Q 2997 4028 3256 3944
L 3256 3397
Q 2997 3528 2723 3600
Q 2450 3672 2163 3684
L 2163 2350
Q 2872 2241 3206 1959
Q 3541 1678 3541 1191
Q 3541 663 3186 358
Q 2831 53 2163 6
L 2163 -941
z
M 1850 2406
L 1850 3688
Q 1488 3647 1297 3481
Q 1106 3316 1106 3041
Q 1106 2772 1282 2622
Q 1459 2472 1850 2406
z
M 2163 1806
L 2163 453
Q 2559 506 2761 678
Q 2963 850 2963 1131
Q 2963 1406 2770 1568
Q 2578 1731 2163 1806
z
" transform="scale(0.015625)"/>
      <path id="DejaVuSans-4b" d="M 628 4666
L 1259 4666
L 1259 2694
L 3353 4666
L 4166 4666
L 1850 2491
L 4331 0
L 3500 0
L 1259 2247
L 1259 0
L 628 0
L 628 4666
z
" transform="scale(0.015625)"/>
      <path id="DejaVuSans-57" d="M 213 4666
L 850 4666
L 1831 722
L 2809 4666
L 3519 4666
L 4500 722
L 5478 4666
L 6119 4666
L 4947 0
L 4153 0
L 3169 4050
L 2175 0
L 1381 0
L 213 4666
z
" transform="scale(0.015625)"/>
     </defs>
     <use xlink:href="#DejaVuSans-47"/>
     <use xlink:href="#DejaVuSans-69" x="77.490234"/>
     <use xlink:href="#DejaVuSans-76" x="105.273438"/>
     <use xlink:href="#DejaVuSans-65" x="164.453125"/>
     <use xlink:href="#DejaVuSans-6e" x="225.976562"/>
     <use xlink:href="#DejaVuSans-20" x="289.355469"/>
     <use xlink:href="#DejaVuSans-24" x="321.142578"/>
     <use xlink:href="#DejaVuSans-31" x="384.765625"/>
     <use xlink:href="#DejaVuSans-30" x="448.388672"/>
     <use xlink:href="#DejaVuSans-30" x="512.011719"/>
     <use xlink:href="#DejaVuSans-4b" x="575.634766"/>
     <use xlink:href="#DejaVuSans-20" x="641.210938"/>
     <use xlink:href="#DejaVuSans-57" x="672.998047"/>
     <use xlink:href="#DejaVuSans-32" x="771.875"/>
     <use xlink:href="#DejaVuSans-20" x="835.498047"/>
     <use xlink:href="#DejaVuSans-49" x="867.285156"/>
     <use xlink:href="#DejaVuSans-6e" x="896.777344"/>
     <use xlink:href="#DejaVuSans-63" x="960.15625"/>
     <use xlink:href="#DejaVuSans-6f" x="1015.136719"/>
     <use xlink:href="#DejaVuSans-6d" x="1076.318359"/>
     <use xlink:href="#DejaVuSans-65" x="1173.730469"/>
    </g>
   </g>
  </g>
  <g id="legend_1">
   <g id="patch_9">
    <path d="M 459.284 181.872812
L 568.44525 181.872812
Q 570.64525 181.872812 570.64525 179.672812
L 570.64525 131.367187
Q 570.64525 129.167187 568.44525 129.167187
L 459.284 129.167187
Q 457.084 129.167187 457.084 131.367187
L 457.084 179.672812
Q 457.084 181.872812 459.284 181.872812
z
" style="fill: #eaeaf2; opacity: 0.8; stroke: #cccccc; stroke-linejoin: miter"/>
   </g>
   <g id="text_16">
    <!-- Type -->
    <g transform="translate(500.08525 142.685312) scale(0.12 -0.12)">
     <defs>
      <path id="DejaVuSans-79" d="M 2059 -325
Q 1816 -950 1584 -1140
Q 1353 -1331 966 -1331
L 506 -1331
L 506 -850
L 844 -850
Q 1081 -850 1212 -737
Q 1344 -625 1503 -206
L 1606 56
L 191 3500
L 800 3500
L 1894 763
L 2988 3500
L 3597 3500
L 2059 -325
z
" transform="scale(0.015625)"/>
     </defs>
     <use xlink:href="#DejaVuSans-54"/>
     <use xlink:href="#DejaVuSans-79" x="45.458984"/>
     <use xlink:href="#DejaVuSans-70" x="104.638672"/>
     <use xlink:href="#DejaVuSans-65" x="168.115234"/>
    </g>
   </g>
   <g id="patch_10">
    <path d="M 461.484 159.039219
L 483.484 159.039219
L 483.484 151.339219
L 461.484 151.339219
z
" style="fill: #4c72b0; fill-opacity: 0.7; stroke: #4c72b0; stroke-linejoin: miter"/>
   </g>
   <g id="text_17">
    <!-- "Regular" Tax -->
    <g transform="translate(492.284 159.039219) scale(0.11 -0.11)">
     <defs>
      <path id="DejaVuSans-22" d="M 1147 4666
L 1147 2931
L 616 2931
L 616 4666
L 1147 4666
z
M 2328 4666
L 2328 2931
L 1797 2931
L 1797 4666
L 2328 4666
z
" transform="scale(0.015625)"/>
      <path id="DejaVuSans-52" d="M 2841 2188
Q 3044 2119 3236 1894
Q 3428 1669 3622 1275
L 4263 0
L 3584 0
L 2988 1197
Q 2756 1666 2539 1819
Q 2322 1972 1947 1972
L 1259 1972
L 1259 0
L 628 0
L 628 4666
L 2053 4666
Q 2853 4666 3247 4331
Q 3641 3997 3641 3322
Q 3641 2881 3436 2590
Q 3231 2300 2841 2188
z
M 1259 4147
L 1259 2491
L 2053 2491
Q 2509 2491 2742 2702
Q 2975 2913 2975 3322
Q 2975 3731 2742 3939
Q 2509 4147 2053 4147
L 1259 4147
z
" transform="scale(0.015625)"/>
      <path id="DejaVuSans-67" d="M 2906 1791
Q 2906 2416 2648 2759
Q 2391 3103 1925 3103
Q 1463 3103 1205 2759
Q 947 2416 947 1791
Q 947 1169 1205 825
Q 1463 481 1925 481
Q 2391 481 2648 825
Q 2906 1169 2906 1791
z
M 3481 434
Q 3481 -459 3084 -895
Q 2688 -1331 1869 -1331
Q 1566 -1331 1297 -1286
Q 1028 -1241 775 -1147
L 775 -588
Q 1028 -725 1275 -790
Q 1522 -856 1778 -856
Q 2344 -856 2625 -561
Q 2906 -266 2906 331
L 2906 616
Q 2728 306 2450 153
Q 2172 0 1784 0
Q 1141 0 747 490
Q 353 981 353 1791
Q 353 2603 747 3093
Q 1141 3584 1784 3584
Q 2172 3584 2450 3431
Q 2728 3278 2906 2969
L 2906 3500
L 3481 3500
L 3481 434
z
" transform="scale(0.015625)"/>
     </defs>
     <use xlink:href="#DejaVuSans-22"/>
     <use xlink:href="#DejaVuSans-52" x="45.996094"/>
     <use xlink:href="#DejaVuSans-65" x="110.978516"/>
     <use xlink:href="#DejaVuSans-67" x="172.501953"/>
     <use xlink:href="#DejaVuSans-75" x="235.978516"/>
     <use xlink:href="#DejaVuSans-6c" x="299.357422"/>
     <use xlink:href="#DejaVuSans-61" x="327.140625"/>
     <use xlink:href="#DejaVuSans-72" x="388.419922"/>
     <use xlink:href="#DejaVuSans-22" x="429.533203"/>
     <use xlink:href="#DejaVuSans-20" x="475.529297"/>
     <use xlink:href="#DejaVuSans-54" x="507.316406"/>
     <use xlink:href="#DejaVuSans-61" x="551.900391"/>
     <use xlink:href="#DejaVuSans-78" x="613.179688"/>
    </g>
   </g>
   <g id="patch_11">
    <path d="M 461.484 175.185156
L 483.484 175.185156
L 483.484 167.485156
L 461.484 167.485156
z
" style="fill: #dd8452; fill-opacity: 0.7; stroke: #dd8452; stroke-linejoin: miter"/>
   </g>
   <g id="text_18">
    <!-- AMT -->
    <g transform="translate(492.284 175.185156) scale(0.11 -0.11)">
     <use xlink:href="#DejaVuSans-41"/>
     <use xlink:href="#DejaVuSans-4d" x="68.408203"/>
     <use xlink:href="#DejaVuSans-54" x="154.6875"/>
    </g>
   </g>
  </g>
 </g>
 <defs>
  <clipPath id="pfb41fd7ab4">
   <rect x="73.0675" y="41.5155" width="370.008977" height="255.364813"/>
  </clipPath>
  <clipPath id="p0ddf25a360">
   <path d="M 89.88609 296.880313
L 98.295385 296.880313
L 106.70468 296.880313
L 115.113975 296.880313
L 123.52327 296.880313
L 131.932565 296.880313
L 140.34186 296.880313
L 148.751154 296.880313
L 157.160449 296.880313
L 165.569744 296.880313
L 173.979039 296.880313
L 182.388334 296.880313
L 190.797629 296.880313
L 199.206924 296.880313
L 207.616219 296.880313
L 216.025514 296.880313
L 224.434809 296.880313
L 232.844104 296.880313
L 241.253399 296.880313
L 249.662694 296.880313
L 258.071989 296.880313
L 266.481284 296.880313
L 274.890579 296.880313
L 283.299873 296.880313
L 291.709168 296.880313
L 300.118463 296.880313
L 308.527758 296.880313
L 316.937053 296.880313
L 325.346348 296.880313
L 333.755643 296.880313
L 342.164938 296.880313
L 350.574233 296.880313
L 358.983528 296.880313
L 367.392823 296.880313
L 375.802118 296.880313
L 384.211413 296.880313
L 392.620708 296.880313
L 401.030003 296.880313
L 409.439298 296.880313
L 417.848592 296.880313
L 426.257887 296.880313
L 426.257887 139.172224
L 417.848592 142.34926
L 409.439298 145.526297
L 401.030003 148.703333
L 392.620708 151.880369
L 384.211413 155.057406
L 375.802118 158.234442
L 367.392823 161.411479
L 358.983528 164.588515
L 350.574233 167.765552
L 342.164938 170.942588
L 333.755643 174.119624
L 325.346348 177.296661
L 316.937053 180.473697
L 308.527758 183.650734
L 300.118463 186.82777
L 291.709168 190.004807
L 283.299873 193.181843
L 274.890579 196.35888
L 266.481284 199.535916
L 258.071989 202.712952
L 249.662694 205.889989
L 241.253399 209.067025
L 232.844104 212.244062
L 224.434809 215.421098
L 216.025514 218.598135
L 207.616219 221.775171
L 199.206924 224.668718
L 190.797629 224.668718
L 182.388334 224.668718
L 173.979039 224.668718
L 165.569744 224.668718
L 157.160449 224.668718
L 148.751154 224.668718
L 140.34186 224.668718
L 131.932565 224.668718
L 123.52327 224.668718
L 115.113975 224.668718
L 106.70468 224.668718
L 98.295385 224.668718
L 89.88609 224.668718
z
"/>
  </clipPath>
  <clipPath id="p5bdea104ae">
   <path d="M 89.88609 224.668718
L 98.295385 224.668718
L 106.70468 224.668718
L 115.113975 224.668718
L 123.52327 224.668718
L 131.932565 224.668718
L 140.34186 224.668718
L 148.751154 224.668718
L 157.160449 224.668718
L 165.569744 224.668718
L 173.979039 224.668718
L 182.388334 224.668718
L 190.797629 224.668718
L 199.206924 224.668718
L 207.616219 221.775171
L 216.025514 218.598135
L 224.434809 215.421098
L 232.844104 212.244062
L 241.253399 209.067025
L 249.662694 205.889989
L 258.071989 202.712952
L 266.481284 199.535916
L 274.890579 196.35888
L 283.299873 193.181843
L 291.709168 190.004807
L 300.118463 186.82777
L 308.527758 183.650734
L 316.937053 180.473697
L 325.346348 177.296661
L 333.755643 174.119624
L 342.164938 170.942588
L 350.574233 167.765552
L 358.983528 164.588515
L 367.392823 161.411479
L 375.802118 158.234442
L 384.211413 155.057406
L 392.620708 151.880369
L 401.030003 148.703333
L 409.439298 145.526297
L 417.848592 142.34926
L 426.257887 139.172224
L 426.257887 53.675729
L 417.848592 60.029802
L 409.439298 66.383875
L 401.030003 72.737948
L 392.620708 79.092021
L 384.211413 85.446094
L 375.802118 91.800166
L 367.392823 98.154239
L 358.983528 104.508312
L 350.574233 110.862385
L 342.164938 117.216458
L 333.755643 123.570531
L 325.346348 129.924604
L 316.937053 136.278677
L 308.527758 142.632749
L 300.118463 148.986822
L 291.709168 155.340895
L 283.299873 161.694968
L 274.890579 168.049041
L 266.481284 174.403114
L 258.071989 180.757187
L 249.662694 187.11126
L 241.253399 193.465333
L 232.844104 199.819405
L 224.434809 206.173478
L 216.025514 212.527551
L 207.616219 218.881624
L 199.206924 224.668718
L 190.797629 224.668718
L 182.388334 224.668718
L 173.979039 224.668718
L 165.569744 224.668718
L 157.160449 224.668718
L 148.751154 224.668718
L 140.34186 224.668718
L 131.932565 224.668718
L 123.52327 224.668718
L 115.113975 224.668718
L 106.70468 224.668718
L 98.295385 224.668718
z
"/>
  </clipPath>
 </defs>
</svg>
