<?xml version="1.0" encoding="utf-8" standalone="no"?>
<!DOCTYPE svg PUBLIC "-//W3C//DTD SVG 1.1//EN"
  "http://www.w3.org/Graphics/SVG/1.1/DTD/svg11.dtd">
<svg xmlns:xlink="http://www.w3.org/1999/xlink" width="534.460094pt" height="334.08pt" viewBox="0 0 534.460094 334.08" xmlns="http://www.w3.org/2000/svg" version="1.1">
 <metadata>
  <rdf:RDF xmlns:dc="http://purl.org/dc/elements/1.1/" xmlns:cc="http://creativecommons.org/ns#" xmlns:rdf="http://www.w3.org/1999/02/22-rdf-syntax-ns#">
   <cc:Work>
    <dc:type rdf:resource="http://purl.org/dc/dcmitype/StillImage"/>
    <dc:date>2026-01-23T17:48:03.223057</dc:date>
    <dc:format>image/svg+xml</dc:format>
    <dc:creator>
     <cc:Agent>
      <dc:title>Matplotlib v3.10.8, https://matplotlib.org/</dc:title>
     </cc:Agent>
    </dc:creator>
   </cc:Work>
  </rdf:RDF>
 </metadata>
 <defs>
  <style type="text/css">*{stroke-linejoin: round; stroke-linecap: butt}</style>
 </defs>
 <g id="figure_1">
  <g id="patch_1">
   <path d="M 0 334.08
L 534.460094 334.08
L 534.460094 0
L 0 0
z
" style="fill: #ffffff"/>
  </g>
  <g id="axes_1">
   <g id="patch_2">
    <path d="M 63.049219 291.394375
L 442.08 291.394375
L 442.08 22.32375
L 63.049219 22.32375
z
" style="fill: #eaeaf2"/>
   </g>
   <g id="matplotlib.axis_1">
    <g id="xtick_1">
     <g id="line2d_1">
      <path d="M 80.277891 291.394375
L 80.277891 22.32375
" clip-path="url(#p36f4eec594)" style="fill: none; stroke: #ffffff; stroke-linecap: round"/>
     </g>
     <g id="text_1">
      <!-- 0 -->
      <g style="fill: #262626" transform="translate(77.186719 309.144375) scale(0.11 -0.11)">
       <defs>
        <path id="Roboto-Regular-30" d="M 3234 2638
L 3234 1944
Q 3234 1384 3134 1000
Q 3034 616 2846 381
Q 2659 147 2395 42
Q 2131 -63 1800 -63
Q 1538 -63 1316 3
Q 1094 69 917 214
Q 741 359 616 593
Q 491 828 425 1162
Q 359 1497 359 1944
L 359 2638
Q 359 3197 461 3575
Q 563 3953 750 4183
Q 938 4413 1202 4513
Q 1466 4613 1794 4613
Q 2059 4613 2282 4548
Q 2506 4484 2681 4345
Q 2856 4206 2979 3976
Q 3103 3747 3168 3415
Q 3234 3084 3234 2638
z
M 2653 1850
L 2653 2734
Q 2653 3041 2617 3273
Q 2581 3506 2512 3672
Q 2444 3838 2339 3941
Q 2234 4044 2098 4092
Q 1963 4141 1794 4141
Q 1588 4141 1428 4064
Q 1269 3988 1161 3822
Q 1053 3656 997 3387
Q 941 3119 941 2734
L 941 1850
Q 941 1544 977 1309
Q 1013 1075 1084 904
Q 1156 734 1259 625
Q 1363 516 1498 464
Q 1634 413 1800 413
Q 2013 413 2172 494
Q 2331 575 2439 748
Q 2547 922 2600 1195
Q 2653 1469 2653 1850
z
" transform="scale(0.015625)"/>
       </defs>
       <use xlink:href="#Roboto-Regular-30"/>
      </g>
     </g>
    </g>
    <g id="xtick_2">
     <g id="line2d_2">
      <path d="M 135.409641 291.394375
L 135.409641 22.32375
" clip-path="url(#p36f4eec594)" style="fill: none; stroke: #ffffff; stroke-linecap: round"/>
     </g>
     <g id="text_2">
      <!-- 20000 -->
      <g style="fill: #262626" transform="translate(119.953781 309.144375) scale(0.11 -0.11)">
       <defs>
        <path id="Roboto-Regular-32" d="M 3359 475
L 3359 0
L 381 0
L 381 416
L 1872 2075
Q 2147 2381 2298 2595
Q 2450 2809 2511 2979
Q 2572 3150 2572 3328
Q 2572 3553 2480 3736
Q 2388 3919 2209 4028
Q 2031 4138 1778 4138
Q 1475 4138 1273 4020
Q 1072 3903 972 3693
Q 872 3484 872 3213
L 294 3213
Q 294 3597 462 3915
Q 631 4234 962 4423
Q 1294 4613 1778 4613
Q 2209 4613 2515 4461
Q 2822 4309 2986 4036
Q 3150 3763 3150 3397
Q 3150 3197 3083 2992
Q 3016 2788 2898 2584
Q 2781 2381 2626 2184
Q 2472 1988 2297 1797
L 1078 475
L 3359 475
z
" transform="scale(0.015625)"/>
       </defs>
       <use xlink:href="#Roboto-Regular-32"/>
       <use xlink:href="#Roboto-Regular-30" transform="translate(56.201172 0)"/>
       <use xlink:href="#Roboto-Regular-30" transform="translate(112.402344 0)"/>
       <use xlink:href="#Roboto-Regular-30" transform="translate(168.603516 0)"/>
       <use xlink:href="#Roboto-Regular-30" transform="translate(224.804688 0)"/>
      </g>
     </g>
    </g>
    <g id="xtick_3">
     <g id="line2d_3">
      <path d="M 190.541391 291.394375
L 190.541391 22.32375
" clip-path="url(#p36f4eec594)" style="fill: none; stroke: #ffffff; stroke-linecap: round"/>
     </g>
     <g id="text_3">
      <!-- 40000 -->
      <g style="fill: #262626" transform="translate(175.085531 309.144375) scale(0.11 -0.11)">
       <defs>
        <path id="Roboto-Regular-34" d="M 3453 1531
L 3453 1056
L 166 1056
L 166 1397
L 2203 4550
L 2675 4550
L 2169 3638
L 822 1531
L 3453 1531
z
M 2819 4550
L 2819 0
L 2241 0
L 2241 4550
L 2819 4550
z
" transform="scale(0.015625)"/>
       </defs>
       <use xlink:href="#Roboto-Regular-34"/>
       <use xlink:href="#Roboto-Regular-30" transform="translate(56.201172 0)"/>
       <use xlink:href="#Roboto-Regular-30" transform="translate(112.402344 0)"/>
       <use xlink:href="#Roboto-Regular-30" transform="translate(168.603516 0)"/>
       <use xlink:href="#Roboto-Regular-30" transform="translate(224.804688 0)"/>
      </g>
     </g>
    </g>
    <g id="xtick_4">
     <g id="line2d_4">
      <path d="M 245.673141 291.394375
L 245.673141 22.32375
" clip-path="url(#p36f4eec594)" style="fill: none; stroke: #ffffff; stroke-linecap: round"/>
     </g>
     <g id="text_4">
      <!-- 60000 -->
      <g style="fill: #262626" transform="translate(230.217281 309.144375) scale(0.11 -0.11)">
       <defs>
        <path id="Roboto-Regular-36" d="M 2597 4556
L 2647 4556
L 2647 4066
L 2597 4066
Q 2138 4066 1828 3917
Q 1519 3769 1337 3520
Q 1156 3272 1076 2962
Q 997 2653 997 2334
L 997 1666
Q 997 1363 1069 1130
Q 1141 897 1266 737
Q 1391 578 1548 497
Q 1706 416 1878 416
Q 2078 416 2234 492
Q 2391 569 2498 708
Q 2606 847 2662 1037
Q 2719 1228 2719 1456
Q 2719 1659 2669 1848
Q 2619 2038 2516 2186
Q 2413 2334 2258 2420
Q 2103 2506 1891 2506
Q 1650 2506 1442 2389
Q 1234 2272 1101 2083
Q 969 1894 950 1672
L 644 1675
Q 688 2025 808 2273
Q 928 2522 1108 2680
Q 1288 2838 1511 2911
Q 1734 2984 1984 2984
Q 2325 2984 2572 2856
Q 2819 2728 2978 2514
Q 3138 2300 3214 2033
Q 3291 1766 3291 1484
Q 3291 1163 3200 881
Q 3109 600 2929 387
Q 2750 175 2487 56
Q 2225 -63 1878 -63
Q 1509 -63 1234 89
Q 959 241 778 494
Q 597 747 506 1056
Q 416 1366 416 1684
L 416 1956
Q 416 2438 512 2900
Q 609 3363 848 3738
Q 1088 4113 1513 4334
Q 1938 4556 2597 4556
z
" transform="scale(0.015625)"/>
       </defs>
       <use xlink:href="#Roboto-Regular-36"/>
       <use xlink:href="#Roboto-Regular-30" transform="translate(56.201172 0)"/>
       <use xlink:href="#Roboto-Regular-30" transform="translate(112.402344 0)"/>
       <use xlink:href="#Roboto-Regular-30" transform="translate(168.603516 0)"/>
       <use xlink:href="#Roboto-Regular-30" transform="translate(224.804688 0)"/>
      </g>
     </g>
    </g>
    <g id="xtick_5">
     <g id="line2d_5">
      <path d="M 300.804891 291.394375
L 300.804891 22.32375
" clip-path="url(#p36f4eec594)" style="fill: none; stroke: #ffffff; stroke-linecap: round"/>
     </g>
     <g id="text_5">
      <!-- 80000 -->
      <g style="fill: #262626" transform="translate(285.349031 309.144375) scale(0.11 -0.11)">
       <defs>
        <path id="Roboto-Regular-38" d="M 3247 1231
Q 3247 816 3055 527
Q 2863 238 2536 87
Q 2209 -63 1800 -63
Q 1391 -63 1062 87
Q 734 238 543 527
Q 353 816 353 1231
Q 353 1503 458 1729
Q 563 1956 755 2125
Q 947 2294 1211 2386
Q 1475 2478 1794 2478
Q 2213 2478 2541 2317
Q 2869 2156 3058 1875
Q 3247 1594 3247 1231
z
M 2666 1244
Q 2666 1497 2556 1692
Q 2447 1888 2250 1997
Q 2053 2106 1794 2106
Q 1528 2106 1336 1997
Q 1144 1888 1037 1692
Q 931 1497 931 1244
Q 931 981 1036 795
Q 1141 609 1336 511
Q 1531 413 1800 413
Q 2069 413 2262 511
Q 2456 609 2561 795
Q 2666 981 2666 1244
z
M 3141 3366
Q 3141 3034 2966 2768
Q 2791 2503 2487 2350
Q 2184 2197 1800 2197
Q 1409 2197 1104 2350
Q 800 2503 628 2768
Q 456 3034 456 3366
Q 456 3763 629 4041
Q 803 4319 1106 4466
Q 1409 4613 1797 4613
Q 2188 4613 2491 4466
Q 2794 4319 2967 4041
Q 3141 3763 3141 3366
z
M 2563 3356
Q 2563 3584 2466 3759
Q 2369 3934 2197 4036
Q 2025 4138 1797 4138
Q 1569 4138 1398 4042
Q 1228 3947 1133 3772
Q 1038 3597 1038 3356
Q 1038 3122 1133 2947
Q 1228 2772 1400 2675
Q 1572 2578 1800 2578
Q 2028 2578 2198 2675
Q 2369 2772 2466 2947
Q 2563 3122 2563 3356
z
" transform="scale(0.015625)"/>
       </defs>
       <use xlink:href="#Roboto-Regular-38"/>
       <use xlink:href="#Roboto-Regular-30" transform="translate(56.201172 0)"/>
       <use xlink:href="#Roboto-Regular-30" transform="translate(112.402344 0)"/>
       <use xlink:href="#Roboto-Regular-30" transform="translate(168.603516 0)"/>
       <use xlink:href="#Roboto-Regular-30" transform="translate(224.804688 0)"/>
      </g>
     </g>
    </g>
    <g id="xtick_6">
     <g id="line2d_6">
      <path d="M 355.936641 291.394375
L 355.936641 22.32375
" clip-path="url(#p36f4eec594)" style="fill: none; stroke: #ffffff; stroke-linecap: round"/>
     </g>
     <g id="text_6">
      <!-- 100000 -->
      <g style="fill: #262626" transform="translate(337.389609 309.144375) scale(0.11 -0.11)">
       <defs>
        <path id="Roboto-Regular-31" d="M 2278 4575
L 2278 0
L 1700 0
L 1700 3853
L 534 3428
L 534 3950
L 2188 4575
L 2278 4575
z
" transform="scale(0.015625)"/>
       </defs>
       <use xlink:href="#Roboto-Regular-31"/>
       <use xlink:href="#Roboto-Regular-30" transform="translate(56.201172 0)"/>
       <use xlink:href="#Roboto-Regular-30" transform="translate(112.402344 0)"/>
       <use xlink:href="#Roboto-Regular-30" transform="translate(168.603516 0)"/>
       <use xlink:href="#Roboto-Regular-30" transform="translate(224.804688 0)"/>
       <use xlink:href="#Roboto-Regular-30" transform="translate(281.005859 0)"/>
      </g>
     </g>
    </g>
    <g id="xtick_7">
     <g id="line2d_7">
      <path d="M 411.068391 291.394375
L 411.068391 22.32375
" clip-path="url(#p36f4eec594)" style="fill: none; stroke: #ffffff; stroke-linecap: round"/>
     </g>
     <g id="text_7">
      <!-- 120000 -->
      <g style="fill: #262626" transform="translate(392.521359 309.144375) scale(0.11 -0.11)">
       <use xlink:href="#Roboto-Regular-31"/>
       <use xlink:href="#Roboto-Regular-32" transform="translate(56.201172 0)"/>
       <use xlink:href="#Roboto-Regular-30" transform="translate(112.402344 0)"/>
       <use xlink:href="#Roboto-Regular-30" transform="translate(168.603516 0)"/>
       <use xlink:href="#Roboto-Regular-30" transform="translate(224.804688 0)"/>
       <use xlink:href="#Roboto-Regular-30" transform="translate(281.005859 0)"/>
      </g>
     </g>
    </g>
    <g id="text_8">
     <!-- Long-Term Capital Gains -->
     <g style="fill: #262626" transform="translate(186.633984 324.37875) scale(0.12 -0.12)">
      <defs>
       <path id="Roboto-Regular-4c" d="M 3288 491
L 3288 0
L 1013 0
L 1013 491
L 3288 491
z
M 1131 4550
L 1131 0
L 528 0
L 528 4550
L 1131 4550
z
" transform="scale(0.015625)"/>
       <path id="Roboto-Regular-6f" d="M 288 1653
L 288 1725
Q 288 2091 394 2405
Q 500 2719 700 2951
Q 900 3184 1184 3314
Q 1469 3444 1822 3444
Q 2178 3444 2464 3314
Q 2750 3184 2951 2951
Q 3153 2719 3259 2405
Q 3366 2091 3366 1725
L 3366 1653
Q 3366 1288 3259 975
Q 3153 663 2951 430
Q 2750 197 2467 67
Q 2184 -63 1828 -63
Q 1472 -63 1187 67
Q 903 197 701 430
Q 500 663 394 975
Q 288 1288 288 1653
z
M 866 1725
L 866 1653
Q 866 1400 925 1176
Q 984 953 1104 781
Q 1225 609 1406 511
Q 1588 413 1828 413
Q 2066 413 2245 511
Q 2425 609 2544 781
Q 2663 953 2723 1176
Q 2784 1400 2784 1653
L 2784 1725
Q 2784 1975 2723 2198
Q 2663 2422 2542 2595
Q 2422 2769 2242 2869
Q 2063 2969 1822 2969
Q 1584 2969 1404 2869
Q 1225 2769 1104 2595
Q 984 2422 925 2198
Q 866 1975 866 1725
z
" transform="scale(0.015625)"/>
       <path id="Roboto-Regular-6e" d="M 1019 2659
L 1019 0
L 441 0
L 441 3381
L 988 3381
L 1019 2659
z
M 881 1819
L 641 1828
Q 644 2175 744 2470
Q 844 2766 1025 2984
Q 1206 3203 1457 3323
Q 1709 3444 2016 3444
Q 2266 3444 2466 3376
Q 2666 3309 2808 3162
Q 2950 3016 3025 2783
Q 3100 2550 3100 2216
L 3100 0
L 2519 0
L 2519 2222
Q 2519 2488 2441 2648
Q 2363 2809 2213 2882
Q 2063 2956 1844 2956
Q 1628 2956 1451 2865
Q 1275 2775 1148 2615
Q 1022 2456 951 2251
Q 881 2047 881 1819
z
" transform="scale(0.015625)"/>
       <path id="Roboto-Regular-67" d="M 2631 3381
L 3156 3381
L 3156 72
Q 3156 -375 2975 -690
Q 2794 -1006 2470 -1170
Q 2147 -1334 1725 -1334
Q 1550 -1334 1314 -1279
Q 1078 -1225 851 -1095
Q 625 -966 472 -747
L 775 -403
Q 988 -659 1220 -759
Q 1453 -859 1681 -859
Q 1956 -859 2156 -756
Q 2356 -653 2467 -451
Q 2578 -250 2578 44
L 2578 2638
L 2631 3381
z
M 303 1653
L 303 1719
Q 303 2106 395 2423
Q 488 2741 661 2969
Q 834 3197 1081 3320
Q 1328 3444 1638 3444
Q 1956 3444 2195 3333
Q 2434 3222 2601 3011
Q 2769 2800 2866 2503
Q 2963 2206 3000 1831
L 3000 1544
Q 2966 1172 2867 875
Q 2769 578 2601 368
Q 2434 159 2193 48
Q 1953 -63 1631 -63
Q 1328 -63 1083 65
Q 838 194 663 425
Q 488 656 395 970
Q 303 1284 303 1653
z
M 881 1719
L 881 1653
Q 881 1400 932 1178
Q 984 956 1092 787
Q 1200 619 1369 523
Q 1538 428 1772 428
Q 2059 428 2246 550
Q 2434 672 2545 872
Q 2656 1072 2719 1306
L 2719 2059
Q 2684 2231 2614 2392
Q 2544 2553 2433 2679
Q 2322 2806 2159 2881
Q 1997 2956 1778 2956
Q 1541 2956 1370 2857
Q 1200 2759 1092 2589
Q 984 2419 932 2195
Q 881 1972 881 1719
z
" transform="scale(0.015625)"/>
       <path id="Roboto-Regular-2d" d="M 1644 2172
L 1644 1697
L 119 1697
L 119 2172
L 1644 2172
z
" transform="scale(0.015625)"/>
       <path id="Roboto-Regular-54" d="M 2209 4550
L 2209 0
L 1616 0
L 1616 4550
L 2209 4550
z
M 3672 4550
L 3672 4056
L 156 4056
L 156 4550
L 3672 4550
z
" transform="scale(0.015625)"/>
       <path id="Roboto-Regular-65" d="M 1844 -63
Q 1491 -63 1205 57
Q 919 178 714 397
Q 509 616 400 916
Q 291 1216 291 1572
L 291 1703
Q 291 2116 412 2439
Q 534 2763 743 2988
Q 953 3213 1218 3328
Q 1484 3444 1769 3444
Q 2131 3444 2395 3319
Q 2659 3194 2828 2970
Q 2997 2747 3078 2445
Q 3159 2144 3159 1788
L 3159 1528
L 634 1528
L 634 2000
L 2581 2000
L 2581 2044
Q 2569 2269 2489 2481
Q 2409 2694 2237 2831
Q 2066 2969 1769 2969
Q 1572 2969 1406 2886
Q 1241 2803 1122 2640
Q 1003 2478 937 2243
Q 872 2009 872 1703
L 872 1572
Q 872 1331 939 1120
Q 1006 909 1136 750
Q 1266 591 1452 500
Q 1638 409 1875 409
Q 2181 409 2393 534
Q 2606 659 2766 869
L 3116 591
Q 3006 425 2837 275
Q 2669 125 2423 31
Q 2178 -63 1844 -63
z
" transform="scale(0.015625)"/>
       <path id="Roboto-Regular-72" d="M 1019 2850
L 1019 0
L 441 0
L 441 3381
L 1003 3381
L 1019 2850
z
M 2075 3400
L 2072 2863
Q 2000 2878 1936 2883
Q 1872 2888 1791 2888
Q 1591 2888 1437 2825
Q 1284 2763 1178 2650
Q 1072 2538 1011 2383
Q 950 2228 931 2044
L 769 1950
Q 769 2256 830 2525
Q 891 2794 1019 3001
Q 1147 3209 1345 3326
Q 1544 3444 1819 3444
Q 1881 3444 1962 3430
Q 2044 3416 2075 3400
z
" transform="scale(0.015625)"/>
       <path id="Roboto-Regular-6d" d="M 1016 2709
L 1016 0
L 434 0
L 434 3381
L 984 3381
L 1016 2709
z
M 897 1819
L 628 1828
Q 631 2175 718 2470
Q 806 2766 978 2984
Q 1150 3203 1406 3323
Q 1663 3444 2000 3444
Q 2238 3444 2438 3376
Q 2638 3309 2784 3165
Q 2931 3022 3012 2797
Q 3094 2572 3094 2253
L 3094 0
L 2516 0
L 2516 2225
Q 2516 2491 2427 2650
Q 2338 2809 2175 2882
Q 2013 2956 1794 2956
Q 1538 2956 1366 2865
Q 1194 2775 1091 2615
Q 988 2456 942 2251
Q 897 2047 897 1819
z
M 3088 2138
L 2700 2019
Q 2703 2297 2792 2553
Q 2881 2809 3051 3009
Q 3222 3209 3472 3326
Q 3722 3444 4044 3444
Q 4316 3444 4527 3372
Q 4738 3300 4883 3151
Q 5028 3003 5103 2772
Q 5178 2541 5178 2222
L 5178 0
L 4597 0
L 4597 2228
Q 4597 2513 4508 2670
Q 4419 2828 4258 2892
Q 4097 2956 3875 2956
Q 3684 2956 3537 2890
Q 3391 2825 3291 2711
Q 3191 2597 3139 2450
Q 3088 2303 3088 2138
z
" transform="scale(0.015625)"/>
       <path id="Roboto-Regular-20" transform="scale(0.015625)"/>
       <path id="Roboto-Regular-43" d="M 3275 1447
L 3875 1447
Q 3828 1016 3628 675
Q 3428 334 3062 135
Q 2697 -63 2150 -63
Q 1750 -63 1423 87
Q 1097 238 862 514
Q 628 791 501 1180
Q 375 1569 375 2047
L 375 2500
Q 375 2978 501 3367
Q 628 3756 867 4034
Q 1106 4313 1443 4463
Q 1781 4613 2203 4613
Q 2719 4613 3075 4419
Q 3431 4225 3629 3883
Q 3828 3541 3875 3091
L 3275 3091
Q 3231 3409 3112 3639
Q 2994 3869 2775 3994
Q 2556 4119 2203 4119
Q 1900 4119 1670 4003
Q 1441 3888 1286 3675
Q 1131 3463 1053 3166
Q 975 2869 975 2506
L 975 2047
Q 975 1713 1045 1419
Q 1116 1125 1259 903
Q 1403 681 1625 554
Q 1847 428 2150 428
Q 2534 428 2762 550
Q 2991 672 3108 900
Q 3225 1128 3275 1447
z
" transform="scale(0.015625)"/>
       <path id="Roboto-Regular-61" d="M 2434 578
L 2434 2319
Q 2434 2519 2354 2667
Q 2275 2816 2115 2897
Q 1956 2978 1722 2978
Q 1503 2978 1339 2903
Q 1175 2828 1083 2706
Q 991 2584 991 2444
L 413 2444
Q 413 2625 506 2803
Q 600 2981 776 3126
Q 953 3272 1201 3358
Q 1450 3444 1756 3444
Q 2125 3444 2408 3319
Q 2691 3194 2852 2942
Q 3013 2691 3013 2313
L 3013 738
Q 3013 569 3042 378
Q 3072 188 3131 50
L 3131 0
L 2528 0
Q 2484 100 2459 267
Q 2434 434 2434 578
z
M 2534 2050
L 2541 1644
L 1956 1644
Q 1709 1644 1515 1605
Q 1322 1566 1190 1487
Q 1059 1409 990 1292
Q 922 1175 922 1019
Q 922 859 994 728
Q 1066 597 1211 520
Q 1356 444 1569 444
Q 1834 444 2037 556
Q 2241 669 2361 831
Q 2481 994 2491 1147
L 2738 869
Q 2716 738 2619 578
Q 2522 419 2361 273
Q 2200 128 1979 32
Q 1759 -63 1484 -63
Q 1141 -63 883 71
Q 625 206 483 432
Q 341 659 341 941
Q 341 1213 447 1420
Q 553 1628 753 1767
Q 953 1906 1234 1978
Q 1516 2050 1863 2050
L 2534 2050
z
" transform="scale(0.015625)"/>
       <path id="Roboto-Regular-70" d="M 1019 2731
L 1019 -1300
L 438 -1300
L 438 3381
L 969 3381
L 1019 2731
z
M 3297 1719
L 3297 1653
Q 3297 1284 3209 970
Q 3122 656 2955 425
Q 2788 194 2544 65
Q 2300 -63 1984 -63
Q 1663 -63 1416 43
Q 1169 150 997 353
Q 825 556 723 840
Q 622 1125 584 1481
L 584 1831
Q 622 2206 725 2503
Q 828 2800 998 3011
Q 1169 3222 1412 3333
Q 1656 3444 1975 3444
Q 2294 3444 2541 3320
Q 2788 3197 2956 2969
Q 3125 2741 3211 2423
Q 3297 2106 3297 1719
z
M 2716 1653
L 2716 1719
Q 2716 1972 2662 2195
Q 2609 2419 2498 2589
Q 2388 2759 2216 2857
Q 2044 2956 1806 2956
Q 1588 2956 1427 2881
Q 1266 2806 1153 2679
Q 1041 2553 970 2392
Q 900 2231 866 2059
L 866 1250
Q 928 1031 1040 839
Q 1153 647 1340 530
Q 1528 413 1813 413
Q 2047 413 2217 511
Q 2388 609 2498 781
Q 2609 953 2662 1176
Q 2716 1400 2716 1653
z
" transform="scale(0.015625)"/>
       <path id="Roboto-Regular-69" d="M 1069 3381
L 1069 0
L 488 0
L 488 3381
L 1069 3381
z
M 444 4278
Q 444 4419 530 4516
Q 616 4613 784 4613
Q 950 4613 1039 4516
Q 1128 4419 1128 4278
Q 1128 4144 1039 4048
Q 950 3953 784 3953
Q 616 3953 530 4048
Q 444 4144 444 4278
z
" transform="scale(0.015625)"/>
       <path id="Roboto-Regular-74" d="M 1856 3381
L 1856 2938
L 28 2938
L 28 3381
L 1856 3381
z
M 647 4203
L 1225 4203
L 1225 838
Q 1225 666 1278 578
Q 1331 491 1415 462
Q 1500 434 1597 434
Q 1669 434 1748 448
Q 1828 463 1869 472
L 1872 0
Q 1803 -22 1692 -42
Q 1581 -63 1425 -63
Q 1213 -63 1034 21
Q 856 106 751 304
Q 647 503 647 841
L 647 4203
z
" transform="scale(0.015625)"/>
       <path id="Roboto-Regular-6c" d="M 1069 4800
L 1069 0
L 488 0
L 488 4800
L 1069 4800
z
" transform="scale(0.015625)"/>
       <path id="Roboto-Regular-47" d="M 3891 2266
L 3891 600
Q 3806 475 3622 320
Q 3438 166 3114 51
Q 2791 -63 2281 -63
Q 1866 -63 1517 82
Q 1169 228 914 508
Q 659 788 520 1189
Q 381 1591 381 2100
L 381 2453
Q 381 2963 501 3363
Q 622 3763 856 4042
Q 1091 4322 1431 4467
Q 1772 4613 2213 4613
Q 2734 4613 3086 4433
Q 3438 4253 3636 3937
Q 3834 3622 3891 3219
L 3288 3219
Q 3247 3466 3126 3669
Q 3006 3872 2784 3995
Q 2563 4119 2213 4119
Q 1897 4119 1665 4003
Q 1434 3888 1284 3672
Q 1134 3456 1061 3150
Q 988 2844 988 2459
L 988 2100
Q 988 1706 1080 1397
Q 1172 1088 1344 870
Q 1516 653 1755 540
Q 1994 428 2284 428
Q 2606 428 2806 483
Q 3006 538 3118 614
Q 3231 691 3291 759
L 3291 1778
L 2238 1778
L 2238 2266
L 3891 2266
z
" transform="scale(0.015625)"/>
       <path id="Roboto-Regular-73" d="M 2409 897
Q 2409 1022 2354 1130
Q 2300 1238 2133 1327
Q 1966 1416 1631 1481
Q 1350 1541 1123 1622
Q 897 1703 739 1818
Q 581 1934 497 2090
Q 413 2247 413 2456
Q 413 2656 502 2834
Q 591 3013 755 3150
Q 919 3288 1150 3366
Q 1381 3444 1666 3444
Q 2072 3444 2359 3300
Q 2647 3156 2800 2917
Q 2953 2678 2953 2388
L 2375 2388
Q 2375 2528 2292 2661
Q 2209 2794 2051 2881
Q 1894 2969 1666 2969
Q 1425 2969 1276 2895
Q 1128 2822 1061 2709
Q 994 2597 994 2472
Q 994 2378 1026 2304
Q 1059 2231 1143 2170
Q 1228 2109 1381 2056
Q 1534 2003 1772 1950
Q 2188 1856 2456 1725
Q 2725 1594 2856 1403
Q 2988 1213 2988 941
Q 2988 719 2895 534
Q 2803 350 2629 217
Q 2456 84 2217 10
Q 1978 -63 1681 -63
Q 1234 -63 925 96
Q 616 256 456 509
Q 297 763 297 1044
L 878 1044
Q 891 806 1016 667
Q 1141 528 1322 470
Q 1503 413 1681 413
Q 1919 413 2080 475
Q 2241 538 2325 647
Q 2409 756 2409 897
z
" transform="scale(0.015625)"/>
      </defs>
      <use xlink:href="#Roboto-Regular-4c"/>
      <use xlink:href="#Roboto-Regular-6f" transform="translate(53.857422 0)"/>
      <use xlink:href="#Roboto-Regular-6e" transform="translate(110.888672 0)"/>
      <use xlink:href="#Roboto-Regular-67" transform="translate(166.113281 0)"/>
      <use xlink:href="#Roboto-Regular-2d" transform="translate(222.265625 0)"/>
      <use xlink:href="#Roboto-Regular-54" transform="translate(249.902344 0)"/>
      <use xlink:href="#Roboto-Regular-65" transform="translate(309.570312 0)"/>
      <use xlink:href="#Roboto-Regular-72" transform="translate(362.597656 0)"/>
      <use xlink:href="#Roboto-Regular-6d" transform="translate(396.484375 0)"/>
      <use xlink:href="#Roboto-Regular-20" transform="translate(484.179688 0)"/>
      <use xlink:href="#Roboto-Regular-43" transform="translate(508.984375 0)"/>
      <use xlink:href="#Roboto-Regular-61" transform="translate(574.072266 0)"/>
      <use xlink:href="#Roboto-Regular-70" transform="translate(628.466797 0)"/>
      <use xlink:href="#Roboto-Regular-69" transform="translate(684.619141 0)"/>
      <use xlink:href="#Roboto-Regular-74" transform="translate(708.935547 0)"/>
      <use xlink:href="#Roboto-Regular-61" transform="translate(741.650391 0)"/>
      <use xlink:href="#Roboto-Regular-6c" transform="translate(796.044922 0)"/>
      <use xlink:href="#Roboto-Regular-20" transform="translate(820.361328 0)"/>
      <use xlink:href="#Roboto-Regular-47" transform="translate(845.166016 0)"/>
      <use xlink:href="#Roboto-Regular-61" transform="translate(913.28125 0)"/>
      <use xlink:href="#Roboto-Regular-69" transform="translate(967.675781 0)"/>
      <use xlink:href="#Roboto-Regular-6e" transform="translate(991.992188 0)"/>
      <use xlink:href="#Roboto-Regular-73" transform="translate(1047.216797 0)"/>
     </g>
    </g>
   </g>
   <g id="matplotlib.axis_2">
    <g id="ytick_1">
     <g id="line2d_8">
      <path d="M 63.049219 291.394375
L 442.08 291.394375
" clip-path="url(#p36f4eec594)" style="fill: none; stroke: #ffffff; stroke-linecap: round"/>
     </g>
     <g id="text_9">
      <!-- 0 -->
      <g style="fill: #262626" transform="translate(47.366875 295.519375) scale(0.11 -0.11)">
       <use xlink:href="#Roboto-Regular-30"/>
      </g>
     </g>
    </g>
    <g id="ytick_2">
     <g id="line2d_9">
      <path d="M 63.049219 260.978748
L 442.08 260.978748
" clip-path="url(#p36f4eec594)" style="fill: none; stroke: #ffffff; stroke-linecap: round"/>
     </g>
     <g id="text_10">
      <!-- 5000 -->
      <g style="fill: #262626" transform="translate(28.819844 265.103748) scale(0.11 -0.11)">
       <defs>
        <path id="Roboto-Regular-35" d="M 1109 2166
L 647 2284
L 875 4550
L 3209 4550
L 3209 4016
L 1366 4016
L 1228 2778
Q 1353 2850 1545 2912
Q 1738 2975 1988 2975
Q 2303 2975 2553 2867
Q 2803 2759 2979 2559
Q 3156 2359 3250 2078
Q 3344 1797 3344 1450
Q 3344 1122 3255 847
Q 3166 572 2987 367
Q 2809 163 2539 50
Q 2269 -63 1903 -63
Q 1628 -63 1383 14
Q 1138 91 945 248
Q 753 406 633 642
Q 513 878 481 1197
L 1031 1197
Q 1069 941 1181 766
Q 1294 591 1476 502
Q 1659 413 1903 413
Q 2109 413 2268 484
Q 2428 556 2537 690
Q 2647 825 2705 1015
Q 2763 1206 2763 1444
Q 2763 1659 2703 1843
Q 2644 2028 2526 2165
Q 2409 2303 2240 2379
Q 2072 2456 1853 2456
Q 1563 2456 1414 2378
Q 1266 2300 1109 2166
z
" transform="scale(0.015625)"/>
       </defs>
       <use xlink:href="#Roboto-Regular-35"/>
       <use xlink:href="#Roboto-Regular-30" transform="translate(56.201172 0)"/>
       <use xlink:href="#Roboto-Regular-30" transform="translate(112.402344 0)"/>
       <use xlink:href="#Roboto-Regular-30" transform="translate(168.603516 0)"/>
      </g>
     </g>
    </g>
    <g id="ytick_3">
     <g id="line2d_10">
      <path d="M 63.049219 230.563122
L 442.08 230.563122
" clip-path="url(#p36f4eec594)" style="fill: none; stroke: #ffffff; stroke-linecap: round"/>
     </g>
     <g id="text_11">
      <!-- 10000 -->
      <g style="fill: #262626" transform="translate(22.6375 234.688122) scale(0.11 -0.11)">
       <use xlink:href="#Roboto-Regular-31"/>
       <use xlink:href="#Roboto-Regular-30" transform="translate(56.201172 0)"/>
       <use xlink:href="#Roboto-Regular-30" transform="translate(112.402344 0)"/>
       <use xlink:href="#Roboto-Regular-30" transform="translate(168.603516 0)"/>
       <use xlink:href="#Roboto-Regular-30" transform="translate(224.804688 0)"/>
      </g>
     </g>
    </g>
    <g id="ytick_4">
     <g id="line2d_11">
      <path d="M 63.049219 200.147495
L 442.08 200.147495
" clip-path="url(#p36f4eec594)" style="fill: none; stroke: #ffffff; stroke-linecap: round"/>
     </g>
     <g id="text_12">
      <!-- 15000 -->
      <g style="fill: #262626" transform="translate(22.6375 204.272495) scale(0.11 -0.11)">
       <use xlink:href="#Roboto-Regular-31"/>
       <use xlink:href="#Roboto-Regular-35" transform="translate(56.201172 0)"/>
       <use xlink:href="#Roboto-Regular-30" transform="translate(112.402344 0)"/>
       <use xlink:href="#Roboto-Regular-30" transform="translate(168.603516 0)"/>
       <use xlink:href="#Roboto-Regular-30" transform="translate(224.804688 0)"/>
      </g>
     </g>
    </g>
    <g id="ytick_5">
     <g id="line2d_12">
      <path d="M 63.049219 169.731868
L 442.08 169.731868
" clip-path="url(#p36f4eec594)" style="fill: none; stroke: #ffffff; stroke-linecap: round"/>
     </g>
     <g id="text_13">
      <!-- 20000 -->
      <g style="fill: #262626" transform="translate(22.6375 173.856868) scale(0.11 -0.11)">
       <use xlink:href="#Roboto-Regular-32"/>
       <use xlink:href="#Roboto-Regular-30" transform="translate(56.201172 0)"/>
       <use xlink:href="#Roboto-Regular-30" transform="translate(112.402344 0)"/>
       <use xlink:href="#Roboto-Regular-30" transform="translate(168.603516 0)"/>
       <use xlink:href="#Roboto-Regular-30" transform="translate(224.804688 0)"/>
      </g>
     </g>
    </g>
    <g id="ytick_6">
     <g id="line2d_13">
      <path d="M 63.049219 139.316241
L 442.08 139.316241
" clip-path="url(#p36f4eec594)" style="fill: none; stroke: #ffffff; stroke-linecap: round"/>
     </g>
     <g id="text_14">
      <!-- 25000 -->
      <g style="fill: #262626" transform="translate(22.6375 143.441241) scale(0.11 -0.11)">
       <use xlink:href="#Roboto-Regular-32"/>
       <use xlink:href="#Roboto-Regular-35" transform="translate(56.201172 0)"/>
       <use xlink:href="#Roboto-Regular-30" transform="translate(112.402344 0)"/>
       <use xlink:href="#Roboto-Regular-30" transform="translate(168.603516 0)"/>
       <use xlink:href="#Roboto-Regular-30" transform="translate(224.804688 0)"/>
      </g>
     </g>
    </g>
    <g id="ytick_7">
     <g id="line2d_14">
      <path d="M 63.049219 108.900615
L 442.08 108.900615
" clip-path="url(#p36f4eec594)" style="fill: none; stroke: #ffffff; stroke-linecap: round"/>
     </g>
     <g id="text_15">
      <!-- 30000 -->
      <g style="fill: #262626" transform="translate(22.6375 113.025615) scale(0.11 -0.11)">
       <defs>
        <path id="Roboto-Regular-33" d="M 1222 2559
L 1634 2559
Q 1938 2559 2136 2661
Q 2334 2763 2432 2939
Q 2531 3116 2531 3338
Q 2531 3600 2443 3778
Q 2356 3956 2181 4047
Q 2006 4138 1738 4138
Q 1494 4138 1308 4042
Q 1122 3947 1017 3772
Q 913 3597 913 3359
L 334 3359
Q 334 3706 509 3990
Q 684 4275 1001 4444
Q 1319 4613 1738 4613
Q 2150 4613 2459 4467
Q 2769 4322 2941 4036
Q 3113 3750 3113 3325
Q 3113 3153 3033 2958
Q 2953 2763 2786 2594
Q 2619 2425 2353 2317
Q 2088 2209 1716 2209
L 1222 2209
L 1222 2559
z
M 1222 2084
L 1222 2431
L 1716 2431
Q 2150 2431 2434 2328
Q 2719 2225 2883 2053
Q 3047 1881 3114 1676
Q 3181 1472 3181 1269
Q 3181 950 3073 703
Q 2966 456 2770 284
Q 2575 113 2312 25
Q 2050 -63 1741 -63
Q 1444 -63 1183 21
Q 922 106 722 267
Q 522 428 409 664
Q 297 900 297 1203
L 875 1203
Q 875 966 979 787
Q 1084 609 1279 511
Q 1475 413 1741 413
Q 2006 413 2198 505
Q 2391 597 2495 784
Q 2600 972 2600 1256
Q 2600 1541 2481 1723
Q 2363 1906 2145 1995
Q 1928 2084 1634 2084
L 1222 2084
z
" transform="scale(0.015625)"/>
       </defs>
       <use xlink:href="#Roboto-Regular-33"/>
       <use xlink:href="#Roboto-Regular-30" transform="translate(56.201172 0)"/>
       <use xlink:href="#Roboto-Regular-30" transform="translate(112.402344 0)"/>
       <use xlink:href="#Roboto-Regular-30" transform="translate(168.603516 0)"/>
       <use xlink:href="#Roboto-Regular-30" transform="translate(224.804688 0)"/>
      </g>
     </g>
    </g>
    <g id="ytick_8">
     <g id="line2d_15">
      <path d="M 63.049219 78.484988
L 442.08 78.484988
" clip-path="url(#p36f4eec594)" style="fill: none; stroke: #ffffff; stroke-linecap: round"/>
     </g>
     <g id="text_16">
      <!-- 35000 -->
      <g style="fill: #262626" transform="translate(22.6375 82.609988) scale(0.11 -0.11)">
       <use xlink:href="#Roboto-Regular-33"/>
       <use xlink:href="#Roboto-Regular-35" transform="translate(56.201172 0)"/>
       <use xlink:href="#Roboto-Regular-30" transform="translate(112.402344 0)"/>
       <use xlink:href="#Roboto-Regular-30" transform="translate(168.603516 0)"/>
       <use xlink:href="#Roboto-Regular-30" transform="translate(224.804688 0)"/>
      </g>
     </g>
    </g>
    <g id="ytick_9">
     <g id="line2d_16">
      <path d="M 63.049219 48.069361
L 442.08 48.069361
" clip-path="url(#p36f4eec594)" style="fill: none; stroke: #ffffff; stroke-linecap: round"/>
     </g>
     <g id="text_17">
      <!-- 40000 -->
      <g style="fill: #262626" transform="translate(22.6375 52.194361) scale(0.11 -0.11)">
       <use xlink:href="#Roboto-Regular-34"/>
       <use xlink:href="#Roboto-Regular-30" transform="translate(56.201172 0)"/>
       <use xlink:href="#Roboto-Regular-30" transform="translate(112.402344 0)"/>
       <use xlink:href="#Roboto-Regular-30" transform="translate(168.603516 0)"/>
       <use xlink:href="#Roboto-Regular-30" transform="translate(224.804688 0)"/>
      </g>
     </g>
    </g>
    <g id="text_18">
     <!-- Total Tax -->
     <g style="fill: #262626" transform="translate(16.2 181.855625) rotate(-90) scale(0.12 -0.12)">
      <defs>
       <path id="Roboto-Regular-78" d="M 831 3381
L 1572 2150
L 2322 3381
L 3000 3381
L 1894 1713
L 3034 0
L 2366 0
L 1584 1269
L 803 0
L 131 0
L 1269 1713
L 166 3381
L 831 3381
z
" transform="scale(0.015625)"/>
      </defs>
      <use xlink:href="#Roboto-Regular-54"/>
      <use xlink:href="#Roboto-Regular-6f" transform="translate(59.667969 0)"/>
      <use xlink:href="#Roboto-Regular-74" transform="translate(116.699219 0)"/>
      <use xlink:href="#Roboto-Regular-61" transform="translate(149.414062 0)"/>
      <use xlink:href="#Roboto-Regular-6c" transform="translate(203.808594 0)"/>
      <use xlink:href="#Roboto-Regular-20" transform="translate(228.125 0)"/>
      <use xlink:href="#Roboto-Regular-54" transform="translate(252.929688 0)"/>
      <use xlink:href="#Roboto-Regular-61" transform="translate(312.597656 0)"/>
      <use xlink:href="#Roboto-Regular-78" transform="translate(366.992188 0)"/>
     </g>
    </g>
   </g>
   <g id="patch_3">
    <path d="M 80.277891 291.394375
L 94.060828 291.394375
L 107.843766 291.394375
L 121.626703 291.394375
L 135.409641 291.394375
L 149.192578 291.394375
L 162.975516 291.394375
L 176.758453 291.394375
L 190.541391 291.394375
L 204.324328 291.394375
L 218.107266 291.394375
L 231.890203 291.394375
L 245.673141 291.394375
L 259.456078 291.394375
L 273.239016 291.394375
L 287.021953 291.394375
L 300.804891 291.394375
L 314.587828 291.394375
L 328.370766 291.394375
L 342.153703 291.394375
L 355.936641 291.394375
L 369.719578 291.394375
L 383.502516 291.394375
L 397.285453 291.394375
L 411.068391 291.394375
L 424.851328 291.394375
L 424.851328 202.519914
L 411.068391 205.348567
L 397.285453 208.17722
L 383.502516 211.005874
L 369.719578 213.834527
L 355.936641 216.66318
L 342.153703 219.491833
L 328.370766 222.320487
L 314.587828 225.14914
L 300.804891 227.977793
L 287.021953 230.806447
L 273.239016 233.6351
L 259.456078 236.463753
L 245.673141 239.292406
L 231.890203 242.12106
L 218.107266 244.949713
L 204.324328 247.778366
L 190.541391 250.60702
L 176.758453 253.435673
L 162.975516 256.282576
L 149.192578 259.111229
L 135.409641 261.939882
L 121.626703 264.768535
L 107.843766 267.597189
L 94.060828 270.425842
L 80.277891 273.254495
z
" clip-path="url(#p813a1cf3b3)" style="fill: #4c72b0; fill-opacity: 0.7; stroke: #4c72b0; stroke-width: 2; stroke-linejoin: miter"/>
   </g>
   <g id="patch_4">
    <path d="M 80.277891 273.254495
L 94.060828 270.425842
L 107.843766 267.597189
L 121.626703 264.768535
L 135.409641 261.939882
L 149.192578 259.111229
L 162.975516 256.282576
L 176.758453 253.435673
L 190.541391 250.60702
L 204.324328 247.778366
L 218.107266 244.949713
L 231.890203 242.12106
L 245.673141 239.292406
L 259.456078 236.463753
L 273.239016 233.6351
L 287.021953 230.806447
L 300.804891 227.977793
L 314.587828 225.14914
L 328.370766 222.320487
L 342.153703 219.491833
L 355.936641 216.66318
L 369.719578 213.834527
L 383.502516 211.005874
L 397.285453 208.17722
L 411.068391 205.348567
L 424.851328 202.519914
L 424.851328 35.136637
L 411.068391 42.527634
L 397.285453 49.918631
L 383.502516 57.309629
L 369.719578 64.700626
L 355.936641 72.091623
L 342.153703 79.482621
L 328.370766 86.873618
L 314.587828 94.264615
L 300.804891 101.655613
L 287.021953 109.04661
L 273.239016 116.437607
L 259.456078 123.828604
L 245.673141 131.219602
L 231.890203 138.610599
L 218.107266 146.001596
L 204.324328 153.392594
L 190.541391 160.783591
L 176.758453 168.174588
L 162.975516 175.583835
L 149.192578 182.974832
L 135.409641 190.365829
L 121.626703 197.756827
L 107.843766 205.147824
L 94.060828 212.538821
L 80.277891 219.929818
z
" clip-path="url(#p54ccf0671a)" style="fill: #dd8452; fill-opacity: 0.7; stroke: #dd8452; stroke-width: 2; stroke-linejoin: miter"/>
   </g>
   <g id="patch_5">
    <path d="M 63.049219 291.394375
L 63.049219 22.32375
" style="fill: none; stroke: #ffffff; stroke-width: 1.25; stroke-linejoin: miter; stroke-linecap: square"/>
   </g>
   <g id="patch_6">
    <path d="M 442.08 291.394375
L 442.08 22.32375
" style="fill: none; stroke: #ffffff; stroke-width: 1.25; stroke-linejoin: miter; stroke-linecap: square"/>
   </g>
   <g id="patch_7">
    <path d="M 63.049219 291.394375
L 442.08 291.394375
" style="fill: none; stroke: #ffffff; stroke-width: 1.25; stroke-linejoin: miter; stroke-linecap: square"/>
   </g>
   <g id="patch_8">
    <path d="M 63.049219 22.32375
L 442.08 22.32375
" style="fill: none; stroke: #ffffff; stroke-width: 1.25; stroke-linejoin: miter; stroke-linecap: square"/>
   </g>
   <g id="text_19">
    <!-- Impact of LTCG on Total Tax for California Resident -->
    <g transform="translate(114.988359 16.32375) scale(0.12 -0.12)">
     <defs>
      <path id="Roboto-Regular-49" d="M 1175 4550
L 1175 0
L 572 0
L 572 4550
L 1175 4550
z
" transform="scale(0.015625)"/>
      <path id="Roboto-Regular-63" d="M 1794 413
Q 2000 413 2175 497
Q 2350 581 2462 729
Q 2575 878 2591 1069
L 3141 1069
Q 3125 769 2939 511
Q 2753 253 2453 95
Q 2153 -63 1794 -63
Q 1413 -63 1130 71
Q 847 206 661 440
Q 475 675 383 979
Q 291 1284 291 1625
L 291 1756
Q 291 2097 383 2401
Q 475 2706 661 2940
Q 847 3175 1130 3309
Q 1413 3444 1794 3444
Q 2191 3444 2487 3283
Q 2784 3122 2954 2845
Q 3125 2569 3141 2219
L 2591 2219
Q 2575 2428 2473 2597
Q 2372 2766 2198 2867
Q 2025 2969 1794 2969
Q 1528 2969 1348 2864
Q 1169 2759 1064 2582
Q 959 2406 914 2192
Q 869 1978 869 1756
L 869 1625
Q 869 1403 912 1187
Q 956 972 1061 797
Q 1166 622 1345 517
Q 1525 413 1794 413
z
" transform="scale(0.015625)"/>
      <path id="Roboto-Regular-66" d="M 1303 0
L 725 0
L 725 3738
Q 725 4103 858 4354
Q 991 4606 1241 4736
Q 1491 4866 1834 4866
Q 1934 4866 2036 4853
Q 2138 4841 2234 4816
L 2203 4344
Q 2138 4359 2055 4365
Q 1972 4372 1891 4372
Q 1706 4372 1573 4298
Q 1441 4225 1372 4084
Q 1303 3944 1303 3738
L 1303 0
z
M 2022 3381
L 2022 2938
L 191 2938
L 191 3381
L 2022 3381
z
" transform="scale(0.015625)"/>
      <path id="Roboto-Regular-52" d="M 528 4550
L 2034 4550
Q 2547 4550 2901 4394
Q 3256 4238 3442 3933
Q 3628 3628 3628 3184
Q 3628 2872 3501 2614
Q 3375 2356 3139 2176
Q 2903 1997 2575 1909
L 2406 1844
L 991 1844
L 984 2334
L 2053 2334
Q 2378 2334 2593 2448
Q 2809 2563 2918 2756
Q 3028 2950 3028 3184
Q 3028 3447 2925 3644
Q 2822 3841 2601 3948
Q 2381 4056 2034 4056
L 1131 4056
L 1131 0
L 528 0
L 528 4550
z
M 3188 0
L 2081 2063
L 2709 2066
L 3831 38
L 3831 0
L 3188 0
z
" transform="scale(0.015625)"/>
      <path id="Roboto-Regular-64" d="M 2572 656
L 2572 4800
L 3153 4800
L 3153 0
L 2622 0
L 2572 656
z
M 297 1653
L 297 1719
Q 297 2106 392 2423
Q 488 2741 664 2969
Q 841 3197 1086 3320
Q 1331 3444 1634 3444
Q 1953 3444 2192 3333
Q 2431 3222 2598 3011
Q 2766 2800 2862 2503
Q 2959 2206 2997 1831
L 2997 1544
Q 2963 1172 2864 875
Q 2766 578 2598 368
Q 2431 159 2190 48
Q 1950 -63 1628 -63
Q 1331 -63 1086 65
Q 841 194 664 425
Q 488 656 392 970
Q 297 1284 297 1653
z
M 878 1719
L 878 1653
Q 878 1400 929 1178
Q 981 956 1090 787
Q 1200 619 1369 523
Q 1538 428 1772 428
Q 2059 428 2245 550
Q 2431 672 2543 872
Q 2656 1072 2719 1306
L 2719 2059
Q 2681 2231 2611 2392
Q 2541 2553 2430 2679
Q 2319 2806 2158 2881
Q 1997 2956 1778 2956
Q 1541 2956 1370 2857
Q 1200 2759 1090 2589
Q 981 2419 929 2195
Q 878 1972 878 1719
z
" transform="scale(0.015625)"/>
     </defs>
     <use xlink:href="#Roboto-Regular-49"/>
     <use xlink:href="#Roboto-Regular-6d" transform="translate(27.197266 0)"/>
     <use xlink:href="#Roboto-Regular-70" transform="translate(114.892578 0)"/>
     <use xlink:href="#Roboto-Regular-61" transform="translate(171.044922 0)"/>
     <use xlink:href="#Roboto-Regular-63" transform="translate(225.439453 0)"/>
     <use xlink:href="#Roboto-Regular-74" transform="translate(277.783203 0)"/>
     <use xlink:href="#Roboto-Regular-20" transform="translate(310.498047 0)"/>
     <use xlink:href="#Roboto-Regular-6f" transform="translate(335.302734 0)"/>
     <use xlink:href="#Roboto-Regular-66" transform="translate(392.333984 0)"/>
     <use xlink:href="#Roboto-Regular-20" transform="translate(427.099609 0)"/>
     <use xlink:href="#Roboto-Regular-4c" transform="translate(451.904297 0)"/>
     <use xlink:href="#Roboto-Regular-54" transform="translate(505.761719 0)"/>
     <use xlink:href="#Roboto-Regular-43" transform="translate(565.429688 0)"/>
     <use xlink:href="#Roboto-Regular-47" transform="translate(630.517578 0)"/>
     <use xlink:href="#Roboto-Regular-20" transform="translate(698.632812 0)"/>
     <use xlink:href="#Roboto-Regular-6f" transform="translate(723.4375 0)"/>
     <use xlink:href="#Roboto-Regular-6e" transform="translate(780.46875 0)"/>
     <use xlink:href="#Roboto-Regular-20" transform="translate(835.693359 0)"/>
     <use xlink:href="#Roboto-Regular-54" transform="translate(860.498047 0)"/>
     <use xlink:href="#Roboto-Regular-6f" transform="translate(920.166016 0)"/>
     <use xlink:href="#Roboto-Regular-74" transform="translate(977.197266 0)"/>
     <use xlink:href="#Roboto-Regular-61" transform="translate(1009.912109 0)"/>
     <use xlink:href="#Roboto-Regular-6c" transform="translate(1064.306641 0)"/>
     <use xlink:href="#Roboto-Regular-20" transform="translate(1088.623047 0)"/>
     <use xlink:href="#Roboto-Regular-54" transform="translate(1113.427734 0)"/>
     <use xlink:href="#Roboto-Regular-61" transform="translate(1173.095703 0)"/>
     <use xlink:href="#Roboto-Regular-78" transform="translate(1227.490234 0)"/>
     <use xlink:href="#Roboto-Regular-20" transform="translate(1277.099609 0)"/>
     <use xlink:href="#Roboto-Regular-66" transform="translate(1301.904297 0)"/>
     <use xlink:href="#Roboto-Regular-6f" transform="translate(1336.669922 0)"/>
     <use xlink:href="#Roboto-Regular-72" transform="translate(1393.701172 0)"/>
     <use xlink:href="#Roboto-Regular-20" transform="translate(1427.587891 0)"/>
     <use xlink:href="#Roboto-Regular-43" transform="translate(1452.392578 0)"/>
     <use xlink:href="#Roboto-Regular-61" transform="translate(1517.480469 0)"/>
     <use xlink:href="#Roboto-Regular-6c" transform="translate(1571.875 0)"/>
     <use xlink:href="#Roboto-Regular-69" transform="translate(1596.191406 0)"/>
     <use xlink:href="#Roboto-Regular-66" transform="translate(1620.507812 0)"/>
     <use xlink:href="#Roboto-Regular-6f" transform="translate(1655.273438 0)"/>
     <use xlink:href="#Roboto-Regular-72" transform="translate(1712.304688 0)"/>
     <use xlink:href="#Roboto-Regular-6e" transform="translate(1746.191406 0)"/>
     <use xlink:href="#Roboto-Regular-69" transform="translate(1801.416016 0)"/>
     <use xlink:href="#Roboto-Regular-61" transform="translate(1825.732422 0)"/>
     <use xlink:href="#Roboto-Regular-20" transform="translate(1880.126953 0)"/>
     <use xlink:href="#Roboto-Regular-52" transform="translate(1904.931641 0)"/>
     <use xlink:href="#Roboto-Regular-65" transform="translate(1966.552734 0)"/>
     <use xlink:href="#Roboto-Regular-73" transform="translate(2019.580078 0)"/>
     <use xlink:href="#Roboto-Regular-69" transform="translate(2071.191406 0)"/>
     <use xlink:href="#Roboto-Regular-64" transform="translate(2095.507812 0)"/>
     <use xlink:href="#Roboto-Regular-65" transform="translate(2151.904297 0)"/>
     <use xlink:href="#Roboto-Regular-6e" transform="translate(2204.931641 0)"/>
     <use xlink:href="#Roboto-Regular-74" transform="translate(2260.15625 0)"/>
    </g>
   </g>
  </g>
  <g id="legend_1">
   <g id="patch_9">
    <path d="M 459.284 170.165
L 530.820094 170.165
Q 533.020094 170.165 533.020094 167.965
L 533.020094 120.035
Q 533.020094 117.835 530.820094 117.835
L 459.284 117.835
Q 457.084 117.835 457.084 120.035
L 457.084 167.965
Q 457.084 170.165 459.284 170.165
z
" style="fill: #eaeaf2; opacity: 0.8; stroke: #cccccc; stroke-linejoin: miter"/>
   </g>
   <g id="text_20">
    <!-- Type -->
    <g transform="translate(482.081734 131.235) scale(0.12 -0.12)">
     <defs>
      <path id="Roboto-Regular-79" d="M 1391 350
L 2331 3381
L 2950 3381
L 1594 -522
Q 1547 -647 1470 -792
Q 1394 -938 1275 -1069
Q 1156 -1200 989 -1283
Q 822 -1366 591 -1366
Q 522 -1366 415 -1347
Q 309 -1328 266 -1316
L 263 -847
Q 288 -850 342 -854
Q 397 -859 419 -859
Q 616 -859 753 -807
Q 891 -756 986 -636
Q 1081 -516 1150 -306
L 1391 350
z
M 700 3381
L 1578 756
L 1728 147
L 1313 -66
L 69 3381
L 700 3381
z
" transform="scale(0.015625)"/>
     </defs>
     <use xlink:href="#Roboto-Regular-54"/>
     <use xlink:href="#Roboto-Regular-79" transform="translate(59.667969 0)"/>
     <use xlink:href="#Roboto-Regular-70" transform="translate(106.982422 0)"/>
     <use xlink:href="#Roboto-Regular-65" transform="translate(163.134766 0)"/>
    </g>
   </g>
   <g id="patch_10">
    <path d="M 461.484 147.54625
L 483.484 147.54625
L 483.484 139.84625
L 461.484 139.84625
z
" style="fill: #4c72b0; fill-opacity: 0.7; stroke: #4c72b0; stroke-linejoin: miter"/>
   </g>
   <g id="text_21">
    <!-- State -->
    <g transform="translate(492.284 147.54625) scale(0.11 -0.11)">
     <defs>
      <path id="Roboto-Regular-53" d="M 2953 1150
Q 2953 1309 2904 1432
Q 2856 1556 2736 1656
Q 2616 1756 2405 1847
Q 2194 1938 1872 2031
Q 1534 2131 1262 2254
Q 991 2378 797 2537
Q 603 2697 500 2903
Q 397 3109 397 3375
Q 397 3641 506 3866
Q 616 4091 820 4258
Q 1025 4425 1309 4519
Q 1594 4613 1944 4613
Q 2456 4613 2814 4417
Q 3172 4222 3359 3908
Q 3547 3594 3547 3238
L 2947 3238
Q 2947 3494 2837 3692
Q 2728 3891 2506 4005
Q 2284 4119 1944 4119
Q 1622 4119 1412 4022
Q 1203 3925 1101 3759
Q 1000 3594 1000 3381
Q 1000 3238 1061 3120
Q 1122 3003 1251 2903
Q 1381 2803 1582 2718
Q 1784 2634 2066 2556
Q 2453 2447 2734 2312
Q 3016 2178 3198 2011
Q 3381 1844 3470 1633
Q 3559 1422 3559 1156
Q 3559 878 3446 653
Q 3334 428 3125 268
Q 2916 109 2623 23
Q 2331 -63 1972 -63
Q 1656 -63 1351 25
Q 1047 113 798 288
Q 550 463 401 720
Q 253 978 253 1319
L 853 1319
Q 853 1084 943 917
Q 1034 750 1192 640
Q 1350 531 1551 479
Q 1753 428 1972 428
Q 2288 428 2506 515
Q 2725 603 2839 765
Q 2953 928 2953 1150
z
" transform="scale(0.015625)"/>
     </defs>
     <use xlink:href="#Roboto-Regular-53"/>
     <use xlink:href="#Roboto-Regular-74" transform="translate(59.375 0)"/>
     <use xlink:href="#Roboto-Regular-61" transform="translate(92.089844 0)"/>
     <use xlink:href="#Roboto-Regular-74" transform="translate(146.484375 0)"/>
     <use xlink:href="#Roboto-Regular-65" transform="translate(179.199219 0)"/>
    </g>
   </g>
   <g id="patch_11">
    <path d="M 461.484 163.530625
L 483.484 163.530625
L 483.484 155.830625
L 461.484 155.830625
z
" style="fill: #dd8452; fill-opacity: 0.7; stroke: #dd8452; stroke-linejoin: miter"/>
   </g>
   <g id="text_22">
    <!-- Federal -->
    <g transform="translate(492.284 163.530625) scale(0.11 -0.11)">
     <defs>
      <path id="Roboto-Regular-46" d="M 1131 4550
L 1131 0
L 528 0
L 528 4550
L 1131 4550
z
M 3038 2503
L 3038 2009
L 1000 2009
L 1000 2503
L 3038 2503
z
M 3347 4550
L 3347 4056
L 1000 4056
L 1000 4550
L 3347 4550
z
" transform="scale(0.015625)"/>
     </defs>
     <use xlink:href="#Roboto-Regular-46"/>
     <use xlink:href="#Roboto-Regular-65" transform="translate(55.273438 0)"/>
     <use xlink:href="#Roboto-Regular-64" transform="translate(108.300781 0)"/>
     <use xlink:href="#Roboto-Regular-65" transform="translate(164.697266 0)"/>
     <use xlink:href="#Roboto-Regular-72" transform="translate(217.724609 0)"/>
     <use xlink:href="#Roboto-Regular-61" transform="translate(251.611328 0)"/>
     <use xlink:href="#Roboto-Regular-6c" transform="translate(306.005859 0)"/>
    </g>
   </g>
  </g>
 </g>
 <defs>
  <clipPath id="p36f4eec594">
   <rect x="63.049219" y="22.32375" width="379.030781" height="269.070625"/>
  </clipPath>
  <clipPath id="p813a1cf3b3">
   <path d="M 80.277891 291.394375
L 94.060828 291.394375
L 107.843766 291.394375
L 121.626703 291.394375
L 135.409641 291.394375
L 149.192578 291.394375
L 162.975516 291.394375
L 176.758453 291.394375
L 190.541391 291.394375
L 204.324328 291.394375
L 218.107266 291.394375
L 231.890203 291.394375
L 245.673141 291.394375
L 259.456078 291.394375
L 273.239016 291.394375
L 287.021953 291.394375
L 300.804891 291.394375
L 314.587828 291.394375
L 328.370766 291.394375
L 342.153703 291.394375
L 355.936641 291.394375
L 369.719578 291.394375
L 383.502516 291.394375
L 397.285453 291.394375
L 411.068391 291.394375
L 424.851328 291.394375
L 424.851328 202.519914
L 411.068391 205.348567
L 397.285453 208.17722
L 383.502516 211.005874
L 369.719578 213.834527
L 355.936641 216.66318
L 342.153703 219.491833
L 328.370766 222.320487
L 314.587828 225.14914
L 300.804891 227.977793
L 287.021953 230.806447
L 273.239016 233.6351
L 259.456078 236.463753
L 245.673141 239.292406
L 231.890203 242.12106
L 218.107266 244.949713
L 204.324328 247.778366
L 190.541391 250.60702
L 176.758453 253.435673
L 162.975516 256.282576
L 149.192578 259.111229
L 135.409641 261.939882
L 121.626703 264.768535
L 107.843766 267.597189
L 94.060828 270.425842
L 80.277891 273.254495
z
"/>
  </clipPath>
  <clipPath id="p54ccf0671a">
   <path d="M 80.277891 273.254495
L 94.060828 270.425842
L 107.843766 267.597189
L 121.626703 264.768535
L 135.409641 261.939882
L 149.192578 259.111229
L 162.975516 256.282576
L 176.758453 253.435673
L 190.541391 250.60702
L 204.324328 247.778366
L 218.107266 244.949713
L 231.890203 242.12106
L 245.673141 239.292406
L 259.456078 236.463753
L 273.239016 233.6351
L 287.021953 230.806447
L 300.804891 227.977793
L 314.587828 225.14914
L 328.370766 222.320487
L 342.153703 219.491833
L 355.936641 216.66318
L 369.719578 213.834527
L 383.502516 211.005874
L 397.285453 208.17722
L 411.068391 205.348567
L 424.851328 202.519914
L 424.851328 35.136637
L 411.068391 42.527634
L 397.285453 49.918631
L 383.502516 57.309629
L 369.719578 64.700626
L 355.936641 72.091623
L 342.153703 79.482621
L 328.370766 86.873618
L 314.587828 94.264615
L 300.804891 101.655613
L 287.021953 109.04661
L 273.239016 116.437607
L 259.456078 123.828604
L 245.673141 131.219602
L 231.890203 138.610599
L 218.107266 146.001596
L 204.324328 153.392594
L 190.541391 160.783591
L 176.758453 168.174588
L 162.975516 175.583835
L 149.192578 182.974832
L 135.409641 190.365829
L 121.626703 197.756827
L 107.843766 205.147824
L 94.060828 212.538821
L 80.277891 219.929818
z
"/>
  </clipPath>
 </defs>
</svg>
