<?xml version="1.0" encoding="utf-8" standalone="no"?>
<!DOCTYPE svg PUBLIC "-//W3C//DTD SVG 1.1//EN"
  "http://www.w3.org/Graphics/SVG/1.1/DTD/svg11.dtd">
<svg xmlns:xlink="http://www.w3.org/1999/xlink" width="563.094469pt" height="334.08pt" viewBox="0 0 563.094469 334.08" xmlns="http://www.w3.org/2000/svg" version="1.1">
 <metadata>
  <rdf:RDF xmlns:dc="http://purl.org/dc/elements/1.1/" xmlns:cc="http://creativecommons.org/ns#" xmlns:rdf="http://www.w3.org/1999/02/22-rdf-syntax-ns#">
   <cc:Work>
    <dc:type rdf:resource="http://purl.org/dc/dcmitype/StillImage"/>
    <dc:date>2025-01-04T13:59:02.169216</dc:date>
    <dc:format>image/svg+xml</dc:format>
    <dc:creator>
     <cc:Agent>
      <dc:title>Matplotlib v3.10.0, https://matplotlib.org/</dc:title>
     </cc:Agent>
    </dc:creator>
   </cc:Work>
  </rdf:RDF>
 </metadata>
 <defs>
  <style type="text/css">*{stroke-linejoin: round; stroke-linecap: butt}</style>
 </defs>
 <g id="figure_1">
  <g id="patch_1">
   <path d="M 0 334.08
L 563.094469 334.08
L 563.094469 0
L 0 0
z
" style="fill: #ffffff"/>
  </g>
  <g id="axes_1">
   <g id="patch_2">
    <path d="M 63.023438 291.458125
L 439.781165 291.458125
L 439.781165 35.4375
L 63.023438 35.4375
z
" style="fill: #eaeaf2"/>
   </g>
   <g id="matplotlib.axis_1">
    <g id="xtick_1">
     <g id="line2d_1">
      <path d="M 80.148789 291.458125
L 80.148789 35.4375
" clip-path="url(#p377e72c3a1)" style="fill: none; stroke: #ffffff; stroke-linecap: round"/>
     </g>
     <g id="text_1">
      <!-- 0 -->
      <g style="fill: #262626" transform="translate(77.060195 309.208125) scale(0.11 -0.11)">
       <defs>
        <path id="Roboto-Regular-30" d="M 3231 1941
Q 3231 925 2884 431
Q 2538 -63 1800 -63
Q 1072 -63 722 420
Q 372 903 359 1863
L 359 2634
Q 359 3638 706 4125
Q 1053 4613 1794 4613
Q 2528 4613 2875 4142
Q 3222 3672 3231 2691
L 3231 1941
z
M 2653 2731
Q 2653 3466 2447 3802
Q 2241 4138 1794 4138
Q 1350 4138 1147 3803
Q 944 3469 938 2775
L 938 1850
Q 938 1113 1152 761
Q 1366 409 1800 409
Q 2228 409 2436 740
Q 2644 1072 2653 1784
L 2653 2731
z
" transform="scale(0.015625)"/>
       </defs>
       <use xlink:href="#Roboto-Regular-30"/>
      </g>
     </g>
    </g>
    <g id="xtick_2">
     <g id="line2d_2">
      <path d="M 148.650194 291.458125
L 148.650194 35.4375
" clip-path="url(#p377e72c3a1)" style="fill: none; stroke: #ffffff; stroke-linecap: round"/>
     </g>
     <g id="text_2">
      <!-- 20000 -->
      <g style="fill: #262626" transform="translate(133.207225 309.208125) scale(0.11 -0.11)">
       <defs>
        <path id="Roboto-Regular-32" d="M 3359 0
L 378 0
L 378 416
L 1953 2166
Q 2303 2563 2436 2811
Q 2569 3059 2569 3325
Q 2569 3681 2353 3909
Q 2138 4138 1778 4138
Q 1347 4138 1108 3892
Q 869 3647 869 3209
L 291 3209
Q 291 3838 695 4225
Q 1100 4613 1778 4613
Q 2413 4613 2781 4280
Q 3150 3947 3150 3394
Q 3150 2722 2294 1794
L 1075 472
L 3359 472
L 3359 0
z
" transform="scale(0.015625)"/>
       </defs>
       <use xlink:href="#Roboto-Regular-32"/>
       <use xlink:href="#Roboto-Regular-30" transform="translate(56.152344 0)"/>
       <use xlink:href="#Roboto-Regular-30" transform="translate(112.304688 0)"/>
       <use xlink:href="#Roboto-Regular-30" transform="translate(168.457031 0)"/>
       <use xlink:href="#Roboto-Regular-30" transform="translate(224.609375 0)"/>
      </g>
     </g>
    </g>
    <g id="xtick_3">
     <g id="line2d_3">
      <path d="M 217.151599 291.458125
L 217.151599 35.4375
" clip-path="url(#p377e72c3a1)" style="fill: none; stroke: #ffffff; stroke-linecap: round"/>
     </g>
     <g id="text_3">
      <!-- 40000 -->
      <g style="fill: #262626" transform="translate(201.70863 309.208125) scale(0.11 -0.11)">
       <defs>
        <path id="Roboto-Regular-34" d="M 2819 1528
L 3450 1528
L 3450 1056
L 2819 1056
L 2819 0
L 2238 0
L 2238 1056
L 166 1056
L 166 1397
L 2203 4550
L 2819 4550
L 2819 1528
z
M 822 1528
L 2238 1528
L 2238 3759
L 2169 3634
L 822 1528
z
" transform="scale(0.015625)"/>
       </defs>
       <use xlink:href="#Roboto-Regular-34"/>
       <use xlink:href="#Roboto-Regular-30" transform="translate(56.152344 0)"/>
       <use xlink:href="#Roboto-Regular-30" transform="translate(112.304688 0)"/>
       <use xlink:href="#Roboto-Regular-30" transform="translate(168.457031 0)"/>
       <use xlink:href="#Roboto-Regular-30" transform="translate(224.609375 0)"/>
      </g>
     </g>
    </g>
    <g id="xtick_4">
     <g id="line2d_4">
      <path d="M 285.653004 291.458125
L 285.653004 35.4375
" clip-path="url(#p377e72c3a1)" style="fill: none; stroke: #ffffff; stroke-linecap: round"/>
     </g>
     <g id="text_4">
      <!-- 60000 -->
      <g style="fill: #262626" transform="translate(270.210035 309.208125) scale(0.11 -0.11)">
       <defs>
        <path id="Roboto-Regular-36" d="M 2647 4553
L 2647 4063
L 2541 4063
Q 1866 4050 1466 3662
Q 1066 3275 1003 2572
Q 1363 2984 1984 2984
Q 2578 2984 2933 2565
Q 3288 2147 3288 1484
Q 3288 781 2905 359
Q 2522 -63 1878 -63
Q 1225 -63 819 439
Q 413 941 413 1731
L 413 1953
Q 413 3209 948 3873
Q 1484 4538 2544 4553
L 2647 4553
z
M 1888 2503
Q 1591 2503 1341 2325
Q 1091 2147 994 1878
L 994 1666
Q 994 1103 1247 759
Q 1500 416 1878 416
Q 2269 416 2492 703
Q 2716 991 2716 1456
Q 2716 1925 2489 2214
Q 2263 2503 1888 2503
z
" transform="scale(0.015625)"/>
       </defs>
       <use xlink:href="#Roboto-Regular-36"/>
       <use xlink:href="#Roboto-Regular-30" transform="translate(56.152344 0)"/>
       <use xlink:href="#Roboto-Regular-30" transform="translate(112.304688 0)"/>
       <use xlink:href="#Roboto-Regular-30" transform="translate(168.457031 0)"/>
       <use xlink:href="#Roboto-Regular-30" transform="translate(224.609375 0)"/>
      </g>
     </g>
    </g>
    <g id="xtick_5">
     <g id="line2d_5">
      <path d="M 354.154409 291.458125
L 354.154409 35.4375
" clip-path="url(#p377e72c3a1)" style="fill: none; stroke: #ffffff; stroke-linecap: round"/>
     </g>
     <g id="text_5">
      <!-- 80000 -->
      <g style="fill: #262626" transform="translate(338.71144 309.208125) scale(0.11 -0.11)">
       <defs>
        <path id="Roboto-Regular-38" d="M 3138 3363
Q 3138 3022 2958 2756
Q 2778 2491 2472 2341
Q 2828 2188 3036 1894
Q 3244 1600 3244 1228
Q 3244 638 2845 287
Q 2447 -63 1797 -63
Q 1141 -63 745 289
Q 350 641 350 1228
Q 350 1597 551 1894
Q 753 2191 1109 2344
Q 806 2494 631 2759
Q 456 3025 456 3363
Q 456 3938 825 4275
Q 1194 4613 1797 4613
Q 2397 4613 2767 4275
Q 3138 3938 3138 3363
z
M 2666 1241
Q 2666 1622 2423 1862
Q 2181 2103 1790 2103
Q 1400 2103 1164 1865
Q 928 1628 928 1240
Q 928 853 1158 631
Q 1388 409 1797 409
Q 2203 409 2434 632
Q 2666 856 2666 1241
z
M 1797 4138
Q 1456 4138 1245 3927
Q 1034 3716 1034 3353
Q 1034 3006 1242 2792
Q 1450 2578 1797 2578
Q 2144 2578 2351 2792
Q 2559 3006 2559 3353
Q 2559 3700 2343 3919
Q 2128 4138 1797 4138
z
" transform="scale(0.015625)"/>
       </defs>
       <use xlink:href="#Roboto-Regular-38"/>
       <use xlink:href="#Roboto-Regular-30" transform="translate(56.152344 0)"/>
       <use xlink:href="#Roboto-Regular-30" transform="translate(112.304688 0)"/>
       <use xlink:href="#Roboto-Regular-30" transform="translate(168.457031 0)"/>
       <use xlink:href="#Roboto-Regular-30" transform="translate(224.609375 0)"/>
      </g>
     </g>
    </g>
    <g id="xtick_6">
     <g id="line2d_6">
      <path d="M 422.655814 291.458125
L 422.655814 35.4375
" clip-path="url(#p377e72c3a1)" style="fill: none; stroke: #ffffff; stroke-linecap: round"/>
     </g>
     <g id="text_6">
      <!-- 100000 -->
      <g style="fill: #262626" transform="translate(404.124251 309.208125) scale(0.11 -0.11)">
       <defs>
        <path id="Roboto-Regular-31" d="M 2278 0
L 1697 0
L 1697 3853
L 531 3425
L 531 3950
L 2188 4572
L 2278 4572
L 2278 0
z
" transform="scale(0.015625)"/>
       </defs>
       <use xlink:href="#Roboto-Regular-31"/>
       <use xlink:href="#Roboto-Regular-30" transform="translate(56.152344 0)"/>
       <use xlink:href="#Roboto-Regular-30" transform="translate(112.304688 0)"/>
       <use xlink:href="#Roboto-Regular-30" transform="translate(168.457031 0)"/>
       <use xlink:href="#Roboto-Regular-30" transform="translate(224.609375 0)"/>
       <use xlink:href="#Roboto-Regular-30" transform="translate(280.761719 0)"/>
      </g>
     </g>
    </g>
    <g id="text_7">
     <!-- Incentive Stock Option Gains -->
     <g style="fill: #262626" transform="translate(174.899489 324.4425) scale(0.12 -0.12)">
      <defs>
       <path id="Roboto-Regular-49" d="M 1172 0
L 572 0
L 572 4550
L 1172 4550
L 1172 0
z
" transform="scale(0.015625)"/>
       <path id="Roboto-Regular-6e" d="M 984 3381
L 1003 2956
Q 1391 3444 2016 3444
Q 3088 3444 3097 2234
L 3097 0
L 2519 0
L 2519 2238
Q 2516 2603 2352 2778
Q 2188 2953 1841 2953
Q 1559 2953 1346 2803
Q 1134 2653 1016 2409
L 1016 0
L 438 0
L 438 3381
L 984 3381
z
" transform="scale(0.015625)"/>
       <path id="Roboto-Regular-63" d="M 1794 409
Q 2103 409 2334 596
Q 2566 784 2591 1066
L 3138 1066
Q 3122 775 2937 512
Q 2753 250 2445 93
Q 2138 -63 1794 -63
Q 1103 -63 695 398
Q 288 859 288 1659
L 288 1756
Q 288 2250 469 2634
Q 650 3019 989 3231
Q 1328 3444 1791 3444
Q 2359 3444 2736 3103
Q 3113 2763 3138 2219
L 2591 2219
Q 2566 2547 2342 2758
Q 2119 2969 1791 2969
Q 1350 2969 1108 2651
Q 866 2334 866 1734
L 866 1625
Q 866 1041 1106 725
Q 1347 409 1794 409
z
" transform="scale(0.015625)"/>
       <path id="Roboto-Regular-65" d="M 1841 -63
Q 1153 -63 722 389
Q 291 841 291 1597
L 291 1703
Q 291 2206 483 2601
Q 675 2997 1020 3220
Q 1366 3444 1769 3444
Q 2428 3444 2793 3009
Q 3159 2575 3159 1766
L 3159 1525
L 869 1525
Q 881 1025 1161 717
Q 1441 409 1872 409
Q 2178 409 2390 534
Q 2603 659 2763 866
L 3116 591
Q 2691 -63 1841 -63
z
M 1769 2969
Q 1419 2969 1181 2714
Q 944 2459 888 2000
L 2581 2000
L 2581 2044
Q 2556 2484 2343 2726
Q 2131 2969 1769 2969
z
" transform="scale(0.015625)"/>
       <path id="Roboto-Regular-74" d="M 1222 4200
L 1222 3381
L 1853 3381
L 1853 2934
L 1222 2934
L 1222 838
Q 1222 634 1306 532
Q 1391 431 1594 431
Q 1694 431 1869 469
L 1869 0
Q 1641 -63 1425 -63
Q 1038 -63 841 171
Q 644 406 644 838
L 644 2934
L 28 2934
L 28 3381
L 644 3381
L 644 4200
L 1222 4200
z
" transform="scale(0.015625)"/>
       <path id="Roboto-Regular-69" d="M 1066 0
L 488 0
L 488 3381
L 1066 3381
L 1066 0
z
M 441 4278
Q 441 4419 527 4516
Q 613 4613 781 4613
Q 950 4613 1037 4516
Q 1125 4419 1125 4278
Q 1125 4138 1037 4044
Q 950 3950 781 3950
Q 613 3950 527 4044
Q 441 4138 441 4278
z
" transform="scale(0.015625)"/>
       <path id="Roboto-Regular-76" d="M 1553 784
L 2391 3381
L 2981 3381
L 1769 0
L 1328 0
L 103 3381
L 694 3381
L 1553 784
z
" transform="scale(0.015625)"/>
       <path id="Roboto-Regular-20" transform="scale(0.015625)"/>
       <path id="Roboto-Regular-53" d="M 1869 2028
Q 1097 2250 745 2573
Q 394 2897 394 3372
Q 394 3909 823 4261
Q 1253 4613 1941 4613
Q 2409 4613 2776 4431
Q 3144 4250 3345 3931
Q 3547 3613 3547 3234
L 2944 3234
Q 2944 3647 2681 3883
Q 2419 4119 1941 4119
Q 1497 4119 1248 3923
Q 1000 3728 1000 3381
Q 1000 3103 1236 2911
Q 1472 2719 2039 2559
Q 2606 2400 2926 2208
Q 3247 2016 3401 1759
Q 3556 1503 3556 1156
Q 3556 603 3125 270
Q 2694 -63 1972 -63
Q 1503 -63 1097 117
Q 691 297 470 609
Q 250 922 250 1319
L 853 1319
Q 853 906 1158 667
Q 1463 428 1972 428
Q 2447 428 2700 622
Q 2953 816 2953 1150
Q 2953 1484 2718 1667
Q 2484 1850 1869 2028
z
" transform="scale(0.015625)"/>
       <path id="Roboto-Regular-6f" d="M 284 1722
Q 284 2219 479 2616
Q 675 3013 1023 3228
Q 1372 3444 1819 3444
Q 2509 3444 2936 2966
Q 3363 2488 3363 1694
L 3363 1653
Q 3363 1159 3173 767
Q 2984 375 2632 156
Q 2281 -63 1825 -63
Q 1138 -63 711 415
Q 284 894 284 1681
L 284 1722
z
M 866 1653
Q 866 1091 1127 750
Q 1388 409 1825 409
Q 2266 409 2525 754
Q 2784 1100 2784 1722
Q 2784 2278 2520 2623
Q 2256 2969 1819 2969
Q 1391 2969 1128 2628
Q 866 2288 866 1653
z
" transform="scale(0.015625)"/>
       <path id="Roboto-Regular-6b" d="M 1381 1566
L 1019 1188
L 1019 0
L 441 0
L 441 4800
L 1019 4800
L 1019 1897
L 1328 2269
L 2381 3381
L 3084 3381
L 1769 1969
L 3238 0
L 2559 0
L 1381 1566
z
" transform="scale(0.015625)"/>
       <path id="Roboto-Regular-4f" d="M 4028 2128
Q 4028 1459 3803 961
Q 3578 463 3165 200
Q 2753 -63 2203 -63
Q 1666 -63 1250 201
Q 834 466 604 955
Q 375 1444 369 2088
L 369 2416
Q 369 3072 597 3575
Q 825 4078 1242 4345
Q 1659 4613 2197 4613
Q 2744 4613 3161 4348
Q 3578 4084 3803 3582
Q 4028 3081 4028 2416
L 4028 2128
z
M 3431 2422
Q 3431 3231 3106 3664
Q 2781 4097 2197 4097
Q 1628 4097 1301 3664
Q 975 3231 966 2463
L 966 2128
Q 966 1344 1295 895
Q 1625 447 2203 447
Q 2784 447 3103 870
Q 3422 1294 3431 2084
L 3431 2422
z
" transform="scale(0.015625)"/>
       <path id="Roboto-Regular-70" d="M 3294 1653
Q 3294 881 2941 409
Q 2588 -63 1984 -63
Q 1369 -63 1016 328
L 1016 -1300
L 438 -1300
L 438 3381
L 966 3381
L 994 3006
Q 1347 3444 1975 3444
Q 2584 3444 2939 2984
Q 3294 2525 3294 1706
L 3294 1653
z
M 2716 1719
Q 2716 2291 2472 2622
Q 2228 2953 1803 2953
Q 1278 2953 1016 2488
L 1016 872
Q 1275 409 1809 409
Q 2225 409 2470 739
Q 2716 1069 2716 1719
z
" transform="scale(0.015625)"/>
       <path id="Roboto-Regular-47" d="M 3888 597
Q 3656 266 3242 101
Q 2828 -63 2278 -63
Q 1722 -63 1290 198
Q 859 459 623 940
Q 388 1422 381 2056
L 381 2453
Q 381 3481 861 4047
Q 1341 4613 2209 4613
Q 2922 4613 3356 4248
Q 3791 3884 3888 3216
L 3288 3216
Q 3119 4119 2213 4119
Q 1609 4119 1298 3695
Q 988 3272 984 2469
L 984 2097
Q 984 1331 1334 879
Q 1684 428 2281 428
Q 2619 428 2872 503
Q 3125 578 3291 756
L 3291 1778
L 2238 1778
L 2238 2266
L 3888 2266
L 3888 597
z
" transform="scale(0.015625)"/>
       <path id="Roboto-Regular-61" d="M 2525 0
Q 2475 100 2444 356
Q 2041 -63 1481 -63
Q 981 -63 661 220
Q 341 503 341 938
Q 341 1466 742 1758
Q 1144 2050 1872 2050
L 2434 2050
L 2434 2316
Q 2434 2619 2253 2798
Q 2072 2978 1719 2978
Q 1409 2978 1200 2822
Q 991 2666 991 2444
L 409 2444
Q 409 2697 589 2933
Q 769 3169 1076 3306
Q 1384 3444 1753 3444
Q 2338 3444 2669 3151
Q 3000 2859 3013 2347
L 3013 791
Q 3013 325 3131 50
L 3131 0
L 2525 0
z
M 1566 441
Q 1838 441 2081 581
Q 2325 722 2434 947
L 2434 1641
L 1981 1641
Q 919 1641 919 1019
Q 919 747 1100 594
Q 1281 441 1566 441
z
" transform="scale(0.015625)"/>
       <path id="Roboto-Regular-73" d="M 2406 897
Q 2406 1131 2229 1261
Q 2053 1391 1614 1484
Q 1175 1578 917 1709
Q 659 1841 536 2022
Q 413 2203 413 2453
Q 413 2869 764 3156
Q 1116 3444 1663 3444
Q 2238 3444 2595 3147
Q 2953 2850 2953 2388
L 2372 2388
Q 2372 2625 2170 2797
Q 1969 2969 1663 2969
Q 1347 2969 1169 2831
Q 991 2694 991 2472
Q 991 2263 1156 2156
Q 1322 2050 1755 1953
Q 2188 1856 2456 1722
Q 2725 1588 2854 1398
Q 2984 1209 2984 938
Q 2984 484 2621 210
Q 2259 -63 1681 -63
Q 1275 -63 962 81
Q 650 225 473 483
Q 297 741 297 1041
L 875 1041
Q 891 750 1108 579
Q 1325 409 1681 409
Q 2009 409 2207 542
Q 2406 675 2406 897
z
" transform="scale(0.015625)"/>
      </defs>
      <use xlink:href="#Roboto-Regular-49"/>
      <use xlink:href="#Roboto-Regular-6e" transform="translate(27.197266 0)"/>
      <use xlink:href="#Roboto-Regular-63" transform="translate(82.373047 0)"/>
      <use xlink:href="#Roboto-Regular-65" transform="translate(134.716797 0)"/>
      <use xlink:href="#Roboto-Regular-6e" transform="translate(187.695312 0)"/>
      <use xlink:href="#Roboto-Regular-74" transform="translate(242.871094 0)"/>
      <use xlink:href="#Roboto-Regular-69" transform="translate(275.537109 0)"/>
      <use xlink:href="#Roboto-Regular-76" transform="translate(299.804688 0)"/>
      <use xlink:href="#Roboto-Regular-65" transform="translate(348.242188 0)"/>
      <use xlink:href="#Roboto-Regular-20" transform="translate(401.220703 0)"/>
      <use xlink:href="#Roboto-Regular-53" transform="translate(425.976562 0)"/>
      <use xlink:href="#Roboto-Regular-74" transform="translate(485.302734 0)"/>
      <use xlink:href="#Roboto-Regular-6f" transform="translate(517.96875 0)"/>
      <use xlink:href="#Roboto-Regular-63" transform="translate(575 0)"/>
      <use xlink:href="#Roboto-Regular-6b" transform="translate(627.34375 0)"/>
      <use xlink:href="#Roboto-Regular-20" transform="translate(678.027344 0)"/>
      <use xlink:href="#Roboto-Regular-4f" transform="translate(702.783203 0)"/>
      <use xlink:href="#Roboto-Regular-70" transform="translate(771.533203 0)"/>
      <use xlink:href="#Roboto-Regular-74" transform="translate(827.636719 0)"/>
      <use xlink:href="#Roboto-Regular-69" transform="translate(860.302734 0)"/>
      <use xlink:href="#Roboto-Regular-6f" transform="translate(884.570312 0)"/>
      <use xlink:href="#Roboto-Regular-6e" transform="translate(941.601562 0)"/>
      <use xlink:href="#Roboto-Regular-20" transform="translate(996.777344 0)"/>
      <use xlink:href="#Roboto-Regular-47" transform="translate(1021.533203 0)"/>
      <use xlink:href="#Roboto-Regular-61" transform="translate(1089.648438 0)"/>
      <use xlink:href="#Roboto-Regular-69" transform="translate(1144.042969 0)"/>
      <use xlink:href="#Roboto-Regular-6e" transform="translate(1168.310547 0)"/>
      <use xlink:href="#Roboto-Regular-73" transform="translate(1223.486328 0)"/>
     </g>
    </g>
   </g>
   <g id="matplotlib.axis_2">
    <g id="ytick_1">
     <g id="line2d_7">
      <path d="M 63.023438 291.458125
L 439.781165 291.458125
" clip-path="url(#p377e72c3a1)" style="fill: none; stroke: #ffffff; stroke-linecap: round"/>
     </g>
     <g id="text_8">
      <!-- 0 -->
      <g style="fill: #262626" transform="translate(47.34625 295.583125) scale(0.11 -0.11)">
       <use xlink:href="#Roboto-Regular-30"/>
      </g>
     </g>
    </g>
    <g id="ytick_2">
     <g id="line2d_8">
      <path d="M 63.023438 240.08024
L 439.781165 240.08024
" clip-path="url(#p377e72c3a1)" style="fill: none; stroke: #ffffff; stroke-linecap: round"/>
     </g>
     <g id="text_9">
      <!-- 10000 -->
      <g style="fill: #262626" transform="translate(22.6375 244.20524) scale(0.11 -0.11)">
       <use xlink:href="#Roboto-Regular-31"/>
       <use xlink:href="#Roboto-Regular-30" transform="translate(56.152344 0)"/>
       <use xlink:href="#Roboto-Regular-30" transform="translate(112.304688 0)"/>
       <use xlink:href="#Roboto-Regular-30" transform="translate(168.457031 0)"/>
       <use xlink:href="#Roboto-Regular-30" transform="translate(224.609375 0)"/>
      </g>
     </g>
    </g>
    <g id="ytick_3">
     <g id="line2d_9">
      <path d="M 63.023438 188.702355
L 439.781165 188.702355
" clip-path="url(#p377e72c3a1)" style="fill: none; stroke: #ffffff; stroke-linecap: round"/>
     </g>
     <g id="text_10">
      <!-- 20000 -->
      <g style="fill: #262626" transform="translate(22.6375 192.827355) scale(0.11 -0.11)">
       <use xlink:href="#Roboto-Regular-32"/>
       <use xlink:href="#Roboto-Regular-30" transform="translate(56.152344 0)"/>
       <use xlink:href="#Roboto-Regular-30" transform="translate(112.304688 0)"/>
       <use xlink:href="#Roboto-Regular-30" transform="translate(168.457031 0)"/>
       <use xlink:href="#Roboto-Regular-30" transform="translate(224.609375 0)"/>
      </g>
     </g>
    </g>
    <g id="ytick_4">
     <g id="line2d_10">
      <path d="M 63.023438 137.32447
L 439.781165 137.32447
" clip-path="url(#p377e72c3a1)" style="fill: none; stroke: #ffffff; stroke-linecap: round"/>
     </g>
     <g id="text_11">
      <!-- 30000 -->
      <g style="fill: #262626" transform="translate(22.6375 141.44947) scale(0.11 -0.11)">
       <defs>
        <path id="Roboto-Regular-33" d="M 1219 2556
L 1653 2556
Q 2063 2563 2297 2772
Q 2531 2981 2531 3338
Q 2531 4138 1734 4138
Q 1359 4138 1136 3923
Q 913 3709 913 3356
L 334 3356
Q 334 3897 729 4255
Q 1125 4613 1734 4613
Q 2378 4613 2743 4272
Q 3109 3931 3109 3325
Q 3109 3028 2917 2750
Q 2725 2472 2394 2334
Q 2769 2216 2973 1941
Q 3178 1666 3178 1269
Q 3178 656 2778 296
Q 2378 -63 1737 -63
Q 1097 -63 695 284
Q 294 631 294 1200
L 875 1200
Q 875 841 1109 625
Q 1344 409 1738 409
Q 2156 409 2378 628
Q 2600 847 2600 1256
Q 2600 1653 2356 1865
Q 2113 2078 1653 2084
L 1219 2084
L 1219 2556
z
" transform="scale(0.015625)"/>
       </defs>
       <use xlink:href="#Roboto-Regular-33"/>
       <use xlink:href="#Roboto-Regular-30" transform="translate(56.152344 0)"/>
       <use xlink:href="#Roboto-Regular-30" transform="translate(112.304688 0)"/>
       <use xlink:href="#Roboto-Regular-30" transform="translate(168.457031 0)"/>
       <use xlink:href="#Roboto-Regular-30" transform="translate(224.609375 0)"/>
      </g>
     </g>
    </g>
    <g id="ytick_5">
     <g id="line2d_11">
      <path d="M 63.023438 85.946585
L 439.781165 85.946585
" clip-path="url(#p377e72c3a1)" style="fill: none; stroke: #ffffff; stroke-linecap: round"/>
     </g>
     <g id="text_12">
      <!-- 40000 -->
      <g style="fill: #262626" transform="translate(22.6375 90.071585) scale(0.11 -0.11)">
       <use xlink:href="#Roboto-Regular-34"/>
       <use xlink:href="#Roboto-Regular-30" transform="translate(56.152344 0)"/>
       <use xlink:href="#Roboto-Regular-30" transform="translate(112.304688 0)"/>
       <use xlink:href="#Roboto-Regular-30" transform="translate(168.457031 0)"/>
       <use xlink:href="#Roboto-Regular-30" transform="translate(224.609375 0)"/>
      </g>
     </g>
    </g>
    <g id="text_13">
     <!-- Total Federal Tax -->
     <g style="fill: #262626" transform="translate(16.2 209.725625) rotate(-90) scale(0.12 -0.12)">
      <defs>
       <path id="Roboto-Regular-54" d="M 3672 4056
L 2209 4056
L 2209 0
L 1613 0
L 1613 4056
L 153 4056
L 153 4550
L 3672 4550
L 3672 4056
z
" transform="scale(0.015625)"/>
       <path id="Roboto-Regular-6c" d="M 1066 0
L 488 0
L 488 4800
L 1066 4800
L 1066 0
z
" transform="scale(0.015625)"/>
       <path id="Roboto-Regular-46" d="M 3038 2009
L 1128 2009
L 1128 0
L 528 0
L 528 4550
L 3347 4550
L 3347 4056
L 1128 4056
L 1128 2500
L 3038 2500
L 3038 2009
z
" transform="scale(0.015625)"/>
       <path id="Roboto-Regular-64" d="M 297 1719
Q 297 2497 665 2970
Q 1034 3444 1631 3444
Q 2225 3444 2572 3038
L 2572 4800
L 3150 4800
L 3150 0
L 2619 0
L 2591 363
Q 2244 -63 1625 -63
Q 1038 -63 667 418
Q 297 900 297 1675
L 297 1719
z
M 875 1653
Q 875 1078 1112 753
Q 1350 428 1769 428
Q 2319 428 2572 922
L 2572 2475
Q 2313 2953 1775 2953
Q 1350 2953 1112 2625
Q 875 2297 875 1653
z
" transform="scale(0.015625)"/>
       <path id="Roboto-Regular-72" d="M 2072 2863
Q 1941 2884 1788 2884
Q 1219 2884 1016 2400
L 1016 0
L 438 0
L 438 3381
L 1000 3381
L 1009 2991
Q 1294 3444 1816 3444
Q 1984 3444 2072 3400
L 2072 2863
z
" transform="scale(0.015625)"/>
       <path id="Roboto-Regular-78" d="M 1572 2147
L 2322 3381
L 2997 3381
L 1891 1709
L 3031 0
L 2363 0
L 1581 1266
L 800 0
L 128 0
L 1269 1709
L 163 3381
L 831 3381
L 1572 2147
z
" transform="scale(0.015625)"/>
      </defs>
      <use xlink:href="#Roboto-Regular-54"/>
      <use xlink:href="#Roboto-Regular-6f" transform="translate(59.667969 0)"/>
      <use xlink:href="#Roboto-Regular-74" transform="translate(116.699219 0)"/>
      <use xlink:href="#Roboto-Regular-61" transform="translate(149.365234 0)"/>
      <use xlink:href="#Roboto-Regular-6c" transform="translate(203.759766 0)"/>
      <use xlink:href="#Roboto-Regular-20" transform="translate(228.027344 0)"/>
      <use xlink:href="#Roboto-Regular-46" transform="translate(252.783203 0)"/>
      <use xlink:href="#Roboto-Regular-65" transform="translate(308.056641 0)"/>
      <use xlink:href="#Roboto-Regular-64" transform="translate(361.035156 0)"/>
      <use xlink:href="#Roboto-Regular-65" transform="translate(417.431641 0)"/>
      <use xlink:href="#Roboto-Regular-72" transform="translate(470.410156 0)"/>
      <use xlink:href="#Roboto-Regular-61" transform="translate(504.248047 0)"/>
      <use xlink:href="#Roboto-Regular-6c" transform="translate(558.642578 0)"/>
      <use xlink:href="#Roboto-Regular-20" transform="translate(582.910156 0)"/>
      <use xlink:href="#Roboto-Regular-54" transform="translate(607.666016 0)"/>
      <use xlink:href="#Roboto-Regular-61" transform="translate(667.333984 0)"/>
      <use xlink:href="#Roboto-Regular-78" transform="translate(721.728516 0)"/>
     </g>
    </g>
   </g>
   <g id="patch_3">
    <path d="M 80.148789 291.458125
L 88.711464 291.458125
L 97.27414 291.458125
L 105.836816 291.458125
L 114.399491 291.458125
L 122.962167 291.458125
L 131.524842 291.458125
L 140.087518 291.458125
L 148.650194 291.458125
L 157.212869 291.458125
L 165.775545 291.458125
L 174.338221 291.458125
L 182.900896 291.458125
L 191.463572 291.458125
L 200.026247 291.458125
L 208.588923 291.458125
L 217.151599 291.458125
L 225.714274 291.458125
L 234.27695 291.458125
L 242.839626 291.458125
L 251.402301 291.458125
L 259.964977 291.458125
L 268.527652 291.458125
L 277.090328 291.458125
L 285.653004 291.458125
L 294.215679 291.458125
L 302.778355 291.458125
L 311.34103 291.458125
L 319.903706 291.458125
L 328.466382 291.458125
L 337.029057 291.458125
L 345.591733 291.458125
L 354.154409 291.458125
L 362.717084 291.458125
L 371.27976 291.458125
L 379.842435 291.458125
L 388.405111 291.458125
L 396.967787 291.458125
L 405.530462 291.458125
L 414.093138 291.458125
L 422.655814 291.458125
L 422.655814 132.895696
L 414.093138 136.235259
L 405.530462 139.574821
L 396.967787 142.914384
L 388.405111 146.253946
L 379.842435 149.593509
L 371.27976 152.933071
L 362.717084 156.272634
L 354.154409 159.612196
L 345.591733 162.951759
L 337.029057 166.291322
L 328.466382 169.630884
L 319.903706 172.970447
L 311.34103 176.310009
L 302.778355 179.649572
L 294.215679 182.989134
L 285.653004 186.328697
L 277.090328 189.668259
L 268.527652 193.007822
L 259.964977 196.347384
L 251.402301 199.686947
L 242.839626 203.026509
L 234.27695 206.366072
L 225.714274 209.705634
L 217.151599 213.045197
L 208.588923 216.384759
L 200.026247 218.162434
L 191.463572 218.162434
L 182.900896 218.162434
L 174.338221 218.162434
L 165.775545 218.162434
L 157.212869 218.162434
L 148.650194 218.162434
L 140.087518 218.162434
L 131.524842 218.162434
L 122.962167 218.162434
L 114.399491 218.162434
L 105.836816 218.162434
L 97.27414 218.162434
L 88.711464 218.162434
L 80.148789 218.162434
z
" clip-path="url(#p628d4e74cd)" style="fill: #4c72b0; fill-opacity: 0.7; stroke: #4c72b0; stroke-width: 2; stroke-linejoin: miter"/>
   </g>
   <g id="patch_4">
    <path d="M 80.148789 218.162434
L 88.711464 218.162434
L 97.27414 218.162434
L 105.836816 218.162434
L 114.399491 218.162434
L 122.962167 218.162434
L 131.524842 218.162434
L 140.087518 218.162434
L 148.650194 218.162434
L 157.212869 218.162434
L 165.775545 218.162434
L 174.338221 218.162434
L 182.900896 218.162434
L 191.463572 218.162434
L 200.026247 218.162434
L 208.588923 216.384759
L 217.151599 213.045197
L 225.714274 209.705634
L 234.27695 206.366072
L 242.839626 203.026509
L 251.402301 199.686947
L 259.964977 196.347384
L 268.527652 193.007822
L 277.090328 189.668259
L 285.653004 186.328697
L 294.215679 182.989134
L 302.778355 179.649572
L 311.34103 176.310009
L 319.903706 172.970447
L 328.466382 169.630884
L 337.029057 166.291322
L 345.591733 162.951759
L 354.154409 159.612196
L 362.717084 156.272634
L 371.27976 152.933071
L 379.842435 149.593509
L 388.405111 146.253946
L 396.967787 142.914384
L 405.530462 139.574821
L 414.093138 136.235259
L 422.655814 132.895696
L 422.655814 47.628958
L 414.093138 54.308083
L 405.530462 60.987208
L 396.967787 67.666333
L 388.405111 74.345459
L 379.842435 81.024584
L 371.27976 87.703709
L 362.717084 94.382834
L 354.154409 101.061959
L 345.591733 107.741084
L 337.029057 114.420209
L 328.466382 121.099334
L 319.903706 127.778459
L 311.34103 134.457584
L 302.778355 141.136709
L 294.215679 147.815834
L 285.653004 154.494959
L 277.090328 161.174084
L 268.527652 167.853209
L 259.964977 174.532334
L 251.402301 181.211459
L 242.839626 187.890584
L 234.27695 194.569709
L 225.714274 201.248835
L 217.151599 207.92796
L 208.588923 214.607085
L 200.026247 218.162434
L 191.463572 218.162434
L 182.900896 218.162434
L 174.338221 218.162434
L 165.775545 218.162434
L 157.212869 218.162434
L 148.650194 218.162434
L 140.087518 218.162434
L 131.524842 218.162434
L 122.962167 218.162434
L 114.399491 218.162434
L 105.836816 218.162434
L 97.27414 218.162434
L 88.711464 218.162434
z
" clip-path="url(#pc23d6087d8)" style="fill: #dd8452; fill-opacity: 0.7; stroke: #dd8452; stroke-width: 2; stroke-linejoin: miter"/>
   </g>
   <g id="patch_5">
    <path d="M 63.023438 291.458125
L 63.023438 35.4375
" style="fill: none; stroke: #ffffff; stroke-width: 1.25; stroke-linejoin: miter; stroke-linecap: square"/>
   </g>
   <g id="patch_6">
    <path d="M 439.781165 291.458125
L 439.781165 35.4375
" style="fill: none; stroke: #ffffff; stroke-width: 1.25; stroke-linejoin: miter; stroke-linecap: square"/>
   </g>
   <g id="patch_7">
    <path d="M 63.023438 291.458125
L 439.781165 291.458125
" style="fill: none; stroke: #ffffff; stroke-width: 1.25; stroke-linejoin: miter; stroke-linecap: square"/>
   </g>
   <g id="patch_8">
    <path d="M 63.023438 35.4375
L 439.781165 35.4375
" style="fill: none; stroke: #ffffff; stroke-width: 1.25; stroke-linejoin: miter; stroke-linecap: square"/>
   </g>
   <g id="text_14">
    <!-- Effect of ISO Gains on Federal Alternative Minimum Tax -->
    <g transform="translate(103.374801 16.2) scale(0.12 -0.12)">
     <defs>
      <path id="Roboto-Regular-45" d="M 3100 2103
L 1128 2103
L 1128 491
L 3419 491
L 3419 0
L 528 0
L 528 4550
L 3388 4550
L 3388 4056
L 1128 4056
L 1128 2594
L 3100 2594
L 3100 2103
z
" transform="scale(0.015625)"/>
      <path id="Roboto-Regular-66" d="M 722 0
L 722 2934
L 188 2934
L 188 3381
L 722 3381
L 722 3728
Q 722 4272 1012 4569
Q 1303 4866 1834 4866
Q 2034 4866 2231 4813
L 2200 4344
Q 2053 4372 1888 4372
Q 1606 4372 1453 4208
Q 1300 4044 1300 3738
L 1300 3381
L 2022 3381
L 2022 2934
L 1300 2934
L 1300 0
L 722 0
z
" transform="scale(0.015625)"/>
      <path id="Roboto-Regular-41" d="M 3041 1188
L 1134 1188
L 706 0
L 88 0
L 1825 4550
L 2350 4550
L 4091 0
L 3475 0
L 3041 1188
z
M 1316 1681
L 2863 1681
L 2088 3809
L 1316 1681
z
" transform="scale(0.015625)"/>
      <path id="Roboto-Regular-4d" d="M 1303 4550
L 2791 838
L 4278 4550
L 5056 4550
L 5056 0
L 4456 0
L 4456 1772
L 4513 3684
L 3019 0
L 2559 0
L 1069 3675
L 1128 1772
L 1128 0
L 528 0
L 528 4550
L 1303 4550
z
" transform="scale(0.015625)"/>
      <path id="Roboto-Regular-6d" d="M 981 3381
L 997 3006
Q 1369 3444 2000 3444
Q 2709 3444 2966 2900
Q 3134 3144 3404 3294
Q 3675 3444 4044 3444
Q 5156 3444 5175 2266
L 5175 0
L 4597 0
L 4597 2231
Q 4597 2594 4431 2773
Q 4266 2953 3875 2953
Q 3553 2953 3340 2761
Q 3128 2569 3094 2244
L 3094 0
L 2513 0
L 2513 2216
Q 2513 2953 1791 2953
Q 1222 2953 1013 2469
L 1013 0
L 434 0
L 434 3381
L 981 3381
z
" transform="scale(0.015625)"/>
      <path id="Roboto-Regular-75" d="M 2525 334
Q 2188 -63 1534 -63
Q 994 -63 711 251
Q 428 566 425 1181
L 425 3381
L 1003 3381
L 1003 1197
Q 1003 428 1628 428
Q 2291 428 2509 922
L 2509 3381
L 3088 3381
L 3088 0
L 2538 0
L 2525 334
z
" transform="scale(0.015625)"/>
     </defs>
     <use xlink:href="#Roboto-Regular-45"/>
     <use xlink:href="#Roboto-Regular-66" transform="translate(56.835938 0)"/>
     <use xlink:href="#Roboto-Regular-66" transform="translate(91.552734 0)"/>
     <use xlink:href="#Roboto-Regular-65" transform="translate(126.269531 0)"/>
     <use xlink:href="#Roboto-Regular-63" transform="translate(179.248047 0)"/>
     <use xlink:href="#Roboto-Regular-74" transform="translate(231.591797 0)"/>
     <use xlink:href="#Roboto-Regular-20" transform="translate(264.257812 0)"/>
     <use xlink:href="#Roboto-Regular-6f" transform="translate(289.013672 0)"/>
     <use xlink:href="#Roboto-Regular-66" transform="translate(346.044922 0)"/>
     <use xlink:href="#Roboto-Regular-20" transform="translate(380.761719 0)"/>
     <use xlink:href="#Roboto-Regular-49" transform="translate(405.517578 0)"/>
     <use xlink:href="#Roboto-Regular-53" transform="translate(432.714844 0)"/>
     <use xlink:href="#Roboto-Regular-4f" transform="translate(492.041016 0)"/>
     <use xlink:href="#Roboto-Regular-20" transform="translate(560.791016 0)"/>
     <use xlink:href="#Roboto-Regular-47" transform="translate(585.546875 0)"/>
     <use xlink:href="#Roboto-Regular-61" transform="translate(653.662109 0)"/>
     <use xlink:href="#Roboto-Regular-69" transform="translate(708.056641 0)"/>
     <use xlink:href="#Roboto-Regular-6e" transform="translate(732.324219 0)"/>
     <use xlink:href="#Roboto-Regular-73" transform="translate(787.5 0)"/>
     <use xlink:href="#Roboto-Regular-20" transform="translate(839.0625 0)"/>
     <use xlink:href="#Roboto-Regular-6f" transform="translate(863.818359 0)"/>
     <use xlink:href="#Roboto-Regular-6e" transform="translate(920.849609 0)"/>
     <use xlink:href="#Roboto-Regular-20" transform="translate(976.025391 0)"/>
     <use xlink:href="#Roboto-Regular-46" transform="translate(1000.78125 0)"/>
     <use xlink:href="#Roboto-Regular-65" transform="translate(1056.054688 0)"/>
     <use xlink:href="#Roboto-Regular-64" transform="translate(1109.033203 0)"/>
     <use xlink:href="#Roboto-Regular-65" transform="translate(1165.429688 0)"/>
     <use xlink:href="#Roboto-Regular-72" transform="translate(1218.408203 0)"/>
     <use xlink:href="#Roboto-Regular-61" transform="translate(1252.246094 0)"/>
     <use xlink:href="#Roboto-Regular-6c" transform="translate(1306.640625 0)"/>
     <use xlink:href="#Roboto-Regular-20" transform="translate(1330.908203 0)"/>
     <use xlink:href="#Roboto-Regular-41" transform="translate(1355.664062 0)"/>
     <use xlink:href="#Roboto-Regular-6c" transform="translate(1420.898438 0)"/>
     <use xlink:href="#Roboto-Regular-74" transform="translate(1445.166016 0)"/>
     <use xlink:href="#Roboto-Regular-65" transform="translate(1477.832031 0)"/>
     <use xlink:href="#Roboto-Regular-72" transform="translate(1530.810547 0)"/>
     <use xlink:href="#Roboto-Regular-6e" transform="translate(1564.648438 0)"/>
     <use xlink:href="#Roboto-Regular-61" transform="translate(1619.824219 0)"/>
     <use xlink:href="#Roboto-Regular-74" transform="translate(1674.21875 0)"/>
     <use xlink:href="#Roboto-Regular-69" transform="translate(1706.884766 0)"/>
     <use xlink:href="#Roboto-Regular-76" transform="translate(1731.152344 0)"/>
     <use xlink:href="#Roboto-Regular-65" transform="translate(1779.589844 0)"/>
     <use xlink:href="#Roboto-Regular-20" transform="translate(1832.568359 0)"/>
     <use xlink:href="#Roboto-Regular-4d" transform="translate(1857.324219 0)"/>
     <use xlink:href="#Roboto-Regular-69" transform="translate(1944.628906 0)"/>
     <use xlink:href="#Roboto-Regular-6e" transform="translate(1968.896484 0)"/>
     <use xlink:href="#Roboto-Regular-69" transform="translate(2024.072266 0)"/>
     <use xlink:href="#Roboto-Regular-6d" transform="translate(2048.339844 0)"/>
     <use xlink:href="#Roboto-Regular-75" transform="translate(2135.986328 0)"/>
     <use xlink:href="#Roboto-Regular-6d" transform="translate(2191.113281 0)"/>
     <use xlink:href="#Roboto-Regular-20" transform="translate(2278.759766 0)"/>
     <use xlink:href="#Roboto-Regular-54" transform="translate(2303.515625 0)"/>
     <use xlink:href="#Roboto-Regular-61" transform="translate(2363.183594 0)"/>
     <use xlink:href="#Roboto-Regular-78" transform="translate(2417.578125 0)"/>
    </g>
    <!-- Given $100K W2 Income -->
    <g transform="translate(186.134489 29.4375) scale(0.12 -0.12)">
     <defs>
      <path id="Roboto-Regular-24" d="M 2675 1172
Q 2675 1459 2473 1656
Q 2272 1853 1794 2013
Q 1128 2216 823 2542
Q 519 2869 519 3372
Q 519 3884 817 4212
Q 1116 4541 1638 4603
L 1638 5288
L 2103 5288
L 2103 4600
Q 2628 4528 2920 4159
Q 3213 3791 3213 3150
L 2638 3150
Q 2638 3591 2428 3850
Q 2219 4109 1863 4109
Q 1491 4109 1294 3917
Q 1097 3725 1097 3381
Q 1097 3063 1305 2873
Q 1513 2684 1989 2529
Q 2466 2375 2733 2189
Q 3000 2003 3126 1756
Q 3253 1509 3253 1178
Q 3253 650 2936 328
Q 2619 6 2047 -53
L 2047 -650
L 1584 -650
L 1584 -53
Q 1003 0 673 361
Q 344 722 344 1341
L 922 1341
Q 922 906 1150 672
Q 1378 438 1797 438
Q 2206 438 2440 634
Q 2675 831 2675 1172
z
" transform="scale(0.015625)"/>
      <path id="Roboto-Regular-4b" d="M 1684 2116
L 1128 1538
L 1128 0
L 528 0
L 528 4550
L 1128 4550
L 1128 2300
L 3150 4550
L 3875 4550
L 2084 2541
L 4016 0
L 3297 0
L 1684 2116
z
" transform="scale(0.015625)"/>
      <path id="Roboto-Regular-57" d="M 1509 1434
L 1597 834
L 1725 1375
L 2625 4550
L 3131 4550
L 4009 1375
L 4134 825
L 4231 1438
L 4938 4550
L 5541 4550
L 4438 0
L 3891 0
L 2953 3316
L 2881 3663
L 2809 3316
L 1838 0
L 1291 0
L 191 4550
L 791 4550
L 1509 1434
z
" transform="scale(0.015625)"/>
     </defs>
     <use xlink:href="#Roboto-Regular-47"/>
     <use xlink:href="#Roboto-Regular-69" transform="translate(68.115234 0)"/>
     <use xlink:href="#Roboto-Regular-76" transform="translate(92.382812 0)"/>
     <use xlink:href="#Roboto-Regular-65" transform="translate(140.820312 0)"/>
     <use xlink:href="#Roboto-Regular-6e" transform="translate(193.798828 0)"/>
     <use xlink:href="#Roboto-Regular-20" transform="translate(248.974609 0)"/>
     <use xlink:href="#Roboto-Regular-24" transform="translate(273.730469 0)"/>
     <use xlink:href="#Roboto-Regular-31" transform="translate(329.882812 0)"/>
     <use xlink:href="#Roboto-Regular-30" transform="translate(386.035156 0)"/>
     <use xlink:href="#Roboto-Regular-30" transform="translate(442.1875 0)"/>
     <use xlink:href="#Roboto-Regular-4b" transform="translate(498.339844 0)"/>
     <use xlink:href="#Roboto-Regular-20" transform="translate(561.035156 0)"/>
     <use xlink:href="#Roboto-Regular-57" transform="translate(585.791016 0)"/>
     <use xlink:href="#Roboto-Regular-32" transform="translate(674.511719 0)"/>
     <use xlink:href="#Roboto-Regular-20" transform="translate(730.664062 0)"/>
     <use xlink:href="#Roboto-Regular-49" transform="translate(755.419922 0)"/>
     <use xlink:href="#Roboto-Regular-6e" transform="translate(782.617188 0)"/>
     <use xlink:href="#Roboto-Regular-63" transform="translate(837.792969 0)"/>
     <use xlink:href="#Roboto-Regular-6f" transform="translate(890.136719 0)"/>
     <use xlink:href="#Roboto-Regular-6d" transform="translate(947.167969 0)"/>
     <use xlink:href="#Roboto-Regular-65" transform="translate(1034.814453 0)"/>
    </g>
   </g>
  </g>
  <g id="legend_1">
   <g id="patch_9">
    <path d="M 459.284 170.191641
L 559.454469 170.191641
Q 561.654469 170.191641 561.654469 167.991641
L 561.654469 120.008359
Q 561.654469 117.808359 559.454469 117.808359
L 459.284 117.808359
Q 457.084 117.808359 457.084 120.008359
L 457.084 167.991641
Q 457.084 170.191641 459.284 170.191641
z
" style="fill: #eaeaf2; opacity: 0.8; stroke: #cccccc; stroke-linejoin: miter"/>
   </g>
   <g id="text_15">
    <!-- Type -->
    <g transform="translate(496.404547 131.208359) scale(0.12 -0.12)">
     <defs>
      <path id="Roboto-Regular-79" d="M 1544 847
L 2331 3381
L 2950 3381
L 1591 -522
Q 1275 -1366 588 -1366
L 478 -1356
L 263 -1316
L 263 -847
L 419 -859
Q 713 -859 877 -740
Q 1041 -622 1147 -306
L 1275 38
L 69 3381
L 700 3381
L 1544 847
z
" transform="scale(0.015625)"/>
     </defs>
     <use xlink:href="#Roboto-Regular-54"/>
     <use xlink:href="#Roboto-Regular-79" transform="translate(59.667969 0)"/>
     <use xlink:href="#Roboto-Regular-70" transform="translate(106.982422 0)"/>
     <use xlink:href="#Roboto-Regular-65" transform="translate(163.085938 0)"/>
    </g>
   </g>
   <g id="patch_10">
    <path d="M 461.484 147.519609
L 483.484 147.519609
L 483.484 139.819609
L 461.484 139.819609
z
" style="fill: #4c72b0; fill-opacity: 0.7; stroke: #4c72b0; stroke-linejoin: miter"/>
   </g>
   <g id="text_16">
    <!-- "Regular" Tax -->
    <g transform="translate(492.284 147.519609) scale(0.11 -0.11)">
     <defs>
      <path id="Roboto-Regular-22" d="M 866 4375
L 772 3256
L 425 3256
L 428 4800
L 866 4800
L 866 4375
z
M 1709 4375
L 1616 3256
L 1269 3256
L 1272 4800
L 1709 4800
L 1709 4375
z
" transform="scale(0.015625)"/>
      <path id="Roboto-Regular-52" d="M 2197 1841
L 1128 1841
L 1128 0
L 525 0
L 525 4550
L 2031 4550
Q 2800 4550 3214 4200
Q 3628 3850 3628 3181
Q 3628 2756 3398 2440
Q 3169 2125 2759 1969
L 3828 38
L 3828 0
L 3184 0
L 2197 1841
z
M 1128 2331
L 2050 2331
Q 2497 2331 2761 2562
Q 3025 2794 3025 3181
Q 3025 3603 2773 3828
Q 2522 4053 2047 4056
L 1128 4056
L 1128 2331
z
" transform="scale(0.015625)"/>
      <path id="Roboto-Regular-67" d="M 300 1719
Q 300 2509 665 2976
Q 1031 3444 1634 3444
Q 2253 3444 2600 3006
L 2628 3381
L 3156 3381
L 3156 81
Q 3156 -575 2767 -953
Q 2378 -1331 1722 -1331
Q 1356 -1331 1006 -1175
Q 656 -1019 472 -747
L 772 -400
Q 1144 -859 1681 -859
Q 2103 -859 2339 -621
Q 2575 -384 2575 47
L 2575 338
Q 2228 -63 1628 -63
Q 1034 -63 667 415
Q 300 894 300 1719
z
M 881 1653
Q 881 1081 1115 754
Q 1350 428 1772 428
Q 2319 428 2575 925
L 2575 2469
Q 2309 2953 1778 2953
Q 1356 2953 1118 2625
Q 881 2297 881 1653
z
" transform="scale(0.015625)"/>
     </defs>
     <use xlink:href="#Roboto-Regular-22"/>
     <use xlink:href="#Roboto-Regular-52" transform="translate(31.982422 0)"/>
     <use xlink:href="#Roboto-Regular-65" transform="translate(93.554688 0)"/>
     <use xlink:href="#Roboto-Regular-67" transform="translate(146.533203 0)"/>
     <use xlink:href="#Roboto-Regular-75" transform="translate(202.636719 0)"/>
     <use xlink:href="#Roboto-Regular-6c" transform="translate(257.763672 0)"/>
     <use xlink:href="#Roboto-Regular-61" transform="translate(282.03125 0)"/>
     <use xlink:href="#Roboto-Regular-72" transform="translate(336.425781 0)"/>
     <use xlink:href="#Roboto-Regular-22" transform="translate(370.263672 0)"/>
     <use xlink:href="#Roboto-Regular-20" transform="translate(402.246094 0)"/>
     <use xlink:href="#Roboto-Regular-54" transform="translate(427.001953 0)"/>
     <use xlink:href="#Roboto-Regular-61" transform="translate(486.669922 0)"/>
     <use xlink:href="#Roboto-Regular-78" transform="translate(541.064453 0)"/>
    </g>
   </g>
   <g id="patch_11">
    <path d="M 461.484 163.557266
L 483.484 163.557266
L 483.484 155.857266
L 461.484 155.857266
z
" style="fill: #dd8452; fill-opacity: 0.7; stroke: #dd8452; stroke-linejoin: miter"/>
   </g>
   <g id="text_17">
    <!-- AMT -->
    <g transform="translate(492.284 163.557266) scale(0.11 -0.11)">
     <use xlink:href="#Roboto-Regular-41"/>
     <use xlink:href="#Roboto-Regular-4d" transform="translate(65.234375 0)"/>
     <use xlink:href="#Roboto-Regular-54" transform="translate(152.539062 0)"/>
    </g>
   </g>
  </g>
 </g>
 <defs>
  <clipPath id="p377e72c3a1">
   <rect x="63.023438" y="35.4375" width="376.757727" height="256.020625"/>
  </clipPath>
  <clipPath id="p628d4e74cd">
   <path d="M 80.148789 291.458125
L 88.711464 291.458125
L 97.27414 291.458125
L 105.836816 291.458125
L 114.399491 291.458125
L 122.962167 291.458125
L 131.524842 291.458125
L 140.087518 291.458125
L 148.650194 291.458125
L 157.212869 291.458125
L 165.775545 291.458125
L 174.338221 291.458125
L 182.900896 291.458125
L 191.463572 291.458125
L 200.026247 291.458125
L 208.588923 291.458125
L 217.151599 291.458125
L 225.714274 291.458125
L 234.27695 291.458125
L 242.839626 291.458125
L 251.402301 291.458125
L 259.964977 291.458125
L 268.527652 291.458125
L 277.090328 291.458125
L 285.653004 291.458125
L 294.215679 291.458125
L 302.778355 291.458125
L 311.34103 291.458125
L 319.903706 291.458125
L 328.466382 291.458125
L 337.029057 291.458125
L 345.591733 291.458125
L 354.154409 291.458125
L 362.717084 291.458125
L 371.27976 291.458125
L 379.842435 291.458125
L 388.405111 291.458125
L 396.967787 291.458125
L 405.530462 291.458125
L 414.093138 291.458125
L 422.655814 291.458125
L 422.655814 132.895696
L 414.093138 136.235259
L 405.530462 139.574821
L 396.967787 142.914384
L 388.405111 146.253946
L 379.842435 149.593509
L 371.27976 152.933071
L 362.717084 156.272634
L 354.154409 159.612196
L 345.591733 162.951759
L 337.029057 166.291322
L 328.466382 169.630884
L 319.903706 172.970447
L 311.34103 176.310009
L 302.778355 179.649572
L 294.215679 182.989134
L 285.653004 186.328697
L 277.090328 189.668259
L 268.527652 193.007822
L 259.964977 196.347384
L 251.402301 199.686947
L 242.839626 203.026509
L 234.27695 206.366072
L 225.714274 209.705634
L 217.151599 213.045197
L 208.588923 216.384759
L 200.026247 218.162434
L 191.463572 218.162434
L 182.900896 218.162434
L 174.338221 218.162434
L 165.775545 218.162434
L 157.212869 218.162434
L 148.650194 218.162434
L 140.087518 218.162434
L 131.524842 218.162434
L 122.962167 218.162434
L 114.399491 218.162434
L 105.836816 218.162434
L 97.27414 218.162434
L 88.711464 218.162434
L 80.148789 218.162434
z
"/>
  </clipPath>
  <clipPath id="pc23d6087d8">
   <path d="M 80.148789 218.162434
L 88.711464 218.162434
L 97.27414 218.162434
L 105.836816 218.162434
L 114.399491 218.162434
L 122.962167 218.162434
L 131.524842 218.162434
L 140.087518 218.162434
L 148.650194 218.162434
L 157.212869 218.162434
L 165.775545 218.162434
L 174.338221 218.162434
L 182.900896 218.162434
L 191.463572 218.162434
L 200.026247 218.162434
L 208.588923 216.384759
L 217.151599 213.045197
L 225.714274 209.705634
L 234.27695 206.366072
L 242.839626 203.026509
L 251.402301 199.686947
L 259.964977 196.347384
L 268.527652 193.007822
L 277.090328 189.668259
L 285.653004 186.328697
L 294.215679 182.989134
L 302.778355 179.649572
L 311.34103 176.310009
L 319.903706 172.970447
L 328.466382 169.630884
L 337.029057 166.291322
L 345.591733 162.951759
L 354.154409 159.612196
L 362.717084 156.272634
L 371.27976 152.933071
L 379.842435 149.593509
L 388.405111 146.253946
L 396.967787 142.914384
L 405.530462 139.574821
L 414.093138 136.235259
L 422.655814 132.895696
L 422.655814 47.628958
L 414.093138 54.308083
L 405.530462 60.987208
L 396.967787 67.666333
L 388.405111 74.345459
L 379.842435 81.024584
L 371.27976 87.703709
L 362.717084 94.382834
L 354.154409 101.061959
L 345.591733 107.741084
L 337.029057 114.420209
L 328.466382 121.099334
L 319.903706 127.778459
L 311.34103 134.457584
L 302.778355 141.136709
L 294.215679 147.815834
L 285.653004 154.494959
L 277.090328 161.174084
L 268.527652 167.853209
L 259.964977 174.532334
L 251.402301 181.211459
L 242.839626 187.890584
L 234.27695 194.569709
L 225.714274 201.248835
L 217.151599 207.92796
L 208.588923 214.607085
L 200.026247 218.162434
L 191.463572 218.162434
L 182.900896 218.162434
L 174.338221 218.162434
L 165.775545 218.162434
L 157.212869 218.162434
L 148.650194 218.162434
L 140.087518 218.162434
L 131.524842 218.162434
L 122.962167 218.162434
L 114.399491 218.162434
L 105.836816 218.162434
L 97.27414 218.162434
L 88.711464 218.162434
z
"/>
  </clipPath>
 </defs>
</svg>
