<?xml version="1.0" encoding="utf-8" standalone="no"?>
<!DOCTYPE svg PUBLIC "-//W3C//DTD SVG 1.1//EN"
  "http://www.w3.org/Graphics/SVG/1.1/DTD/svg11.dtd">
<svg xmlns:xlink="http://www.w3.org/1999/xlink" width="449.28pt" height="334.08pt" viewBox="0 0 449.28 334.08" xmlns="http://www.w3.org/2000/svg" version="1.1">
 <metadata>
  <rdf:RDF xmlns:dc="http://purl.org/dc/elements/1.1/" xmlns:cc="http://creativecommons.org/ns#" xmlns:rdf="http://www.w3.org/1999/02/22-rdf-syntax-ns#">
   <cc:Work>
    <dc:type rdf:resource="http://purl.org/dc/dcmitype/StillImage"/>
    <dc:date>2024-02-13T17:31:26.401653</dc:date>
    <dc:format>image/svg+xml</dc:format>
    <dc:creator>
     <cc:Agent>
      <dc:title>Matplotlib v3.8.2, https://matplotlib.org/</dc:title>
     </cc:Agent>
    </dc:creator>
   </cc:Work>
  </rdf:RDF>
 </metadata>
 <defs>
  <style type="text/css">*{stroke-linejoin: round; stroke-linecap: butt}</style>
 </defs>
 <g id="figure_1">
  <g id="patch_1">
   <path d="M 0 334.08
L 449.28 334.08
L 449.28 0
L 0 0
z
" style="fill: #ffffff"/>
  </g>
  <g id="axes_1">
   <g id="patch_2">
    <path d="M 63.023438 291.458125
L 442.08 291.458125
L 442.08 22.2
L 63.023438 22.2
z
" style="fill: #eaeaf2"/>
   </g>
   <g id="matplotlib.axis_1">
    <g id="xtick_1">
     <g id="text_1">
      <!-- 2018 -->
      <g style="fill: #262626" transform="translate(88.574719 309.208125) scale(0.11 -0.11)">
       <defs>
        <path id="Roboto-Regular-32" d="M 3359 0
L 378 0
L 378 416
L 1953 2166
Q 2303 2563 2436 2811
Q 2569 3059 2569 3325
Q 2569 3681 2353 3909
Q 2138 4138 1778 4138
Q 1347 4138 1108 3892
Q 869 3647 869 3209
L 291 3209
Q 291 3838 695 4225
Q 1100 4613 1778 4613
Q 2413 4613 2781 4280
Q 3150 3947 3150 3394
Q 3150 2722 2294 1794
L 1075 472
L 3359 472
L 3359 0
z
" transform="scale(0.015625)"/>
        <path id="Roboto-Regular-30" d="M 3231 1941
Q 3231 925 2884 431
Q 2538 -63 1800 -63
Q 1072 -63 722 420
Q 372 903 359 1863
L 359 2634
Q 359 3638 706 4125
Q 1053 4613 1794 4613
Q 2528 4613 2875 4142
Q 3222 3672 3231 2691
L 3231 1941
z
M 2653 2731
Q 2653 3466 2447 3802
Q 2241 4138 1794 4138
Q 1350 4138 1147 3803
Q 944 3469 938 2775
L 938 1850
Q 938 1113 1152 761
Q 1366 409 1800 409
Q 2228 409 2436 740
Q 2644 1072 2653 1784
L 2653 2731
z
" transform="scale(0.015625)"/>
        <path id="Roboto-Regular-31" d="M 2278 0
L 1697 0
L 1697 3853
L 531 3425
L 531 3950
L 2188 4572
L 2278 4572
L 2278 0
z
" transform="scale(0.015625)"/>
        <path id="Roboto-Regular-38" d="M 3138 3363
Q 3138 3022 2958 2756
Q 2778 2491 2472 2341
Q 2828 2188 3036 1894
Q 3244 1600 3244 1228
Q 3244 638 2845 287
Q 2447 -63 1797 -63
Q 1141 -63 745 289
Q 350 641 350 1228
Q 350 1597 551 1894
Q 753 2191 1109 2344
Q 806 2494 631 2759
Q 456 3025 456 3363
Q 456 3938 825 4275
Q 1194 4613 1797 4613
Q 2397 4613 2767 4275
Q 3138 3938 3138 3363
z
M 2666 1241
Q 2666 1622 2423 1862
Q 2181 2103 1790 2103
Q 1400 2103 1164 1865
Q 928 1628 928 1240
Q 928 853 1158 631
Q 1388 409 1797 409
Q 2203 409 2434 632
Q 2666 856 2666 1241
z
M 1797 4138
Q 1456 4138 1245 3927
Q 1034 3716 1034 3353
Q 1034 3006 1242 2792
Q 1450 2578 1797 2578
Q 2144 2578 2351 2792
Q 2559 3006 2559 3353
Q 2559 3700 2343 3919
Q 2128 4138 1797 4138
z
" transform="scale(0.015625)"/>
       </defs>
       <use xlink:href="#Roboto-Regular-32"/>
       <use xlink:href="#Roboto-Regular-30" x="56.152344"/>
       <use xlink:href="#Roboto-Regular-31" x="112.304688"/>
       <use xlink:href="#Roboto-Regular-38" x="168.457031"/>
      </g>
     </g>
    </g>
    <g id="xtick_2">
     <g id="text_2">
      <!-- 2019 -->
      <g style="fill: #262626" transform="translate(164.386031 309.208125) scale(0.11 -0.11)">
       <defs>
        <path id="Roboto-Regular-39" d="M 2594 2000
Q 2413 1784 2161 1653
Q 1909 1522 1609 1522
Q 1216 1522 923 1715
Q 631 1909 472 2261
Q 313 2613 313 3038
Q 313 3494 486 3859
Q 659 4225 978 4419
Q 1297 4613 1722 4613
Q 2397 4613 2786 4108
Q 3175 3603 3175 2731
L 3175 2563
Q 3175 1234 2650 623
Q 2125 13 1066 -3
L 953 -3
L 953 484
L 1075 484
Q 1791 497 2175 858
Q 2559 1219 2594 2000
z
M 1703 2000
Q 1994 2000 2239 2178
Q 2484 2356 2597 2619
L 2597 2850
Q 2597 3419 2350 3775
Q 2103 4131 1725 4131
Q 1344 4131 1112 3839
Q 881 3547 881 3069
Q 881 2603 1104 2301
Q 1328 2000 1703 2000
z
" transform="scale(0.015625)"/>
       </defs>
       <use xlink:href="#Roboto-Regular-32"/>
       <use xlink:href="#Roboto-Regular-30" x="56.152344"/>
       <use xlink:href="#Roboto-Regular-31" x="112.304688"/>
       <use xlink:href="#Roboto-Regular-39" x="168.457031"/>
      </g>
     </g>
    </g>
    <g id="xtick_3">
     <g id="text_3">
      <!-- 2020 -->
      <g style="fill: #262626" transform="translate(240.197344 309.208125) scale(0.11 -0.11)">
       <use xlink:href="#Roboto-Regular-32"/>
       <use xlink:href="#Roboto-Regular-30" x="56.152344"/>
       <use xlink:href="#Roboto-Regular-32" x="112.304688"/>
       <use xlink:href="#Roboto-Regular-30" x="168.457031"/>
      </g>
     </g>
    </g>
    <g id="xtick_4">
     <g id="text_4">
      <!-- 2021 -->
      <g style="fill: #262626" transform="translate(316.008656 309.208125) scale(0.11 -0.11)">
       <use xlink:href="#Roboto-Regular-32"/>
       <use xlink:href="#Roboto-Regular-30" x="56.152344"/>
       <use xlink:href="#Roboto-Regular-32" x="112.304688"/>
       <use xlink:href="#Roboto-Regular-31" x="168.457031"/>
      </g>
     </g>
    </g>
    <g id="xtick_5">
     <g id="text_5">
      <!-- 2022 -->
      <g style="fill: #262626" transform="translate(391.819969 309.208125) scale(0.11 -0.11)">
       <use xlink:href="#Roboto-Regular-32"/>
       <use xlink:href="#Roboto-Regular-30" x="56.152344"/>
       <use xlink:href="#Roboto-Regular-32" x="112.304688"/>
       <use xlink:href="#Roboto-Regular-32" x="168.457031"/>
      </g>
     </g>
    </g>
    <g id="text_6">
     <!-- Year -->
     <g style="fill: #262626" transform="translate(240.474844 324.4425) scale(0.12 -0.12)">
      <defs>
       <path id="Roboto-Regular-59" d="M 1916 2266
L 3103 4550
L 3784 4550
L 2216 1697
L 2216 0
L 1616 0
L 1616 1697
L 47 4550
L 734 4550
L 1916 2266
z
" transform="scale(0.015625)"/>
       <path id="Roboto-Regular-65" d="M 1841 -63
Q 1153 -63 722 389
Q 291 841 291 1597
L 291 1703
Q 291 2206 483 2601
Q 675 2997 1020 3220
Q 1366 3444 1769 3444
Q 2428 3444 2793 3009
Q 3159 2575 3159 1766
L 3159 1525
L 869 1525
Q 881 1025 1161 717
Q 1441 409 1872 409
Q 2178 409 2390 534
Q 2603 659 2763 866
L 3116 591
Q 2691 -63 1841 -63
z
M 1769 2969
Q 1419 2969 1181 2714
Q 944 2459 888 2000
L 2581 2000
L 2581 2044
Q 2556 2484 2343 2726
Q 2131 2969 1769 2969
z
" transform="scale(0.015625)"/>
       <path id="Roboto-Regular-61" d="M 2525 0
Q 2475 100 2444 356
Q 2041 -63 1481 -63
Q 981 -63 661 220
Q 341 503 341 938
Q 341 1466 742 1758
Q 1144 2050 1872 2050
L 2434 2050
L 2434 2316
Q 2434 2619 2253 2798
Q 2072 2978 1719 2978
Q 1409 2978 1200 2822
Q 991 2666 991 2444
L 409 2444
Q 409 2697 589 2933
Q 769 3169 1076 3306
Q 1384 3444 1753 3444
Q 2338 3444 2669 3151
Q 3000 2859 3013 2347
L 3013 791
Q 3013 325 3131 50
L 3131 0
L 2525 0
z
M 1566 441
Q 1838 441 2081 581
Q 2325 722 2434 947
L 2434 1641
L 1981 1641
Q 919 1641 919 1019
Q 919 747 1100 594
Q 1281 441 1566 441
z
" transform="scale(0.015625)"/>
       <path id="Roboto-Regular-72" d="M 2072 2863
Q 1941 2884 1788 2884
Q 1219 2884 1016 2400
L 1016 0
L 438 0
L 438 3381
L 1000 3381
L 1009 2991
Q 1294 3444 1816 3444
Q 1984 3444 2072 3400
L 2072 2863
z
" transform="scale(0.015625)"/>
      </defs>
      <use xlink:href="#Roboto-Regular-59"/>
      <use xlink:href="#Roboto-Regular-65" x="60.058594"/>
      <use xlink:href="#Roboto-Regular-61" x="113.037109"/>
      <use xlink:href="#Roboto-Regular-72" x="167.431641"/>
     </g>
    </g>
   </g>
   <g id="matplotlib.axis_2">
    <g id="ytick_1">
     <g id="line2d_1">
      <path d="M 63.023438 269.305906
L 442.08 269.305906
" clip-path="url(#pf7670f4798)" style="fill: none; stroke: #ffffff; stroke-linecap: round"/>
     </g>
     <g id="text_7">
      <!-- 14800 -->
      <g style="fill: #262626" transform="translate(22.6375 273.430906) scale(0.11 -0.11)">
       <defs>
        <path id="Roboto-Regular-34" d="M 2819 1528
L 3450 1528
L 3450 1056
L 2819 1056
L 2819 0
L 2238 0
L 2238 1056
L 166 1056
L 166 1397
L 2203 4550
L 2819 4550
L 2819 1528
z
M 822 1528
L 2238 1528
L 2238 3759
L 2169 3634
L 822 1528
z
" transform="scale(0.015625)"/>
       </defs>
       <use xlink:href="#Roboto-Regular-31"/>
       <use xlink:href="#Roboto-Regular-34" x="56.152344"/>
       <use xlink:href="#Roboto-Regular-38" x="112.304688"/>
       <use xlink:href="#Roboto-Regular-30" x="168.457031"/>
       <use xlink:href="#Roboto-Regular-30" x="224.609375"/>
      </g>
     </g>
    </g>
    <g id="ytick_2">
     <g id="line2d_2">
      <path d="M 63.023438 231.178162
L 442.08 231.178162
" clip-path="url(#pf7670f4798)" style="fill: none; stroke: #ffffff; stroke-linecap: round"/>
     </g>
     <g id="text_8">
      <!-- 14900 -->
      <g style="fill: #262626" transform="translate(22.6375 235.303162) scale(0.11 -0.11)">
       <use xlink:href="#Roboto-Regular-31"/>
       <use xlink:href="#Roboto-Regular-34" x="56.152344"/>
       <use xlink:href="#Roboto-Regular-39" x="112.304688"/>
       <use xlink:href="#Roboto-Regular-30" x="168.457031"/>
       <use xlink:href="#Roboto-Regular-30" x="224.609375"/>
      </g>
     </g>
    </g>
    <g id="ytick_3">
     <g id="line2d_3">
      <path d="M 63.023438 193.050419
L 442.08 193.050419
" clip-path="url(#pf7670f4798)" style="fill: none; stroke: #ffffff; stroke-linecap: round"/>
     </g>
     <g id="text_9">
      <!-- 15000 -->
      <g style="fill: #262626" transform="translate(22.6375 197.175419) scale(0.11 -0.11)">
       <defs>
        <path id="Roboto-Regular-35" d="M 644 2281
L 875 4550
L 3206 4550
L 3206 4016
L 1366 4016
L 1228 2775
Q 1563 2972 1988 2972
Q 2609 2972 2975 2561
Q 3341 2150 3341 1450
Q 3341 747 2961 342
Q 2581 -63 1900 -63
Q 1297 -63 915 271
Q 534 606 481 1197
L 1028 1197
Q 1081 806 1306 607
Q 1531 409 1900 409
Q 2303 409 2533 684
Q 2763 959 2763 1444
Q 2763 1900 2514 2176
Q 2266 2453 1853 2453
Q 1475 2453 1259 2288
L 1106 2163
L 644 2281
z
" transform="scale(0.015625)"/>
       </defs>
       <use xlink:href="#Roboto-Regular-31"/>
       <use xlink:href="#Roboto-Regular-35" x="56.152344"/>
       <use xlink:href="#Roboto-Regular-30" x="112.304688"/>
       <use xlink:href="#Roboto-Regular-30" x="168.457031"/>
       <use xlink:href="#Roboto-Regular-30" x="224.609375"/>
      </g>
     </g>
    </g>
    <g id="ytick_4">
     <g id="line2d_4">
      <path d="M 63.023438 154.922675
L 442.08 154.922675
" clip-path="url(#pf7670f4798)" style="fill: none; stroke: #ffffff; stroke-linecap: round"/>
     </g>
     <g id="text_10">
      <!-- 15100 -->
      <g style="fill: #262626" transform="translate(22.6375 159.047675) scale(0.11 -0.11)">
       <use xlink:href="#Roboto-Regular-31"/>
       <use xlink:href="#Roboto-Regular-35" x="56.152344"/>
       <use xlink:href="#Roboto-Regular-31" x="112.304688"/>
       <use xlink:href="#Roboto-Regular-30" x="168.457031"/>
       <use xlink:href="#Roboto-Regular-30" x="224.609375"/>
      </g>
     </g>
    </g>
    <g id="ytick_5">
     <g id="line2d_5">
      <path d="M 63.023438 116.794932
L 442.08 116.794932
" clip-path="url(#pf7670f4798)" style="fill: none; stroke: #ffffff; stroke-linecap: round"/>
     </g>
     <g id="text_11">
      <!-- 15200 -->
      <g style="fill: #262626" transform="translate(22.6375 120.919932) scale(0.11 -0.11)">
       <use xlink:href="#Roboto-Regular-31"/>
       <use xlink:href="#Roboto-Regular-35" x="56.152344"/>
       <use xlink:href="#Roboto-Regular-32" x="112.304688"/>
       <use xlink:href="#Roboto-Regular-30" x="168.457031"/>
       <use xlink:href="#Roboto-Regular-30" x="224.609375"/>
      </g>
     </g>
    </g>
    <g id="ytick_6">
     <g id="line2d_6">
      <path d="M 63.023438 78.667188
L 442.08 78.667188
" clip-path="url(#pf7670f4798)" style="fill: none; stroke: #ffffff; stroke-linecap: round"/>
     </g>
     <g id="text_12">
      <!-- 15300 -->
      <g style="fill: #262626" transform="translate(22.6375 82.792188) scale(0.11 -0.11)">
       <defs>
        <path id="Roboto-Regular-33" d="M 1219 2556
L 1653 2556
Q 2063 2563 2297 2772
Q 2531 2981 2531 3338
Q 2531 4138 1734 4138
Q 1359 4138 1136 3923
Q 913 3709 913 3356
L 334 3356
Q 334 3897 729 4255
Q 1125 4613 1734 4613
Q 2378 4613 2743 4272
Q 3109 3931 3109 3325
Q 3109 3028 2917 2750
Q 2725 2472 2394 2334
Q 2769 2216 2973 1941
Q 3178 1666 3178 1269
Q 3178 656 2778 296
Q 2378 -63 1737 -63
Q 1097 -63 695 284
Q 294 631 294 1200
L 875 1200
Q 875 841 1109 625
Q 1344 409 1738 409
Q 2156 409 2378 628
Q 2600 847 2600 1256
Q 2600 1653 2356 1865
Q 2113 2078 1653 2084
L 1219 2084
L 1219 2556
z
" transform="scale(0.015625)"/>
       </defs>
       <use xlink:href="#Roboto-Regular-31"/>
       <use xlink:href="#Roboto-Regular-35" x="56.152344"/>
       <use xlink:href="#Roboto-Regular-33" x="112.304688"/>
       <use xlink:href="#Roboto-Regular-30" x="168.457031"/>
       <use xlink:href="#Roboto-Regular-30" x="224.609375"/>
      </g>
     </g>
    </g>
    <g id="ytick_7">
     <g id="line2d_7">
      <path d="M 63.023438 40.539445
L 442.08 40.539445
" clip-path="url(#pf7670f4798)" style="fill: none; stroke: #ffffff; stroke-linecap: round"/>
     </g>
     <g id="text_13">
      <!-- 15400 -->
      <g style="fill: #262626" transform="translate(22.6375 44.664445) scale(0.11 -0.11)">
       <use xlink:href="#Roboto-Regular-31"/>
       <use xlink:href="#Roboto-Regular-35" x="56.152344"/>
       <use xlink:href="#Roboto-Regular-34" x="112.304688"/>
       <use xlink:href="#Roboto-Regular-30" x="168.457031"/>
       <use xlink:href="#Roboto-Regular-30" x="224.609375"/>
      </g>
     </g>
    </g>
    <g id="text_14">
     <!-- Federal Tax -->
     <g style="fill: #262626" transform="translate(16.2 187.94) rotate(-90) scale(0.12 -0.12)">
      <defs>
       <path id="Roboto-Regular-46" d="M 3038 2009
L 1128 2009
L 1128 0
L 528 0
L 528 4550
L 3347 4550
L 3347 4056
L 1128 4056
L 1128 2500
L 3038 2500
L 3038 2009
z
" transform="scale(0.015625)"/>
       <path id="Roboto-Regular-64" d="M 297 1719
Q 297 2497 665 2970
Q 1034 3444 1631 3444
Q 2225 3444 2572 3038
L 2572 4800
L 3150 4800
L 3150 0
L 2619 0
L 2591 363
Q 2244 -63 1625 -63
Q 1038 -63 667 418
Q 297 900 297 1675
L 297 1719
z
M 875 1653
Q 875 1078 1112 753
Q 1350 428 1769 428
Q 2319 428 2572 922
L 2572 2475
Q 2313 2953 1775 2953
Q 1350 2953 1112 2625
Q 875 2297 875 1653
z
" transform="scale(0.015625)"/>
       <path id="Roboto-Regular-6c" d="M 1066 0
L 488 0
L 488 4800
L 1066 4800
L 1066 0
z
" transform="scale(0.015625)"/>
       <path id="Roboto-Regular-20" transform="scale(0.015625)"/>
       <path id="Roboto-Regular-54" d="M 3672 4056
L 2209 4056
L 2209 0
L 1613 0
L 1613 4056
L 153 4056
L 153 4550
L 3672 4550
L 3672 4056
z
" transform="scale(0.015625)"/>
       <path id="Roboto-Regular-78" d="M 1572 2147
L 2322 3381
L 2997 3381
L 1891 1709
L 3031 0
L 2363 0
L 1581 1266
L 800 0
L 128 0
L 1269 1709
L 163 3381
L 831 3381
L 1572 2147
z
" transform="scale(0.015625)"/>
      </defs>
      <use xlink:href="#Roboto-Regular-46"/>
      <use xlink:href="#Roboto-Regular-65" x="55.273438"/>
      <use xlink:href="#Roboto-Regular-64" x="108.251953"/>
      <use xlink:href="#Roboto-Regular-65" x="164.648438"/>
      <use xlink:href="#Roboto-Regular-72" x="217.626953"/>
      <use xlink:href="#Roboto-Regular-61" x="251.464844"/>
      <use xlink:href="#Roboto-Regular-6c" x="305.859375"/>
      <use xlink:href="#Roboto-Regular-20" x="330.126953"/>
      <use xlink:href="#Roboto-Regular-54" x="354.882812"/>
      <use xlink:href="#Roboto-Regular-61" x="414.550781"/>
      <use xlink:href="#Roboto-Regular-78" x="468.945312"/>
     </g>
    </g>
   </g>
   <g id="PathCollection_1">
    <path d="M 100.929094 37.439006
C 101.724703 37.439006 102.487833 37.122907 103.050414 36.560326
C 103.612995 35.997745 103.929094 35.234615 103.929094 34.439006
C 103.929094 33.643396 103.612995 32.880266 103.050414 32.317685
C 102.487833 31.755105 101.724703 31.439006 100.929094 31.439006
C 100.133484 31.439006 99.370354 31.755105 98.807773 32.317685
C 98.245193 32.880266 97.929094 33.643396 97.929094 34.439006
C 97.929094 35.234615 98.245193 35.997745 98.807773 36.560326
C 99.370354 37.122907 100.133484 37.439006 100.929094 37.439006
z
" clip-path="url(#pf7670f4798)" style="fill: #4c72b0; stroke: #4c72b0; stroke-width: 0.5"/>
    <path d="M 176.740406 99.587228
C 177.536016 99.587228 178.299146 99.271129 178.861727 98.708548
C 179.424307 98.145967 179.740406 97.382837 179.740406 96.587228
C 179.740406 95.791618 179.424307 95.028488 178.861727 94.465907
C 178.299146 93.903327 177.536016 93.587228 176.740406 93.587228
C 175.944797 93.587228 175.181667 93.903327 174.619086 94.465907
C 174.056505 95.028488 173.740406 95.791618 173.740406 96.587228
C 173.740406 97.382837 174.056505 98.145967 174.619086 98.708548
C 175.181667 99.271129 175.944797 99.587228 176.740406 99.587228
z
" clip-path="url(#pf7670f4798)" style="fill: #4c72b0; stroke: #4c72b0; stroke-width: 0.5"/>
    <path d="M 252.551719 154.109901
C 253.347328 154.109901 254.110458 153.793802 254.673039 153.231221
C 255.23562 152.668641 255.551719 151.90551 255.551719 151.109901
C 255.551719 150.314292 255.23562 149.551161 254.673039 148.988581
C 254.110458 148.426 253.347328 148.109901 252.551719 148.109901
C 251.756109 148.109901 250.992979 148.426 250.430398 148.988581
C 249.867818 149.551161 249.551719 150.314292 249.551719 151.109901
C 249.551719 151.90551 249.867818 152.668641 250.430398 153.231221
C 250.992979 153.793802 251.756109 154.109901 252.551719 154.109901
z
" clip-path="url(#pf7670f4798)" style="fill: #4c72b0; stroke: #4c72b0; stroke-width: 0.5"/>
    <path d="M 328.363031 190.331257
C 329.158641 190.331257 329.921771 190.015158 330.484352 189.452578
C 331.046932 188.889997 331.363031 188.126867 331.363031 187.331257
C 331.363031 186.535648 331.046932 185.772518 330.484352 185.209937
C 329.921771 184.647356 329.158641 184.331257 328.363031 184.331257
C 327.567422 184.331257 326.804292 184.647356 326.241711 185.209937
C 325.67913 185.772518 325.363031 186.535648 325.363031 187.331257
C 325.363031 188.126867 325.67913 188.889997 326.241711 189.452578
C 326.804292 190.015158 327.567422 190.331257 328.363031 190.331257
z
" clip-path="url(#pf7670f4798)" style="fill: #4c72b0; stroke: #4c72b0; stroke-width: 0.5"/>
    <path d="M 404.174344 282.219119
C 404.969953 282.219119 405.733083 281.90302 406.295664 281.34044
C 406.858245 280.777859 407.174344 280.014729 407.174344 279.219119
C 407.174344 278.42351 406.858245 277.66038 406.295664 277.097799
C 405.733083 276.535218 404.969953 276.219119 404.174344 276.219119
C 403.378734 276.219119 402.615604 276.535218 402.053023 277.097799
C 401.490443 277.66038 401.174344 278.42351 401.174344 279.219119
C 401.174344 280.014729 401.490443 280.777859 402.053023 281.34044
C 402.615604 281.90302 403.378734 282.219119 404.174344 282.219119
z
" clip-path="url(#pf7670f4798)" style="fill: #4c72b0; stroke: #4c72b0; stroke-width: 0.5"/>
   </g>
   <g id="line2d_8">
    <path d="M 100.929094 34.439006
L 176.740406 96.587228
L 252.551719 151.109901
L 328.363031 187.331257
L 404.174344 279.219119
" clip-path="url(#pf7670f4798)" style="fill: none; stroke: #4c72b0; stroke-width: 1.5; stroke-linecap: round"/>
   </g>
   <g id="patch_3">
    <path d="M 63.023438 291.458125
L 63.023438 22.2
" style="fill: none; stroke: #ffffff; stroke-width: 1.25; stroke-linejoin: miter; stroke-linecap: square"/>
   </g>
   <g id="patch_4">
    <path d="M 442.08 291.458125
L 442.08 22.2
" style="fill: none; stroke: #ffffff; stroke-width: 1.25; stroke-linejoin: miter; stroke-linecap: square"/>
   </g>
   <g id="patch_5">
    <path d="M 63.023437 291.458125
L 442.08 291.458125
" style="fill: none; stroke: #ffffff; stroke-width: 1.25; stroke-linejoin: miter; stroke-linecap: square"/>
   </g>
   <g id="patch_6">
    <path d="M 63.023437 22.2
L 442.08 22.2
" style="fill: none; stroke: #ffffff; stroke-width: 1.25; stroke-linejoin: miter; stroke-linecap: square"/>
   </g>
   <g id="text_15">
    <!-- Federal Tax on $100K W2 Income Over Time -->
    <g transform="translate(134.209219 16.2) scale(0.12 -0.12)">
     <defs>
      <path id="Roboto-Regular-6f" d="M 284 1722
Q 284 2219 479 2616
Q 675 3013 1023 3228
Q 1372 3444 1819 3444
Q 2509 3444 2936 2966
Q 3363 2488 3363 1694
L 3363 1653
Q 3363 1159 3173 767
Q 2984 375 2632 156
Q 2281 -63 1825 -63
Q 1138 -63 711 415
Q 284 894 284 1681
L 284 1722
z
M 866 1653
Q 866 1091 1127 750
Q 1388 409 1825 409
Q 2266 409 2525 754
Q 2784 1100 2784 1722
Q 2784 2278 2520 2623
Q 2256 2969 1819 2969
Q 1391 2969 1128 2628
Q 866 2288 866 1653
z
" transform="scale(0.015625)"/>
      <path id="Roboto-Regular-6e" d="M 984 3381
L 1003 2956
Q 1391 3444 2016 3444
Q 3088 3444 3097 2234
L 3097 0
L 2519 0
L 2519 2238
Q 2516 2603 2352 2778
Q 2188 2953 1841 2953
Q 1559 2953 1346 2803
Q 1134 2653 1016 2409
L 1016 0
L 438 0
L 438 3381
L 984 3381
z
" transform="scale(0.015625)"/>
      <path id="Roboto-Regular-24" d="M 2675 1172
Q 2675 1459 2473 1656
Q 2272 1853 1794 2013
Q 1128 2216 823 2542
Q 519 2869 519 3372
Q 519 3884 817 4212
Q 1116 4541 1638 4603
L 1638 5288
L 2103 5288
L 2103 4600
Q 2628 4528 2920 4159
Q 3213 3791 3213 3150
L 2638 3150
Q 2638 3591 2428 3850
Q 2219 4109 1863 4109
Q 1491 4109 1294 3917
Q 1097 3725 1097 3381
Q 1097 3063 1305 2873
Q 1513 2684 1989 2529
Q 2466 2375 2733 2189
Q 3000 2003 3126 1756
Q 3253 1509 3253 1178
Q 3253 650 2936 328
Q 2619 6 2047 -53
L 2047 -650
L 1584 -650
L 1584 -53
Q 1003 0 673 361
Q 344 722 344 1341
L 922 1341
Q 922 906 1150 672
Q 1378 438 1797 438
Q 2206 438 2440 634
Q 2675 831 2675 1172
z
" transform="scale(0.015625)"/>
      <path id="Roboto-Regular-4b" d="M 1684 2116
L 1128 1538
L 1128 0
L 528 0
L 528 4550
L 1128 4550
L 1128 2300
L 3150 4550
L 3875 4550
L 2084 2541
L 4016 0
L 3297 0
L 1684 2116
z
" transform="scale(0.015625)"/>
      <path id="Roboto-Regular-57" d="M 1509 1434
L 1597 834
L 1725 1375
L 2625 4550
L 3131 4550
L 4009 1375
L 4134 825
L 4231 1438
L 4938 4550
L 5541 4550
L 4438 0
L 3891 0
L 2953 3316
L 2881 3663
L 2809 3316
L 1838 0
L 1291 0
L 191 4550
L 791 4550
L 1509 1434
z
" transform="scale(0.015625)"/>
      <path id="Roboto-Regular-49" d="M 1172 0
L 572 0
L 572 4550
L 1172 4550
L 1172 0
z
" transform="scale(0.015625)"/>
      <path id="Roboto-Regular-63" d="M 1794 409
Q 2103 409 2334 596
Q 2566 784 2591 1066
L 3138 1066
Q 3122 775 2937 512
Q 2753 250 2445 93
Q 2138 -63 1794 -63
Q 1103 -63 695 398
Q 288 859 288 1659
L 288 1756
Q 288 2250 469 2634
Q 650 3019 989 3231
Q 1328 3444 1791 3444
Q 2359 3444 2736 3103
Q 3113 2763 3138 2219
L 2591 2219
Q 2566 2547 2342 2758
Q 2119 2969 1791 2969
Q 1350 2969 1108 2651
Q 866 2334 866 1734
L 866 1625
Q 866 1041 1106 725
Q 1347 409 1794 409
z
" transform="scale(0.015625)"/>
      <path id="Roboto-Regular-6d" d="M 981 3381
L 997 3006
Q 1369 3444 2000 3444
Q 2709 3444 2966 2900
Q 3134 3144 3404 3294
Q 3675 3444 4044 3444
Q 5156 3444 5175 2266
L 5175 0
L 4597 0
L 4597 2231
Q 4597 2594 4431 2773
Q 4266 2953 3875 2953
Q 3553 2953 3340 2761
Q 3128 2569 3094 2244
L 3094 0
L 2513 0
L 2513 2216
Q 2513 2953 1791 2953
Q 1222 2953 1013 2469
L 1013 0
L 434 0
L 434 3381
L 981 3381
z
" transform="scale(0.015625)"/>
      <path id="Roboto-Regular-4f" d="M 4028 2128
Q 4028 1459 3803 961
Q 3578 463 3165 200
Q 2753 -63 2203 -63
Q 1666 -63 1250 201
Q 834 466 604 955
Q 375 1444 369 2088
L 369 2416
Q 369 3072 597 3575
Q 825 4078 1242 4345
Q 1659 4613 2197 4613
Q 2744 4613 3161 4348
Q 3578 4084 3803 3582
Q 4028 3081 4028 2416
L 4028 2128
z
M 3431 2422
Q 3431 3231 3106 3664
Q 2781 4097 2197 4097
Q 1628 4097 1301 3664
Q 975 3231 966 2463
L 966 2128
Q 966 1344 1295 895
Q 1625 447 2203 447
Q 2784 447 3103 870
Q 3422 1294 3431 2084
L 3431 2422
z
" transform="scale(0.015625)"/>
      <path id="Roboto-Regular-76" d="M 1553 784
L 2391 3381
L 2981 3381
L 1769 0
L 1328 0
L 103 3381
L 694 3381
L 1553 784
z
" transform="scale(0.015625)"/>
      <path id="Roboto-Regular-69" d="M 1066 0
L 488 0
L 488 3381
L 1066 3381
L 1066 0
z
M 441 4278
Q 441 4419 527 4516
Q 613 4613 781 4613
Q 950 4613 1037 4516
Q 1125 4419 1125 4278
Q 1125 4138 1037 4044
Q 950 3950 781 3950
Q 613 3950 527 4044
Q 441 4138 441 4278
z
" transform="scale(0.015625)"/>
     </defs>
     <use xlink:href="#Roboto-Regular-46"/>
     <use xlink:href="#Roboto-Regular-65" x="55.273438"/>
     <use xlink:href="#Roboto-Regular-64" x="108.251953"/>
     <use xlink:href="#Roboto-Regular-65" x="164.648438"/>
     <use xlink:href="#Roboto-Regular-72" x="217.626953"/>
     <use xlink:href="#Roboto-Regular-61" x="251.464844"/>
     <use xlink:href="#Roboto-Regular-6c" x="305.859375"/>
     <use xlink:href="#Roboto-Regular-20" x="330.126953"/>
     <use xlink:href="#Roboto-Regular-54" x="354.882812"/>
     <use xlink:href="#Roboto-Regular-61" x="414.550781"/>
     <use xlink:href="#Roboto-Regular-78" x="468.945312"/>
     <use xlink:href="#Roboto-Regular-20" x="518.505859"/>
     <use xlink:href="#Roboto-Regular-6f" x="543.261719"/>
     <use xlink:href="#Roboto-Regular-6e" x="600.292969"/>
     <use xlink:href="#Roboto-Regular-20" x="655.46875"/>
     <use xlink:href="#Roboto-Regular-24" x="680.224609"/>
     <use xlink:href="#Roboto-Regular-31" x="736.376953"/>
     <use xlink:href="#Roboto-Regular-30" x="792.529297"/>
     <use xlink:href="#Roboto-Regular-30" x="848.681641"/>
     <use xlink:href="#Roboto-Regular-4b" x="904.833984"/>
     <use xlink:href="#Roboto-Regular-20" x="967.529297"/>
     <use xlink:href="#Roboto-Regular-57" x="992.285156"/>
     <use xlink:href="#Roboto-Regular-32" x="1081.005859"/>
     <use xlink:href="#Roboto-Regular-20" x="1137.158203"/>
     <use xlink:href="#Roboto-Regular-49" x="1161.914062"/>
     <use xlink:href="#Roboto-Regular-6e" x="1189.111328"/>
     <use xlink:href="#Roboto-Regular-63" x="1244.287109"/>
     <use xlink:href="#Roboto-Regular-6f" x="1296.630859"/>
     <use xlink:href="#Roboto-Regular-6d" x="1353.662109"/>
     <use xlink:href="#Roboto-Regular-65" x="1441.308594"/>
     <use xlink:href="#Roboto-Regular-20" x="1494.287109"/>
     <use xlink:href="#Roboto-Regular-4f" x="1519.042969"/>
     <use xlink:href="#Roboto-Regular-76" x="1587.792969"/>
     <use xlink:href="#Roboto-Regular-65" x="1636.230469"/>
     <use xlink:href="#Roboto-Regular-72" x="1689.208984"/>
     <use xlink:href="#Roboto-Regular-20" x="1723.046875"/>
     <use xlink:href="#Roboto-Regular-54" x="1747.802734"/>
     <use xlink:href="#Roboto-Regular-69" x="1807.470703"/>
     <use xlink:href="#Roboto-Regular-6d" x="1831.738281"/>
     <use xlink:href="#Roboto-Regular-65" x="1919.384766"/>
    </g>
   </g>
  </g>
 </g>
 <defs>
  <clipPath id="pf7670f4798">
   <rect x="63.023438" y="22.2" width="379.056562" height="269.258125"/>
  </clipPath>
 </defs>
</svg>
