<?xml version="1.0" encoding="utf-8" standalone="no"?>
<!DOCTYPE svg PUBLIC "-//W3C//DTD SVG 1.1//EN"
  "http://www.w3.org/Graphics/SVG/1.1/DTD/svg11.dtd">
<svg xmlns:xlink="http://www.w3.org/1999/xlink" width="460.8pt" height="345.6pt" viewBox="0 0 460.8 345.6" xmlns="http://www.w3.org/2000/svg" version="1.1">
 <metadata>
  <rdf:RDF xmlns:dc="http://purl.org/dc/elements/1.1/" xmlns:cc="http://creativecommons.org/ns#" xmlns:rdf="http://www.w3.org/1999/02/22-rdf-syntax-ns#">
   <cc:Work>
    <dc:type rdf:resource="http://purl.org/dc/dcmitype/StillImage"/>
    <dc:date>2024-02-11T13:13:27.912386</dc:date>
    <dc:format>image/svg+xml</dc:format>
    <dc:creator>
     <cc:Agent>
      <dc:title>Matplotlib v3.8.2, https://matplotlib.org/</dc:title>
     </cc:Agent>
    </dc:creator>
   </cc:Work>
  </rdf:RDF>
 </metadata>
 <defs>
  <style type="text/css">*{stroke-linejoin: round; stroke-linecap: butt}</style>
 </defs>
 <g id="figure_1">
  <g id="patch_1">
   <path d="M 0 345.6
L 460.8 345.6
L 460.8 0
L 0 0
z
" style="fill: #ffffff"/>
  </g>
  <g id="axes_1">
   <g id="patch_2">
    <path d="M 73.0675 296.880312
L 447.84 296.880312
L 447.84 28.078125
L 73.0675 28.078125
z
" style="fill: #eaeaf2"/>
   </g>
   <g id="matplotlib.axis_1">
    <g id="xtick_1">
     <g id="text_1">
      <!-- 2018 -->
      <g style="fill: #262626" transform="translate(96.54725 314.738594) scale(0.11 -0.11)">
       <defs>
        <path id="DejaVuSans-32" d="M 1228 531
L 3431 531
L 3431 0
L 469 0
L 469 531
Q 828 903 1448 1529
Q 2069 2156 2228 2338
Q 2531 2678 2651 2914
Q 2772 3150 2772 3378
Q 2772 3750 2511 3984
Q 2250 4219 1831 4219
Q 1534 4219 1204 4116
Q 875 4013 500 3803
L 500 4441
Q 881 4594 1212 4672
Q 1544 4750 1819 4750
Q 2544 4750 2975 4387
Q 3406 4025 3406 3419
Q 3406 3131 3298 2873
Q 3191 2616 2906 2266
Q 2828 2175 2409 1742
Q 1991 1309 1228 531
z
" transform="scale(0.015625)"/>
        <path id="DejaVuSans-30" d="M 2034 4250
Q 1547 4250 1301 3770
Q 1056 3291 1056 2328
Q 1056 1369 1301 889
Q 1547 409 2034 409
Q 2525 409 2770 889
Q 3016 1369 3016 2328
Q 3016 3291 2770 3770
Q 2525 4250 2034 4250
z
M 2034 4750
Q 2819 4750 3233 4129
Q 3647 3509 3647 2328
Q 3647 1150 3233 529
Q 2819 -91 2034 -91
Q 1250 -91 836 529
Q 422 1150 422 2328
Q 422 3509 836 4129
Q 1250 4750 2034 4750
z
" transform="scale(0.015625)"/>
        <path id="DejaVuSans-31" d="M 794 531
L 1825 531
L 1825 4091
L 703 3866
L 703 4441
L 1819 4666
L 2450 4666
L 2450 531
L 3481 531
L 3481 0
L 794 0
L 794 531
z
" transform="scale(0.015625)"/>
        <path id="DejaVuSans-38" d="M 2034 2216
Q 1584 2216 1326 1975
Q 1069 1734 1069 1313
Q 1069 891 1326 650
Q 1584 409 2034 409
Q 2484 409 2743 651
Q 3003 894 3003 1313
Q 3003 1734 2745 1975
Q 2488 2216 2034 2216
z
M 1403 2484
Q 997 2584 770 2862
Q 544 3141 544 3541
Q 544 4100 942 4425
Q 1341 4750 2034 4750
Q 2731 4750 3128 4425
Q 3525 4100 3525 3541
Q 3525 3141 3298 2862
Q 3072 2584 2669 2484
Q 3125 2378 3379 2068
Q 3634 1759 3634 1313
Q 3634 634 3220 271
Q 2806 -91 2034 -91
Q 1263 -91 848 271
Q 434 634 434 1313
Q 434 1759 690 2068
Q 947 2378 1403 2484
z
M 1172 3481
Q 1172 3119 1398 2916
Q 1625 2713 2034 2713
Q 2441 2713 2670 2916
Q 2900 3119 2900 3481
Q 2900 3844 2670 4047
Q 2441 4250 2034 4250
Q 1625 4250 1398 4047
Q 1172 3844 1172 3481
z
" transform="scale(0.015625)"/>
       </defs>
       <use xlink:href="#DejaVuSans-32"/>
       <use xlink:href="#DejaVuSans-30" x="63.623047"/>
       <use xlink:href="#DejaVuSans-31" x="127.246094"/>
       <use xlink:href="#DejaVuSans-38" x="190.869141"/>
      </g>
     </g>
    </g>
    <g id="xtick_2">
     <g id="text_2">
      <!-- 2019 -->
      <g style="fill: #262626" transform="translate(171.50175 314.738594) scale(0.11 -0.11)">
       <defs>
        <path id="DejaVuSans-39" d="M 703 97
L 703 672
Q 941 559 1184 500
Q 1428 441 1663 441
Q 2288 441 2617 861
Q 2947 1281 2994 2138
Q 2813 1869 2534 1725
Q 2256 1581 1919 1581
Q 1219 1581 811 2004
Q 403 2428 403 3163
Q 403 3881 828 4315
Q 1253 4750 1959 4750
Q 2769 4750 3195 4129
Q 3622 3509 3622 2328
Q 3622 1225 3098 567
Q 2575 -91 1691 -91
Q 1453 -91 1209 -44
Q 966 3 703 97
z
M 1959 2075
Q 2384 2075 2632 2365
Q 2881 2656 2881 3163
Q 2881 3666 2632 3958
Q 2384 4250 1959 4250
Q 1534 4250 1286 3958
Q 1038 3666 1038 3163
Q 1038 2656 1286 2365
Q 1534 2075 1959 2075
z
" transform="scale(0.015625)"/>
       </defs>
       <use xlink:href="#DejaVuSans-32"/>
       <use xlink:href="#DejaVuSans-30" x="63.623047"/>
       <use xlink:href="#DejaVuSans-31" x="127.246094"/>
       <use xlink:href="#DejaVuSans-39" x="190.869141"/>
      </g>
     </g>
    </g>
    <g id="xtick_3">
     <g id="text_3">
      <!-- 2020 -->
      <g style="fill: #262626" transform="translate(246.45625 314.738594) scale(0.11 -0.11)">
       <use xlink:href="#DejaVuSans-32"/>
       <use xlink:href="#DejaVuSans-30" x="63.623047"/>
       <use xlink:href="#DejaVuSans-32" x="127.246094"/>
       <use xlink:href="#DejaVuSans-30" x="190.869141"/>
      </g>
     </g>
    </g>
    <g id="xtick_4">
     <g id="text_4">
      <!-- 2021 -->
      <g style="fill: #262626" transform="translate(321.41075 314.738594) scale(0.11 -0.11)">
       <use xlink:href="#DejaVuSans-32"/>
       <use xlink:href="#DejaVuSans-30" x="63.623047"/>
       <use xlink:href="#DejaVuSans-32" x="127.246094"/>
       <use xlink:href="#DejaVuSans-31" x="190.869141"/>
      </g>
     </g>
    </g>
    <g id="xtick_5">
     <g id="text_5">
      <!-- 2022 -->
      <g style="fill: #262626" transform="translate(396.36525 314.738594) scale(0.11 -0.11)">
       <use xlink:href="#DejaVuSans-32"/>
       <use xlink:href="#DejaVuSans-30" x="63.623047"/>
       <use xlink:href="#DejaVuSans-32" x="127.246094"/>
       <use xlink:href="#DejaVuSans-32" x="190.869141"/>
      </g>
     </g>
    </g>
    <g id="text_6">
     <!-- Year -->
     <g style="fill: #262626" transform="translate(247.74875 330.144375) scale(0.12 -0.12)">
      <defs>
       <path id="DejaVuSans-59" d="M -13 4666
L 666 4666
L 1959 2747
L 3244 4666
L 3922 4666
L 2272 2222
L 2272 0
L 1638 0
L 1638 2222
L -13 4666
z
" transform="scale(0.015625)"/>
       <path id="DejaVuSans-65" d="M 3597 1894
L 3597 1613
L 953 1613
Q 991 1019 1311 708
Q 1631 397 2203 397
Q 2534 397 2845 478
Q 3156 559 3463 722
L 3463 178
Q 3153 47 2828 -22
Q 2503 -91 2169 -91
Q 1331 -91 842 396
Q 353 884 353 1716
Q 353 2575 817 3079
Q 1281 3584 2069 3584
Q 2775 3584 3186 3129
Q 3597 2675 3597 1894
z
M 3022 2063
Q 3016 2534 2758 2815
Q 2500 3097 2075 3097
Q 1594 3097 1305 2825
Q 1016 2553 972 2059
L 3022 2063
z
" transform="scale(0.015625)"/>
       <path id="DejaVuSans-61" d="M 2194 1759
Q 1497 1759 1228 1600
Q 959 1441 959 1056
Q 959 750 1161 570
Q 1363 391 1709 391
Q 2188 391 2477 730
Q 2766 1069 2766 1631
L 2766 1759
L 2194 1759
z
M 3341 1997
L 3341 0
L 2766 0
L 2766 531
Q 2569 213 2275 61
Q 1981 -91 1556 -91
Q 1019 -91 701 211
Q 384 513 384 1019
Q 384 1609 779 1909
Q 1175 2209 1959 2209
L 2766 2209
L 2766 2266
Q 2766 2663 2505 2880
Q 2244 3097 1772 3097
Q 1472 3097 1187 3025
Q 903 2953 641 2809
L 641 3341
Q 956 3463 1253 3523
Q 1550 3584 1831 3584
Q 2591 3584 2966 3190
Q 3341 2797 3341 1997
z
" transform="scale(0.015625)"/>
       <path id="DejaVuSans-72" d="M 2631 2963
Q 2534 3019 2420 3045
Q 2306 3072 2169 3072
Q 1681 3072 1420 2755
Q 1159 2438 1159 1844
L 1159 0
L 581 0
L 581 3500
L 1159 3500
L 1159 2956
Q 1341 3275 1631 3429
Q 1922 3584 2338 3584
Q 2397 3584 2469 3576
Q 2541 3569 2628 3553
L 2631 2963
z
" transform="scale(0.015625)"/>
      </defs>
      <use xlink:href="#DejaVuSans-59"/>
      <use xlink:href="#DejaVuSans-65" x="47.833984"/>
      <use xlink:href="#DejaVuSans-61" x="109.357422"/>
      <use xlink:href="#DejaVuSans-72" x="170.636719"/>
     </g>
    </g>
   </g>
   <g id="matplotlib.axis_2">
    <g id="ytick_1">
     <g id="line2d_1">
      <path d="M 73.0675 274.765604
L 447.84 274.765604
" clip-path="url(#p52d6759a8d)" style="fill: none; stroke: #ffffff; stroke-linecap: round"/>
     </g>
     <g id="text_7">
      <!-- 14800 -->
      <g style="fill: #262626" transform="translate(28.57375 278.944745) scale(0.11 -0.11)">
       <defs>
        <path id="DejaVuSans-34" d="M 2419 4116
L 825 1625
L 2419 1625
L 2419 4116
z
M 2253 4666
L 3047 4666
L 3047 1625
L 3713 1625
L 3713 1100
L 3047 1100
L 3047 0
L 2419 0
L 2419 1100
L 313 1100
L 313 1709
L 2253 4666
z
" transform="scale(0.015625)"/>
       </defs>
       <use xlink:href="#DejaVuSans-31"/>
       <use xlink:href="#DejaVuSans-34" x="63.623047"/>
       <use xlink:href="#DejaVuSans-38" x="127.246094"/>
       <use xlink:href="#DejaVuSans-30" x="190.869141"/>
       <use xlink:href="#DejaVuSans-30" x="254.492188"/>
      </g>
     </g>
    </g>
    <g id="ytick_2">
     <g id="line2d_2">
      <path d="M 73.0675 236.702423
L 447.84 236.702423
" clip-path="url(#p52d6759a8d)" style="fill: none; stroke: #ffffff; stroke-linecap: round"/>
     </g>
     <g id="text_8">
      <!-- 14900 -->
      <g style="fill: #262626" transform="translate(28.57375 240.881563) scale(0.11 -0.11)">
       <use xlink:href="#DejaVuSans-31"/>
       <use xlink:href="#DejaVuSans-34" x="63.623047"/>
       <use xlink:href="#DejaVuSans-39" x="127.246094"/>
       <use xlink:href="#DejaVuSans-30" x="190.869141"/>
       <use xlink:href="#DejaVuSans-30" x="254.492188"/>
      </g>
     </g>
    </g>
    <g id="ytick_3">
     <g id="line2d_3">
      <path d="M 73.0675 198.639241
L 447.84 198.639241
" clip-path="url(#p52d6759a8d)" style="fill: none; stroke: #ffffff; stroke-linecap: round"/>
     </g>
     <g id="text_9">
      <!-- 15000 -->
      <g style="fill: #262626" transform="translate(28.57375 202.818382) scale(0.11 -0.11)">
       <defs>
        <path id="DejaVuSans-35" d="M 691 4666
L 3169 4666
L 3169 4134
L 1269 4134
L 1269 2991
Q 1406 3038 1543 3061
Q 1681 3084 1819 3084
Q 2600 3084 3056 2656
Q 3513 2228 3513 1497
Q 3513 744 3044 326
Q 2575 -91 1722 -91
Q 1428 -91 1123 -41
Q 819 9 494 109
L 494 744
Q 775 591 1075 516
Q 1375 441 1709 441
Q 2250 441 2565 725
Q 2881 1009 2881 1497
Q 2881 1984 2565 2268
Q 2250 2553 1709 2553
Q 1456 2553 1204 2497
Q 953 2441 691 2322
L 691 4666
z
" transform="scale(0.015625)"/>
       </defs>
       <use xlink:href="#DejaVuSans-31"/>
       <use xlink:href="#DejaVuSans-35" x="63.623047"/>
       <use xlink:href="#DejaVuSans-30" x="127.246094"/>
       <use xlink:href="#DejaVuSans-30" x="190.869141"/>
       <use xlink:href="#DejaVuSans-30" x="254.492188"/>
      </g>
     </g>
    </g>
    <g id="ytick_4">
     <g id="line2d_4">
      <path d="M 73.0675 160.57606
L 447.84 160.57606
" clip-path="url(#p52d6759a8d)" style="fill: none; stroke: #ffffff; stroke-linecap: round"/>
     </g>
     <g id="text_10">
      <!-- 15100 -->
      <g style="fill: #262626" transform="translate(28.57375 164.7552) scale(0.11 -0.11)">
       <use xlink:href="#DejaVuSans-31"/>
       <use xlink:href="#DejaVuSans-35" x="63.623047"/>
       <use xlink:href="#DejaVuSans-31" x="127.246094"/>
       <use xlink:href="#DejaVuSans-30" x="190.869141"/>
       <use xlink:href="#DejaVuSans-30" x="254.492188"/>
      </g>
     </g>
    </g>
    <g id="ytick_5">
     <g id="line2d_5">
      <path d="M 73.0675 122.512878
L 447.84 122.512878
" clip-path="url(#p52d6759a8d)" style="fill: none; stroke: #ffffff; stroke-linecap: round"/>
     </g>
     <g id="text_11">
      <!-- 15200 -->
      <g style="fill: #262626" transform="translate(28.57375 126.692019) scale(0.11 -0.11)">
       <use xlink:href="#DejaVuSans-31"/>
       <use xlink:href="#DejaVuSans-35" x="63.623047"/>
       <use xlink:href="#DejaVuSans-32" x="127.246094"/>
       <use xlink:href="#DejaVuSans-30" x="190.869141"/>
       <use xlink:href="#DejaVuSans-30" x="254.492188"/>
      </g>
     </g>
    </g>
    <g id="ytick_6">
     <g id="line2d_6">
      <path d="M 73.0675 84.449697
L 447.84 84.449697
" clip-path="url(#p52d6759a8d)" style="fill: none; stroke: #ffffff; stroke-linecap: round"/>
     </g>
     <g id="text_12">
      <!-- 15300 -->
      <g style="fill: #262626" transform="translate(28.57375 88.628837) scale(0.11 -0.11)">
       <defs>
        <path id="DejaVuSans-33" d="M 2597 2516
Q 3050 2419 3304 2112
Q 3559 1806 3559 1356
Q 3559 666 3084 287
Q 2609 -91 1734 -91
Q 1441 -91 1130 -33
Q 819 25 488 141
L 488 750
Q 750 597 1062 519
Q 1375 441 1716 441
Q 2309 441 2620 675
Q 2931 909 2931 1356
Q 2931 1769 2642 2001
Q 2353 2234 1838 2234
L 1294 2234
L 1294 2753
L 1863 2753
Q 2328 2753 2575 2939
Q 2822 3125 2822 3475
Q 2822 3834 2567 4026
Q 2313 4219 1838 4219
Q 1578 4219 1281 4162
Q 984 4106 628 3988
L 628 4550
Q 988 4650 1302 4700
Q 1616 4750 1894 4750
Q 2613 4750 3031 4423
Q 3450 4097 3450 3541
Q 3450 3153 3228 2886
Q 3006 2619 2597 2516
z
" transform="scale(0.015625)"/>
       </defs>
       <use xlink:href="#DejaVuSans-31"/>
       <use xlink:href="#DejaVuSans-35" x="63.623047"/>
       <use xlink:href="#DejaVuSans-33" x="127.246094"/>
       <use xlink:href="#DejaVuSans-30" x="190.869141"/>
       <use xlink:href="#DejaVuSans-30" x="254.492188"/>
      </g>
     </g>
    </g>
    <g id="ytick_7">
     <g id="line2d_7">
      <path d="M 73.0675 46.386515
L 447.84 46.386515
" clip-path="url(#p52d6759a8d)" style="fill: none; stroke: #ffffff; stroke-linecap: round"/>
     </g>
     <g id="text_13">
      <!-- 15400 -->
      <g style="fill: #262626" transform="translate(28.57375 50.565656) scale(0.11 -0.11)">
       <use xlink:href="#DejaVuSans-31"/>
       <use xlink:href="#DejaVuSans-35" x="63.623047"/>
       <use xlink:href="#DejaVuSans-34" x="127.246094"/>
       <use xlink:href="#DejaVuSans-30" x="190.869141"/>
       <use xlink:href="#DejaVuSans-30" x="254.492188"/>
      </g>
     </g>
    </g>
    <g id="text_14">
     <!-- Federal Tax -->
     <g style="fill: #262626" transform="translate(22.078125 196.412969) rotate(-90) scale(0.12 -0.12)">
      <defs>
       <path id="DejaVuSans-46" d="M 628 4666
L 3309 4666
L 3309 4134
L 1259 4134
L 1259 2759
L 3109 2759
L 3109 2228
L 1259 2228
L 1259 0
L 628 0
L 628 4666
z
" transform="scale(0.015625)"/>
       <path id="DejaVuSans-64" d="M 2906 2969
L 2906 4863
L 3481 4863
L 3481 0
L 2906 0
L 2906 525
Q 2725 213 2448 61
Q 2172 -91 1784 -91
Q 1150 -91 751 415
Q 353 922 353 1747
Q 353 2572 751 3078
Q 1150 3584 1784 3584
Q 2172 3584 2448 3432
Q 2725 3281 2906 2969
z
M 947 1747
Q 947 1113 1208 752
Q 1469 391 1925 391
Q 2381 391 2643 752
Q 2906 1113 2906 1747
Q 2906 2381 2643 2742
Q 2381 3103 1925 3103
Q 1469 3103 1208 2742
Q 947 2381 947 1747
z
" transform="scale(0.015625)"/>
       <path id="DejaVuSans-6c" d="M 603 4863
L 1178 4863
L 1178 0
L 603 0
L 603 4863
z
" transform="scale(0.015625)"/>
       <path id="DejaVuSans-20" transform="scale(0.015625)"/>
       <path id="DejaVuSans-54" d="M -19 4666
L 3928 4666
L 3928 4134
L 2272 4134
L 2272 0
L 1638 0
L 1638 4134
L -19 4134
L -19 4666
z
" transform="scale(0.015625)"/>
       <path id="DejaVuSans-78" d="M 3513 3500
L 2247 1797
L 3578 0
L 2900 0
L 1881 1375
L 863 0
L 184 0
L 1544 1831
L 300 3500
L 978 3500
L 1906 2253
L 2834 3500
L 3513 3500
z
" transform="scale(0.015625)"/>
      </defs>
      <use xlink:href="#DejaVuSans-46"/>
      <use xlink:href="#DejaVuSans-65" x="52.019531"/>
      <use xlink:href="#DejaVuSans-64" x="113.542969"/>
      <use xlink:href="#DejaVuSans-65" x="177.019531"/>
      <use xlink:href="#DejaVuSans-72" x="238.542969"/>
      <use xlink:href="#DejaVuSans-61" x="279.65625"/>
      <use xlink:href="#DejaVuSans-6c" x="340.935547"/>
      <use xlink:href="#DejaVuSans-20" x="368.71875"/>
      <use xlink:href="#DejaVuSans-54" x="400.505859"/>
      <use xlink:href="#DejaVuSans-61" x="445.089844"/>
      <use xlink:href="#DejaVuSans-78" x="506.369141"/>
     </g>
    </g>
   </g>
   <g id="PathCollection_1">
    <path d="M 110.54475 43.296406
C 111.340359 43.296406 112.10349 42.980307 112.66607 42.417727
C 113.228651 41.855146 113.54475 41.092016 113.54475 40.296406
C 113.54475 39.500797 113.228651 38.737667 112.66607 38.175086
C 112.10349 37.612505 111.340359 37.296406 110.54475 37.296406
C 109.749141 37.296406 108.98601 37.612505 108.42343 38.175086
C 107.860849 38.737667 107.54475 39.500797 107.54475 40.296406
C 107.54475 41.092016 107.860849 41.855146 108.42343 42.417727
C 108.98601 42.980307 109.749141 43.296406 110.54475 43.296406
z
" clip-path="url(#p52d6759a8d)" style="fill: #4c72b0; stroke: #4c72b0; stroke-width: 0.5"/>
    <path d="M 185.49925 105.339392
C 186.294859 105.339392 187.05799 105.023293 187.62057 104.460712
C 188.183151 103.898132 188.49925 103.135001 188.49925 102.339392
C 188.49925 101.543783 188.183151 100.780652 187.62057 100.218072
C 187.05799 99.655491 186.294859 99.339392 185.49925 99.339392
C 184.703641 99.339392 183.94051 99.655491 183.37793 100.218072
C 182.815349 100.780652 182.49925 101.543783 182.49925 102.339392
C 182.49925 103.135001 182.815349 103.898132 183.37793 104.460712
C 183.94051 105.023293 184.703641 105.339392 185.49925 105.339392
z
" clip-path="url(#p52d6759a8d)" style="fill: #4c72b0; stroke: #4c72b0; stroke-width: 0.5"/>
    <path d="M 260.45375 159.769742
C 261.249359 159.769742 262.01249 159.453643 262.57507 158.891062
C 263.137651 158.328481 263.45375 157.565351 263.45375 156.769742
C 263.45375 155.974132 263.137651 155.211002 262.57507 154.648421
C 262.01249 154.08584 261.249359 153.769742 260.45375 153.769742
C 259.658141 153.769742 258.89501 154.08584 258.33243 154.648421
C 257.769849 155.211002 257.45375 155.974132 257.45375 156.769742
C 257.45375 157.565351 257.769849 158.328481 258.33243 158.891062
C 258.89501 159.453643 259.658141 159.769742 260.45375 159.769742
z
" clip-path="url(#p52d6759a8d)" style="fill: #4c72b0; stroke: #4c72b0; stroke-width: 0.5"/>
    <path d="M 335.40825 195.929764
C 336.203859 195.929764 336.96699 195.613665 337.52957 195.051084
C 338.092151 194.488504 338.40825 193.725373 338.40825 192.929764
C 338.40825 192.134155 338.092151 191.371024 337.52957 190.808444
C 336.96699 190.245863 336.203859 189.929764 335.40825 189.929764
C 334.612641 189.929764 333.84951 190.245863 333.28693 190.808444
C 332.724349 191.371024 332.40825 192.134155 332.40825 192.929764
C 332.40825 193.725373 332.724349 194.488504 333.28693 195.051084
C 333.84951 195.613665 334.612641 195.929764 335.40825 195.929764
z
" clip-path="url(#p52d6759a8d)" style="fill: #4c72b0; stroke: #4c72b0; stroke-width: 0.5"/>
    <path d="M 410.36275 287.662031
C 411.158359 287.662031 411.92149 287.345932 412.48407 286.783352
C 413.046651 286.220771 413.36275 285.457641 413.36275 284.662031
C 413.36275 283.866422 413.046651 283.103292 412.48407 282.540711
C 411.92149 281.97813 411.158359 281.662031 410.36275 281.662031
C 409.567141 281.662031 408.80401 281.97813 408.24143 282.540711
C 407.678849 283.103292 407.36275 283.866422 407.36275 284.662031
C 407.36275 285.457641 407.678849 286.220771 408.24143 286.783352
C 408.80401 287.345932 409.567141 287.662031 410.36275 287.662031
z
" clip-path="url(#p52d6759a8d)" style="fill: #4c72b0; stroke: #4c72b0; stroke-width: 0.5"/>
   </g>
   <g id="line2d_8">
    <path d="M 110.54475 40.296406
L 185.49925 102.339392
L 260.45375 156.769742
L 335.40825 192.929764
L 410.36275 284.662031
" clip-path="url(#p52d6759a8d)" style="fill: none; stroke: #4c72b0; stroke-width: 1.5; stroke-linecap: round"/>
   </g>
   <g id="patch_3">
    <path d="M 73.0675 296.880312
L 73.0675 28.078125
" style="fill: none; stroke: #ffffff; stroke-width: 1.25; stroke-linejoin: miter; stroke-linecap: square"/>
   </g>
   <g id="patch_4">
    <path d="M 447.84 296.880312
L 447.84 28.078125
" style="fill: none; stroke: #ffffff; stroke-width: 1.25; stroke-linejoin: miter; stroke-linecap: square"/>
   </g>
   <g id="patch_5">
    <path d="M 73.0675 296.880312
L 447.84 296.880312
" style="fill: none; stroke: #ffffff; stroke-width: 1.25; stroke-linejoin: miter; stroke-linecap: square"/>
   </g>
   <g id="patch_6">
    <path d="M 73.0675 28.078125
L 447.84 28.078125
" style="fill: none; stroke: #ffffff; stroke-width: 1.25; stroke-linejoin: miter; stroke-linecap: square"/>
   </g>
   <g id="text_15">
    <!-- Federal Tax on $100K W2 Income Over Time -->
    <g transform="translate(127.458125 22.078125) scale(0.12 -0.12)">
     <defs>
      <path id="DejaVuSans-6f" d="M 1959 3097
Q 1497 3097 1228 2736
Q 959 2375 959 1747
Q 959 1119 1226 758
Q 1494 397 1959 397
Q 2419 397 2687 759
Q 2956 1122 2956 1747
Q 2956 2369 2687 2733
Q 2419 3097 1959 3097
z
M 1959 3584
Q 2709 3584 3137 3096
Q 3566 2609 3566 1747
Q 3566 888 3137 398
Q 2709 -91 1959 -91
Q 1206 -91 779 398
Q 353 888 353 1747
Q 353 2609 779 3096
Q 1206 3584 1959 3584
z
" transform="scale(0.015625)"/>
      <path id="DejaVuSans-6e" d="M 3513 2113
L 3513 0
L 2938 0
L 2938 2094
Q 2938 2591 2744 2837
Q 2550 3084 2163 3084
Q 1697 3084 1428 2787
Q 1159 2491 1159 1978
L 1159 0
L 581 0
L 581 3500
L 1159 3500
L 1159 2956
Q 1366 3272 1645 3428
Q 1925 3584 2291 3584
Q 2894 3584 3203 3211
Q 3513 2838 3513 2113
z
" transform="scale(0.015625)"/>
      <path id="DejaVuSans-24" d="M 2163 -941
L 1850 -941
L 1847 0
Q 1519 6 1191 76
Q 863 147 531 288
L 531 850
Q 850 650 1176 548
Q 1503 447 1850 444
L 1850 1869
Q 1159 1981 845 2250
Q 531 2519 531 2988
Q 531 3497 872 3790
Q 1213 4084 1850 4128
L 1850 4863
L 2163 4863
L 2163 4138
Q 2453 4125 2725 4076
Q 2997 4028 3256 3944
L 3256 3397
Q 2997 3528 2723 3600
Q 2450 3672 2163 3684
L 2163 2350
Q 2872 2241 3206 1959
Q 3541 1678 3541 1191
Q 3541 663 3186 358
Q 2831 53 2163 6
L 2163 -941
z
M 1850 2406
L 1850 3688
Q 1488 3647 1297 3481
Q 1106 3316 1106 3041
Q 1106 2772 1282 2622
Q 1459 2472 1850 2406
z
M 2163 1806
L 2163 453
Q 2559 506 2761 678
Q 2963 850 2963 1131
Q 2963 1406 2770 1568
Q 2578 1731 2163 1806
z
" transform="scale(0.015625)"/>
      <path id="DejaVuSans-4b" d="M 628 4666
L 1259 4666
L 1259 2694
L 3353 4666
L 4166 4666
L 1850 2491
L 4331 0
L 3500 0
L 1259 2247
L 1259 0
L 628 0
L 628 4666
z
" transform="scale(0.015625)"/>
      <path id="DejaVuSans-57" d="M 213 4666
L 850 4666
L 1831 722
L 2809 4666
L 3519 4666
L 4500 722
L 5478 4666
L 6119 4666
L 4947 0
L 4153 0
L 3169 4050
L 2175 0
L 1381 0
L 213 4666
z
" transform="scale(0.015625)"/>
      <path id="DejaVuSans-49" d="M 628 4666
L 1259 4666
L 1259 0
L 628 0
L 628 4666
z
" transform="scale(0.015625)"/>
      <path id="DejaVuSans-63" d="M 3122 3366
L 3122 2828
Q 2878 2963 2633 3030
Q 2388 3097 2138 3097
Q 1578 3097 1268 2742
Q 959 2388 959 1747
Q 959 1106 1268 751
Q 1578 397 2138 397
Q 2388 397 2633 464
Q 2878 531 3122 666
L 3122 134
Q 2881 22 2623 -34
Q 2366 -91 2075 -91
Q 1284 -91 818 406
Q 353 903 353 1747
Q 353 2603 823 3093
Q 1294 3584 2113 3584
Q 2378 3584 2631 3529
Q 2884 3475 3122 3366
z
" transform="scale(0.015625)"/>
      <path id="DejaVuSans-6d" d="M 3328 2828
Q 3544 3216 3844 3400
Q 4144 3584 4550 3584
Q 5097 3584 5394 3201
Q 5691 2819 5691 2113
L 5691 0
L 5113 0
L 5113 2094
Q 5113 2597 4934 2840
Q 4756 3084 4391 3084
Q 3944 3084 3684 2787
Q 3425 2491 3425 1978
L 3425 0
L 2847 0
L 2847 2094
Q 2847 2600 2669 2842
Q 2491 3084 2119 3084
Q 1678 3084 1418 2786
Q 1159 2488 1159 1978
L 1159 0
L 581 0
L 581 3500
L 1159 3500
L 1159 2956
Q 1356 3278 1631 3431
Q 1906 3584 2284 3584
Q 2666 3584 2933 3390
Q 3200 3197 3328 2828
z
" transform="scale(0.015625)"/>
      <path id="DejaVuSans-4f" d="M 2522 4238
Q 1834 4238 1429 3725
Q 1025 3213 1025 2328
Q 1025 1447 1429 934
Q 1834 422 2522 422
Q 3209 422 3611 934
Q 4013 1447 4013 2328
Q 4013 3213 3611 3725
Q 3209 4238 2522 4238
z
M 2522 4750
Q 3503 4750 4090 4092
Q 4678 3434 4678 2328
Q 4678 1225 4090 567
Q 3503 -91 2522 -91
Q 1538 -91 948 565
Q 359 1222 359 2328
Q 359 3434 948 4092
Q 1538 4750 2522 4750
z
" transform="scale(0.015625)"/>
      <path id="DejaVuSans-76" d="M 191 3500
L 800 3500
L 1894 563
L 2988 3500
L 3597 3500
L 2284 0
L 1503 0
L 191 3500
z
" transform="scale(0.015625)"/>
      <path id="DejaVuSans-69" d="M 603 3500
L 1178 3500
L 1178 0
L 603 0
L 603 3500
z
M 603 4863
L 1178 4863
L 1178 4134
L 603 4134
L 603 4863
z
" transform="scale(0.015625)"/>
     </defs>
     <use xlink:href="#DejaVuSans-46"/>
     <use xlink:href="#DejaVuSans-65" x="52.019531"/>
     <use xlink:href="#DejaVuSans-64" x="113.542969"/>
     <use xlink:href="#DejaVuSans-65" x="177.019531"/>
     <use xlink:href="#DejaVuSans-72" x="238.542969"/>
     <use xlink:href="#DejaVuSans-61" x="279.65625"/>
     <use xlink:href="#DejaVuSans-6c" x="340.935547"/>
     <use xlink:href="#DejaVuSans-20" x="368.71875"/>
     <use xlink:href="#DejaVuSans-54" x="400.505859"/>
     <use xlink:href="#DejaVuSans-61" x="445.089844"/>
     <use xlink:href="#DejaVuSans-78" x="506.369141"/>
     <use xlink:href="#DejaVuSans-20" x="565.548828"/>
     <use xlink:href="#DejaVuSans-6f" x="597.335938"/>
     <use xlink:href="#DejaVuSans-6e" x="658.517578"/>
     <use xlink:href="#DejaVuSans-20" x="721.896484"/>
     <use xlink:href="#DejaVuSans-24" x="753.683594"/>
     <use xlink:href="#DejaVuSans-31" x="817.306641"/>
     <use xlink:href="#DejaVuSans-30" x="880.929688"/>
     <use xlink:href="#DejaVuSans-30" x="944.552734"/>
     <use xlink:href="#DejaVuSans-4b" x="1008.175781"/>
     <use xlink:href="#DejaVuSans-20" x="1073.751953"/>
     <use xlink:href="#DejaVuSans-57" x="1105.539062"/>
     <use xlink:href="#DejaVuSans-32" x="1204.416016"/>
     <use xlink:href="#DejaVuSans-20" x="1268.039062"/>
     <use xlink:href="#DejaVuSans-49" x="1299.826172"/>
     <use xlink:href="#DejaVuSans-6e" x="1329.318359"/>
     <use xlink:href="#DejaVuSans-63" x="1392.697266"/>
     <use xlink:href="#DejaVuSans-6f" x="1447.677734"/>
     <use xlink:href="#DejaVuSans-6d" x="1508.859375"/>
     <use xlink:href="#DejaVuSans-65" x="1606.271484"/>
     <use xlink:href="#DejaVuSans-20" x="1667.794922"/>
     <use xlink:href="#DejaVuSans-4f" x="1699.582031"/>
     <use xlink:href="#DejaVuSans-76" x="1778.292969"/>
     <use xlink:href="#DejaVuSans-65" x="1837.472656"/>
     <use xlink:href="#DejaVuSans-72" x="1898.996094"/>
     <use xlink:href="#DejaVuSans-20" x="1940.109375"/>
     <use xlink:href="#DejaVuSans-54" x="1971.896484"/>
     <use xlink:href="#DejaVuSans-69" x="2029.855469"/>
     <use xlink:href="#DejaVuSans-6d" x="2057.638672"/>
     <use xlink:href="#DejaVuSans-65" x="2155.050781"/>
    </g>
   </g>
  </g>
 </g>
 <defs>
  <clipPath id="p52d6759a8d">
   <rect x="73.0675" y="28.078125" width="374.7725" height="268.802188"/>
  </clipPath>
 </defs>
</svg>
