<?xml version="1.0" encoding="utf-8" standalone="no"?>
<!DOCTYPE svg PUBLIC "-//W3C//DTD SVG 1.1//EN"
  "http://www.w3.org/Graphics/SVG/1.1/DTD/svg11.dtd">
<svg xmlns:xlink="http://www.w3.org/1999/xlink" width="449.28pt" height="334.08pt" viewBox="0 0 449.28 334.08" xmlns="http://www.w3.org/2000/svg" version="1.1">
 <metadata>
  <rdf:RDF xmlns:dc="http://purl.org/dc/elements/1.1/" xmlns:cc="http://creativecommons.org/ns#" xmlns:rdf="http://www.w3.org/1999/02/22-rdf-syntax-ns#">
   <cc:Work>
    <dc:type rdf:resource="http://purl.org/dc/dcmitype/StillImage"/>
    <dc:date>2026-01-31T11:58:29.222394</dc:date>
    <dc:format>image/svg+xml</dc:format>
    <dc:creator>
     <cc:Agent>
      <dc:title>Matplotlib v3.10.8, https://matplotlib.org/</dc:title>
     </cc:Agent>
    </dc:creator>
   </cc:Work>
  </rdf:RDF>
 </metadata>
 <defs>
  <style type="text/css">*{stroke-linejoin: round; stroke-linecap: butt}</style>
 </defs>
 <g id="figure_1">
  <g id="patch_1">
   <path d="M 0 334.08
L 449.28 334.08
L 449.28 0
L 0 0
z
" style="fill: #ffffff"/>
  </g>
  <g id="axes_1">
   <g id="patch_2">
    <path d="M 57.587031 291.458125
L 442.08 291.458125
L 442.08 22.2
L 57.587031 22.2
z
" style="fill: #eaeaf2"/>
   </g>
   <g id="matplotlib.axis_1">
    <g id="xtick_1">
     <g id="line2d_1">
      <path d="M 75.063984 291.458125
L 75.063984 22.2
" clip-path="url(#p28b98daf66)" style="fill: none; stroke: #ffffff; stroke-linecap: round"/>
     </g>
     <g id="text_1">
      <!-- $0 -->
      <g style="fill: #262626" transform="translate(68.881641 309.208125) scale(0.11 -0.11)">
       <defs>
        <path id="Roboto-Regular-24" d="M 2106 5288
L 2106 4334
L 1638 4334
L 1638 5288
L 2106 5288
z
M 2050 184
L 2050 -650
L 1584 -650
L 1584 184
L 2050 184
z
M 2675 1172
Q 2675 1359 2590 1509
Q 2506 1659 2312 1784
Q 2119 1909 1794 2016
Q 1400 2138 1114 2313
Q 828 2488 673 2747
Q 519 3006 519 3375
Q 519 3759 684 4037
Q 850 4316 1153 4466
Q 1456 4616 1866 4616
Q 2184 4616 2434 4520
Q 2684 4425 2857 4237
Q 3031 4050 3123 3778
Q 3216 3506 3216 3150
L 2641 3150
Q 2641 3359 2591 3534
Q 2541 3709 2441 3839
Q 2341 3969 2197 4039
Q 2053 4109 1866 4109
Q 1603 4109 1433 4018
Q 1263 3928 1181 3764
Q 1100 3600 1100 3384
Q 1100 3184 1181 3034
Q 1263 2884 1458 2764
Q 1653 2644 1997 2528
Q 2400 2400 2681 2226
Q 2963 2053 3109 1801
Q 3256 1550 3256 1178
Q 3256 775 3075 498
Q 2894 222 2566 78
Q 2238 -66 1797 -66
Q 1531 -66 1272 6
Q 1013 78 803 242
Q 594 406 469 676
Q 344 947 344 1341
L 925 1341
Q 925 1075 1001 901
Q 1078 728 1206 626
Q 1334 525 1489 483
Q 1644 441 1797 441
Q 2078 441 2273 530
Q 2469 619 2572 784
Q 2675 950 2675 1172
z
" transform="scale(0.015625)"/>
        <path id="Roboto-Regular-30" d="M 3234 2638
L 3234 1944
Q 3234 1384 3134 1000
Q 3034 616 2846 381
Q 2659 147 2395 42
Q 2131 -63 1800 -63
Q 1538 -63 1316 3
Q 1094 69 917 214
Q 741 359 616 593
Q 491 828 425 1162
Q 359 1497 359 1944
L 359 2638
Q 359 3197 461 3575
Q 563 3953 750 4183
Q 938 4413 1202 4513
Q 1466 4613 1794 4613
Q 2059 4613 2282 4548
Q 2506 4484 2681 4345
Q 2856 4206 2979 3976
Q 3103 3747 3168 3415
Q 3234 3084 3234 2638
z
M 2653 1850
L 2653 2734
Q 2653 3041 2617 3273
Q 2581 3506 2512 3672
Q 2444 3838 2339 3941
Q 2234 4044 2098 4092
Q 1963 4141 1794 4141
Q 1588 4141 1428 4064
Q 1269 3988 1161 3822
Q 1053 3656 997 3387
Q 941 3119 941 2734
L 941 1850
Q 941 1544 977 1309
Q 1013 1075 1084 904
Q 1156 734 1259 625
Q 1363 516 1498 464
Q 1634 413 1800 413
Q 2013 413 2172 494
Q 2331 575 2439 748
Q 2547 922 2600 1195
Q 2653 1469 2653 1850
z
" transform="scale(0.015625)"/>
       </defs>
       <use xlink:href="#Roboto-Regular-24"/>
       <use xlink:href="#Roboto-Regular-30" transform="translate(56.201172 0)"/>
      </g>
     </g>
    </g>
    <g id="xtick_2">
     <g id="line2d_2">
      <path d="M 144.971797 291.458125
L 144.971797 22.2
" clip-path="url(#p28b98daf66)" style="fill: none; stroke: #ffffff; stroke-linecap: round"/>
     </g>
     <g id="text_2">
      <!-- $50K -->
      <g style="fill: #262626" transform="translate(132.247031 309.208125) scale(0.11 -0.11)">
       <defs>
        <path id="Roboto-Regular-35" d="M 1109 2166
L 647 2284
L 875 4550
L 3209 4550
L 3209 4016
L 1366 4016
L 1228 2778
Q 1353 2850 1545 2912
Q 1738 2975 1988 2975
Q 2303 2975 2553 2867
Q 2803 2759 2979 2559
Q 3156 2359 3250 2078
Q 3344 1797 3344 1450
Q 3344 1122 3255 847
Q 3166 572 2987 367
Q 2809 163 2539 50
Q 2269 -63 1903 -63
Q 1628 -63 1383 14
Q 1138 91 945 248
Q 753 406 633 642
Q 513 878 481 1197
L 1031 1197
Q 1069 941 1181 766
Q 1294 591 1476 502
Q 1659 413 1903 413
Q 2109 413 2268 484
Q 2428 556 2537 690
Q 2647 825 2705 1015
Q 2763 1206 2763 1444
Q 2763 1659 2703 1843
Q 2644 2028 2526 2165
Q 2409 2303 2240 2379
Q 2072 2456 1853 2456
Q 1563 2456 1414 2378
Q 1266 2300 1109 2166
z
" transform="scale(0.015625)"/>
        <path id="Roboto-Regular-4b" d="M 1131 4550
L 1131 0
L 528 0
L 528 4550
L 1131 4550
z
M 3878 4550
L 1988 2428
L 925 1325
L 825 1969
L 1625 2850
L 3153 4550
L 3878 4550
z
M 3297 0
L 1613 2219
L 1972 2697
L 4016 0
L 3297 0
z
" transform="scale(0.015625)"/>
       </defs>
       <use xlink:href="#Roboto-Regular-24"/>
       <use xlink:href="#Roboto-Regular-35" transform="translate(56.201172 0)"/>
       <use xlink:href="#Roboto-Regular-30" transform="translate(112.402344 0)"/>
       <use xlink:href="#Roboto-Regular-4b" transform="translate(168.603516 0)"/>
      </g>
     </g>
    </g>
    <g id="xtick_3">
     <g id="line2d_3">
      <path d="M 214.879609 291.458125
L 214.879609 22.2
" clip-path="url(#p28b98daf66)" style="fill: none; stroke: #ffffff; stroke-linecap: round"/>
     </g>
     <g id="text_3">
      <!-- $100K -->
      <g style="fill: #262626" transform="translate(199.063672 309.208125) scale(0.11 -0.11)">
       <defs>
        <path id="Roboto-Regular-31" d="M 2278 4575
L 2278 0
L 1700 0
L 1700 3853
L 534 3428
L 534 3950
L 2188 4575
L 2278 4575
z
" transform="scale(0.015625)"/>
       </defs>
       <use xlink:href="#Roboto-Regular-24"/>
       <use xlink:href="#Roboto-Regular-31" transform="translate(56.201172 0)"/>
       <use xlink:href="#Roboto-Regular-30" transform="translate(112.402344 0)"/>
       <use xlink:href="#Roboto-Regular-30" transform="translate(168.603516 0)"/>
       <use xlink:href="#Roboto-Regular-4b" transform="translate(224.804688 0)"/>
      </g>
     </g>
    </g>
    <g id="xtick_4">
     <g id="line2d_4">
      <path d="M 284.787422 291.458125
L 284.787422 22.2
" clip-path="url(#p28b98daf66)" style="fill: none; stroke: #ffffff; stroke-linecap: round"/>
     </g>
     <g id="text_4">
      <!-- $150K -->
      <g style="fill: #262626" transform="translate(268.971484 309.208125) scale(0.11 -0.11)">
       <use xlink:href="#Roboto-Regular-24"/>
       <use xlink:href="#Roboto-Regular-31" transform="translate(56.201172 0)"/>
       <use xlink:href="#Roboto-Regular-35" transform="translate(112.402344 0)"/>
       <use xlink:href="#Roboto-Regular-30" transform="translate(168.603516 0)"/>
       <use xlink:href="#Roboto-Regular-4b" transform="translate(224.804688 0)"/>
      </g>
     </g>
    </g>
    <g id="xtick_5">
     <g id="line2d_5">
      <path d="M 354.695234 291.458125
L 354.695234 22.2
" clip-path="url(#p28b98daf66)" style="fill: none; stroke: #ffffff; stroke-linecap: round"/>
     </g>
     <g id="text_5">
      <!-- $200K -->
      <g style="fill: #262626" transform="translate(338.879297 309.208125) scale(0.11 -0.11)">
       <defs>
        <path id="Roboto-Regular-32" d="M 3359 475
L 3359 0
L 381 0
L 381 416
L 1872 2075
Q 2147 2381 2298 2595
Q 2450 2809 2511 2979
Q 2572 3150 2572 3328
Q 2572 3553 2480 3736
Q 2388 3919 2209 4028
Q 2031 4138 1778 4138
Q 1475 4138 1273 4020
Q 1072 3903 972 3693
Q 872 3484 872 3213
L 294 3213
Q 294 3597 462 3915
Q 631 4234 962 4423
Q 1294 4613 1778 4613
Q 2209 4613 2515 4461
Q 2822 4309 2986 4036
Q 3150 3763 3150 3397
Q 3150 3197 3083 2992
Q 3016 2788 2898 2584
Q 2781 2381 2626 2184
Q 2472 1988 2297 1797
L 1078 475
L 3359 475
z
" transform="scale(0.015625)"/>
       </defs>
       <use xlink:href="#Roboto-Regular-24"/>
       <use xlink:href="#Roboto-Regular-32" transform="translate(56.201172 0)"/>
       <use xlink:href="#Roboto-Regular-30" transform="translate(112.402344 0)"/>
       <use xlink:href="#Roboto-Regular-30" transform="translate(168.603516 0)"/>
       <use xlink:href="#Roboto-Regular-4b" transform="translate(224.804688 0)"/>
      </g>
     </g>
    </g>
    <g id="xtick_6">
     <g id="line2d_6">
      <path d="M 424.603047 291.458125
L 424.603047 22.2
" clip-path="url(#p28b98daf66)" style="fill: none; stroke: #ffffff; stroke-linecap: round"/>
     </g>
     <g id="text_6">
      <!-- $250K -->
      <g style="fill: #262626" transform="translate(408.787109 309.208125) scale(0.11 -0.11)">
       <use xlink:href="#Roboto-Regular-24"/>
       <use xlink:href="#Roboto-Regular-32" transform="translate(56.201172 0)"/>
       <use xlink:href="#Roboto-Regular-35" transform="translate(112.402344 0)"/>
       <use xlink:href="#Roboto-Regular-30" transform="translate(168.603516 0)"/>
       <use xlink:href="#Roboto-Regular-4b" transform="translate(224.804688 0)"/>
      </g>
     </g>
    </g>
    <g id="text_7">
     <!-- W2 Income -->
     <g style="fill: #262626" transform="translate(219.697578 324.4425) scale(0.12 -0.12)">
      <defs>
       <path id="Roboto-Regular-57" d="M 1725 1375
L 2628 4550
L 3066 4550
L 2813 3316
L 1841 0
L 1406 0
L 1725 1375
z
M 791 4550
L 1509 1438
L 1725 0
L 1294 0
L 191 4550
L 791 4550
z
M 4234 1441
L 4938 4550
L 5541 4550
L 4441 0
L 4009 0
L 4234 1441
z
M 3131 4550
L 4009 1375
L 4328 0
L 3894 0
L 2956 3316
L 2700 4550
L 3131 4550
z
" transform="scale(0.015625)"/>
       <path id="Roboto-Regular-20" transform="scale(0.015625)"/>
       <path id="Roboto-Regular-49" d="M 1175 4550
L 1175 0
L 572 0
L 572 4550
L 1175 4550
z
" transform="scale(0.015625)"/>
       <path id="Roboto-Regular-6e" d="M 1019 2659
L 1019 0
L 441 0
L 441 3381
L 988 3381
L 1019 2659
z
M 881 1819
L 641 1828
Q 644 2175 744 2470
Q 844 2766 1025 2984
Q 1206 3203 1457 3323
Q 1709 3444 2016 3444
Q 2266 3444 2466 3376
Q 2666 3309 2808 3162
Q 2950 3016 3025 2783
Q 3100 2550 3100 2216
L 3100 0
L 2519 0
L 2519 2222
Q 2519 2488 2441 2648
Q 2363 2809 2213 2882
Q 2063 2956 1844 2956
Q 1628 2956 1451 2865
Q 1275 2775 1148 2615
Q 1022 2456 951 2251
Q 881 2047 881 1819
z
" transform="scale(0.015625)"/>
       <path id="Roboto-Regular-63" d="M 1794 413
Q 2000 413 2175 497
Q 2350 581 2462 729
Q 2575 878 2591 1069
L 3141 1069
Q 3125 769 2939 511
Q 2753 253 2453 95
Q 2153 -63 1794 -63
Q 1413 -63 1130 71
Q 847 206 661 440
Q 475 675 383 979
Q 291 1284 291 1625
L 291 1756
Q 291 2097 383 2401
Q 475 2706 661 2940
Q 847 3175 1130 3309
Q 1413 3444 1794 3444
Q 2191 3444 2487 3283
Q 2784 3122 2954 2845
Q 3125 2569 3141 2219
L 2591 2219
Q 2575 2428 2473 2597
Q 2372 2766 2198 2867
Q 2025 2969 1794 2969
Q 1528 2969 1348 2864
Q 1169 2759 1064 2582
Q 959 2406 914 2192
Q 869 1978 869 1756
L 869 1625
Q 869 1403 912 1187
Q 956 972 1061 797
Q 1166 622 1345 517
Q 1525 413 1794 413
z
" transform="scale(0.015625)"/>
       <path id="Roboto-Regular-6f" d="M 288 1653
L 288 1725
Q 288 2091 394 2405
Q 500 2719 700 2951
Q 900 3184 1184 3314
Q 1469 3444 1822 3444
Q 2178 3444 2464 3314
Q 2750 3184 2951 2951
Q 3153 2719 3259 2405
Q 3366 2091 3366 1725
L 3366 1653
Q 3366 1288 3259 975
Q 3153 663 2951 430
Q 2750 197 2467 67
Q 2184 -63 1828 -63
Q 1472 -63 1187 67
Q 903 197 701 430
Q 500 663 394 975
Q 288 1288 288 1653
z
M 866 1725
L 866 1653
Q 866 1400 925 1176
Q 984 953 1104 781
Q 1225 609 1406 511
Q 1588 413 1828 413
Q 2066 413 2245 511
Q 2425 609 2544 781
Q 2663 953 2723 1176
Q 2784 1400 2784 1653
L 2784 1725
Q 2784 1975 2723 2198
Q 2663 2422 2542 2595
Q 2422 2769 2242 2869
Q 2063 2969 1822 2969
Q 1584 2969 1404 2869
Q 1225 2769 1104 2595
Q 984 2422 925 2198
Q 866 1975 866 1725
z
" transform="scale(0.015625)"/>
       <path id="Roboto-Regular-6d" d="M 1016 2709
L 1016 0
L 434 0
L 434 3381
L 984 3381
L 1016 2709
z
M 897 1819
L 628 1828
Q 631 2175 718 2470
Q 806 2766 978 2984
Q 1150 3203 1406 3323
Q 1663 3444 2000 3444
Q 2238 3444 2438 3376
Q 2638 3309 2784 3165
Q 2931 3022 3012 2797
Q 3094 2572 3094 2253
L 3094 0
L 2516 0
L 2516 2225
Q 2516 2491 2427 2650
Q 2338 2809 2175 2882
Q 2013 2956 1794 2956
Q 1538 2956 1366 2865
Q 1194 2775 1091 2615
Q 988 2456 942 2251
Q 897 2047 897 1819
z
M 3088 2138
L 2700 2019
Q 2703 2297 2792 2553
Q 2881 2809 3051 3009
Q 3222 3209 3472 3326
Q 3722 3444 4044 3444
Q 4316 3444 4527 3372
Q 4738 3300 4883 3151
Q 5028 3003 5103 2772
Q 5178 2541 5178 2222
L 5178 0
L 4597 0
L 4597 2228
Q 4597 2513 4508 2670
Q 4419 2828 4258 2892
Q 4097 2956 3875 2956
Q 3684 2956 3537 2890
Q 3391 2825 3291 2711
Q 3191 2597 3139 2450
Q 3088 2303 3088 2138
z
" transform="scale(0.015625)"/>
       <path id="Roboto-Regular-65" d="M 1844 -63
Q 1491 -63 1205 57
Q 919 178 714 397
Q 509 616 400 916
Q 291 1216 291 1572
L 291 1703
Q 291 2116 412 2439
Q 534 2763 743 2988
Q 953 3213 1218 3328
Q 1484 3444 1769 3444
Q 2131 3444 2395 3319
Q 2659 3194 2828 2970
Q 2997 2747 3078 2445
Q 3159 2144 3159 1788
L 3159 1528
L 634 1528
L 634 2000
L 2581 2000
L 2581 2044
Q 2569 2269 2489 2481
Q 2409 2694 2237 2831
Q 2066 2969 1769 2969
Q 1572 2969 1406 2886
Q 1241 2803 1122 2640
Q 1003 2478 937 2243
Q 872 2009 872 1703
L 872 1572
Q 872 1331 939 1120
Q 1006 909 1136 750
Q 1266 591 1452 500
Q 1638 409 1875 409
Q 2181 409 2393 534
Q 2606 659 2766 869
L 3116 591
Q 3006 425 2837 275
Q 2669 125 2423 31
Q 2178 -63 1844 -63
z
" transform="scale(0.015625)"/>
      </defs>
      <use xlink:href="#Roboto-Regular-57"/>
      <use xlink:href="#Roboto-Regular-32" transform="translate(88.720703 0)"/>
      <use xlink:href="#Roboto-Regular-20" transform="translate(144.921875 0)"/>
      <use xlink:href="#Roboto-Regular-49" transform="translate(169.726562 0)"/>
      <use xlink:href="#Roboto-Regular-6e" transform="translate(196.923828 0)"/>
      <use xlink:href="#Roboto-Regular-63" transform="translate(252.148438 0)"/>
      <use xlink:href="#Roboto-Regular-6f" transform="translate(304.492188 0)"/>
      <use xlink:href="#Roboto-Regular-6d" transform="translate(361.523438 0)"/>
      <use xlink:href="#Roboto-Regular-65" transform="translate(449.21875 0)"/>
     </g>
    </g>
   </g>
   <g id="matplotlib.axis_2">
    <g id="ytick_1">
     <g id="line2d_7">
      <path d="M 57.587031 279.219119
L 442.08 279.219119
" clip-path="url(#p28b98daf66)" style="fill: none; stroke: #ffffff; stroke-linecap: round"/>
     </g>
     <g id="text_8">
      <!-- $0 -->
      <g style="fill: #262626" transform="translate(35.722344 283.344119) scale(0.11 -0.11)">
       <use xlink:href="#Roboto-Regular-24"/>
       <use xlink:href="#Roboto-Regular-30" transform="translate(56.201172 0)"/>
      </g>
     </g>
    </g>
    <g id="ytick_2">
     <g id="line2d_8">
      <path d="M 57.587031 234.344037
L 442.08 234.344037
" clip-path="url(#p28b98daf66)" style="fill: none; stroke: #ffffff; stroke-linecap: round"/>
     </g>
     <g id="text_9">
      <!-- $10K -->
      <g style="fill: #262626" transform="translate(22.6375 238.469037) scale(0.11 -0.11)">
       <use xlink:href="#Roboto-Regular-24"/>
       <use xlink:href="#Roboto-Regular-31" transform="translate(56.201172 0)"/>
       <use xlink:href="#Roboto-Regular-30" transform="translate(112.402344 0)"/>
       <use xlink:href="#Roboto-Regular-4b" transform="translate(168.603516 0)"/>
      </g>
     </g>
    </g>
    <g id="ytick_3">
     <g id="line2d_9">
      <path d="M 57.587031 189.468954
L 442.08 189.468954
" clip-path="url(#p28b98daf66)" style="fill: none; stroke: #ffffff; stroke-linecap: round"/>
     </g>
     <g id="text_10">
      <!-- $20K -->
      <g style="fill: #262626" transform="translate(22.6375 193.593954) scale(0.11 -0.11)">
       <use xlink:href="#Roboto-Regular-24"/>
       <use xlink:href="#Roboto-Regular-32" transform="translate(56.201172 0)"/>
       <use xlink:href="#Roboto-Regular-30" transform="translate(112.402344 0)"/>
       <use xlink:href="#Roboto-Regular-4b" transform="translate(168.603516 0)"/>
      </g>
     </g>
    </g>
    <g id="ytick_4">
     <g id="line2d_10">
      <path d="M 57.587031 144.593871
L 442.08 144.593871
" clip-path="url(#p28b98daf66)" style="fill: none; stroke: #ffffff; stroke-linecap: round"/>
     </g>
     <g id="text_11">
      <!-- $30K -->
      <g style="fill: #262626" transform="translate(22.6375 148.718871) scale(0.11 -0.11)">
       <defs>
        <path id="Roboto-Regular-33" d="M 1222 2559
L 1634 2559
Q 1938 2559 2136 2661
Q 2334 2763 2432 2939
Q 2531 3116 2531 3338
Q 2531 3600 2443 3778
Q 2356 3956 2181 4047
Q 2006 4138 1738 4138
Q 1494 4138 1308 4042
Q 1122 3947 1017 3772
Q 913 3597 913 3359
L 334 3359
Q 334 3706 509 3990
Q 684 4275 1001 4444
Q 1319 4613 1738 4613
Q 2150 4613 2459 4467
Q 2769 4322 2941 4036
Q 3113 3750 3113 3325
Q 3113 3153 3033 2958
Q 2953 2763 2786 2594
Q 2619 2425 2353 2317
Q 2088 2209 1716 2209
L 1222 2209
L 1222 2559
z
M 1222 2084
L 1222 2431
L 1716 2431
Q 2150 2431 2434 2328
Q 2719 2225 2883 2053
Q 3047 1881 3114 1676
Q 3181 1472 3181 1269
Q 3181 950 3073 703
Q 2966 456 2770 284
Q 2575 113 2312 25
Q 2050 -63 1741 -63
Q 1444 -63 1183 21
Q 922 106 722 267
Q 522 428 409 664
Q 297 900 297 1203
L 875 1203
Q 875 966 979 787
Q 1084 609 1279 511
Q 1475 413 1741 413
Q 2006 413 2198 505
Q 2391 597 2495 784
Q 2600 972 2600 1256
Q 2600 1541 2481 1723
Q 2363 1906 2145 1995
Q 1928 2084 1634 2084
L 1222 2084
z
" transform="scale(0.015625)"/>
       </defs>
       <use xlink:href="#Roboto-Regular-24"/>
       <use xlink:href="#Roboto-Regular-33" transform="translate(56.201172 0)"/>
       <use xlink:href="#Roboto-Regular-30" transform="translate(112.402344 0)"/>
       <use xlink:href="#Roboto-Regular-4b" transform="translate(168.603516 0)"/>
      </g>
     </g>
    </g>
    <g id="ytick_5">
     <g id="line2d_11">
      <path d="M 57.587031 99.718788
L 442.08 99.718788
" clip-path="url(#p28b98daf66)" style="fill: none; stroke: #ffffff; stroke-linecap: round"/>
     </g>
     <g id="text_12">
      <!-- $40K -->
      <g style="fill: #262626" transform="translate(22.6375 103.843788) scale(0.11 -0.11)">
       <defs>
        <path id="Roboto-Regular-34" d="M 3453 1531
L 3453 1056
L 166 1056
L 166 1397
L 2203 4550
L 2675 4550
L 2169 3638
L 822 1531
L 3453 1531
z
M 2819 4550
L 2819 0
L 2241 0
L 2241 4550
L 2819 4550
z
" transform="scale(0.015625)"/>
       </defs>
       <use xlink:href="#Roboto-Regular-24"/>
       <use xlink:href="#Roboto-Regular-34" transform="translate(56.201172 0)"/>
       <use xlink:href="#Roboto-Regular-30" transform="translate(112.402344 0)"/>
       <use xlink:href="#Roboto-Regular-4b" transform="translate(168.603516 0)"/>
      </g>
     </g>
    </g>
    <g id="ytick_6">
     <g id="line2d_12">
      <path d="M 57.587031 54.843706
L 442.08 54.843706
" clip-path="url(#p28b98daf66)" style="fill: none; stroke: #ffffff; stroke-linecap: round"/>
     </g>
     <g id="text_13">
      <!-- $50K -->
      <g style="fill: #262626" transform="translate(22.6375 58.968706) scale(0.11 -0.11)">
       <use xlink:href="#Roboto-Regular-24"/>
       <use xlink:href="#Roboto-Regular-35" transform="translate(56.201172 0)"/>
       <use xlink:href="#Roboto-Regular-30" transform="translate(112.402344 0)"/>
       <use xlink:href="#Roboto-Regular-4b" transform="translate(168.603516 0)"/>
      </g>
     </g>
    </g>
    <g id="text_14">
     <!-- Federal Tax -->
     <g style="fill: #262626" transform="translate(16.2 187.957812) rotate(-90) scale(0.12 -0.12)">
      <defs>
       <path id="Roboto-Regular-46" d="M 1131 4550
L 1131 0
L 528 0
L 528 4550
L 1131 4550
z
M 3038 2503
L 3038 2009
L 1000 2009
L 1000 2503
L 3038 2503
z
M 3347 4550
L 3347 4056
L 1000 4056
L 1000 4550
L 3347 4550
z
" transform="scale(0.015625)"/>
       <path id="Roboto-Regular-64" d="M 2572 656
L 2572 4800
L 3153 4800
L 3153 0
L 2622 0
L 2572 656
z
M 297 1653
L 297 1719
Q 297 2106 392 2423
Q 488 2741 664 2969
Q 841 3197 1086 3320
Q 1331 3444 1634 3444
Q 1953 3444 2192 3333
Q 2431 3222 2598 3011
Q 2766 2800 2862 2503
Q 2959 2206 2997 1831
L 2997 1544
Q 2963 1172 2864 875
Q 2766 578 2598 368
Q 2431 159 2190 48
Q 1950 -63 1628 -63
Q 1331 -63 1086 65
Q 841 194 664 425
Q 488 656 392 970
Q 297 1284 297 1653
z
M 878 1719
L 878 1653
Q 878 1400 929 1178
Q 981 956 1090 787
Q 1200 619 1369 523
Q 1538 428 1772 428
Q 2059 428 2245 550
Q 2431 672 2543 872
Q 2656 1072 2719 1306
L 2719 2059
Q 2681 2231 2611 2392
Q 2541 2553 2430 2679
Q 2319 2806 2158 2881
Q 1997 2956 1778 2956
Q 1541 2956 1370 2857
Q 1200 2759 1090 2589
Q 981 2419 929 2195
Q 878 1972 878 1719
z
" transform="scale(0.015625)"/>
       <path id="Roboto-Regular-72" d="M 1019 2850
L 1019 0
L 441 0
L 441 3381
L 1003 3381
L 1019 2850
z
M 2075 3400
L 2072 2863
Q 2000 2878 1936 2883
Q 1872 2888 1791 2888
Q 1591 2888 1437 2825
Q 1284 2763 1178 2650
Q 1072 2538 1011 2383
Q 950 2228 931 2044
L 769 1950
Q 769 2256 830 2525
Q 891 2794 1019 3001
Q 1147 3209 1345 3326
Q 1544 3444 1819 3444
Q 1881 3444 1962 3430
Q 2044 3416 2075 3400
z
" transform="scale(0.015625)"/>
       <path id="Roboto-Regular-61" d="M 2434 578
L 2434 2319
Q 2434 2519 2354 2667
Q 2275 2816 2115 2897
Q 1956 2978 1722 2978
Q 1503 2978 1339 2903
Q 1175 2828 1083 2706
Q 991 2584 991 2444
L 413 2444
Q 413 2625 506 2803
Q 600 2981 776 3126
Q 953 3272 1201 3358
Q 1450 3444 1756 3444
Q 2125 3444 2408 3319
Q 2691 3194 2852 2942
Q 3013 2691 3013 2313
L 3013 738
Q 3013 569 3042 378
Q 3072 188 3131 50
L 3131 0
L 2528 0
Q 2484 100 2459 267
Q 2434 434 2434 578
z
M 2534 2050
L 2541 1644
L 1956 1644
Q 1709 1644 1515 1605
Q 1322 1566 1190 1487
Q 1059 1409 990 1292
Q 922 1175 922 1019
Q 922 859 994 728
Q 1066 597 1211 520
Q 1356 444 1569 444
Q 1834 444 2037 556
Q 2241 669 2361 831
Q 2481 994 2491 1147
L 2738 869
Q 2716 738 2619 578
Q 2522 419 2361 273
Q 2200 128 1979 32
Q 1759 -63 1484 -63
Q 1141 -63 883 71
Q 625 206 483 432
Q 341 659 341 941
Q 341 1213 447 1420
Q 553 1628 753 1767
Q 953 1906 1234 1978
Q 1516 2050 1863 2050
L 2534 2050
z
" transform="scale(0.015625)"/>
       <path id="Roboto-Regular-6c" d="M 1069 4800
L 1069 0
L 488 0
L 488 4800
L 1069 4800
z
" transform="scale(0.015625)"/>
       <path id="Roboto-Regular-54" d="M 2209 4550
L 2209 0
L 1616 0
L 1616 4550
L 2209 4550
z
M 3672 4550
L 3672 4056
L 156 4056
L 156 4550
L 3672 4550
z
" transform="scale(0.015625)"/>
       <path id="Roboto-Regular-78" d="M 831 3381
L 1572 2150
L 2322 3381
L 3000 3381
L 1894 1713
L 3034 0
L 2366 0
L 1584 1269
L 803 0
L 131 0
L 1269 1713
L 166 3381
L 831 3381
z
" transform="scale(0.015625)"/>
      </defs>
      <use xlink:href="#Roboto-Regular-46"/>
      <use xlink:href="#Roboto-Regular-65" transform="translate(55.273438 0)"/>
      <use xlink:href="#Roboto-Regular-64" transform="translate(108.300781 0)"/>
      <use xlink:href="#Roboto-Regular-65" transform="translate(164.697266 0)"/>
      <use xlink:href="#Roboto-Regular-72" transform="translate(217.724609 0)"/>
      <use xlink:href="#Roboto-Regular-61" transform="translate(251.611328 0)"/>
      <use xlink:href="#Roboto-Regular-6c" transform="translate(306.005859 0)"/>
      <use xlink:href="#Roboto-Regular-20" transform="translate(330.322266 0)"/>
      <use xlink:href="#Roboto-Regular-54" transform="translate(355.126953 0)"/>
      <use xlink:href="#Roboto-Regular-61" transform="translate(414.794922 0)"/>
      <use xlink:href="#Roboto-Regular-78" transform="translate(469.189453 0)"/>
     </g>
    </g>
   </g>
   <g id="line2d_13">
    <path d="M 75.063984 279.219119
L 94.638172 279.147319
L 111.416047 273.650122
L 156.157047 256.41809
L 157.555203 255.677651
L 228.861172 205.256008
L 349.102609 112.642812
L 419.010422 40.721517
L 424.603047 34.439006
L 424.603047 34.439006
" clip-path="url(#p28b98daf66)" style="fill: none; stroke: #4c72b0; stroke-width: 1.5; stroke-linecap: round"/>
   </g>
   <g id="patch_3">
    <path d="M 57.587031 291.458125
L 57.587031 22.2
" style="fill: none; stroke: #ffffff; stroke-width: 1.25; stroke-linejoin: miter; stroke-linecap: square"/>
   </g>
   <g id="patch_4">
    <path d="M 442.08 291.458125
L 442.08 22.2
" style="fill: none; stroke: #ffffff; stroke-width: 1.25; stroke-linejoin: miter; stroke-linecap: square"/>
   </g>
   <g id="patch_5">
    <path d="M 57.587031 291.458125
L 442.08 291.458125
" style="fill: none; stroke: #ffffff; stroke-width: 1.25; stroke-linejoin: miter; stroke-linecap: square"/>
   </g>
   <g id="patch_6">
    <path d="M 57.587031 22.2
L 442.08 22.2
" style="fill: none; stroke: #ffffff; stroke-width: 1.25; stroke-linejoin: miter; stroke-linecap: square"/>
   </g>
   <g id="text_15">
    <!-- Federal Tax as a Function of W2 Income -->
    <g transform="translate(142.758828 16.2) scale(0.12 -0.12)">
     <defs>
      <path id="Roboto-Regular-73" d="M 2409 897
Q 2409 1022 2354 1130
Q 2300 1238 2133 1327
Q 1966 1416 1631 1481
Q 1350 1541 1123 1622
Q 897 1703 739 1818
Q 581 1934 497 2090
Q 413 2247 413 2456
Q 413 2656 502 2834
Q 591 3013 755 3150
Q 919 3288 1150 3366
Q 1381 3444 1666 3444
Q 2072 3444 2359 3300
Q 2647 3156 2800 2917
Q 2953 2678 2953 2388
L 2375 2388
Q 2375 2528 2292 2661
Q 2209 2794 2051 2881
Q 1894 2969 1666 2969
Q 1425 2969 1276 2895
Q 1128 2822 1061 2709
Q 994 2597 994 2472
Q 994 2378 1026 2304
Q 1059 2231 1143 2170
Q 1228 2109 1381 2056
Q 1534 2003 1772 1950
Q 2188 1856 2456 1725
Q 2725 1594 2856 1403
Q 2988 1213 2988 941
Q 2988 719 2895 534
Q 2803 350 2629 217
Q 2456 84 2217 10
Q 1978 -63 1681 -63
Q 1234 -63 925 96
Q 616 256 456 509
Q 297 763 297 1044
L 878 1044
Q 891 806 1016 667
Q 1141 528 1322 470
Q 1503 413 1681 413
Q 1919 413 2080 475
Q 2241 538 2325 647
Q 2409 756 2409 897
z
" transform="scale(0.015625)"/>
      <path id="Roboto-Regular-75" d="M 2509 781
L 2509 3381
L 3091 3381
L 3091 0
L 2538 0
L 2509 781
z
M 2619 1494
L 2859 1500
Q 2859 1163 2789 877
Q 2719 591 2562 381
Q 2406 172 2153 54
Q 1900 -63 1538 -63
Q 1291 -63 1086 9
Q 881 81 734 231
Q 588 381 508 622
Q 428 863 428 1200
L 428 3381
L 1006 3381
L 1006 1194
Q 1006 966 1057 817
Q 1109 669 1198 583
Q 1288 497 1398 462
Q 1509 428 1628 428
Q 1997 428 2212 570
Q 2428 713 2523 955
Q 2619 1197 2619 1494
z
" transform="scale(0.015625)"/>
      <path id="Roboto-Regular-74" d="M 1856 3381
L 1856 2938
L 28 2938
L 28 3381
L 1856 3381
z
M 647 4203
L 1225 4203
L 1225 838
Q 1225 666 1278 578
Q 1331 491 1415 462
Q 1500 434 1597 434
Q 1669 434 1748 448
Q 1828 463 1869 472
L 1872 0
Q 1803 -22 1692 -42
Q 1581 -63 1425 -63
Q 1213 -63 1034 21
Q 856 106 751 304
Q 647 503 647 841
L 647 4203
z
" transform="scale(0.015625)"/>
      <path id="Roboto-Regular-69" d="M 1069 3381
L 1069 0
L 488 0
L 488 3381
L 1069 3381
z
M 444 4278
Q 444 4419 530 4516
Q 616 4613 784 4613
Q 950 4613 1039 4516
Q 1128 4419 1128 4278
Q 1128 4144 1039 4048
Q 950 3953 784 3953
Q 616 3953 530 4048
Q 444 4144 444 4278
z
" transform="scale(0.015625)"/>
      <path id="Roboto-Regular-66" d="M 1303 0
L 725 0
L 725 3738
Q 725 4103 858 4354
Q 991 4606 1241 4736
Q 1491 4866 1834 4866
Q 1934 4866 2036 4853
Q 2138 4841 2234 4816
L 2203 4344
Q 2138 4359 2055 4365
Q 1972 4372 1891 4372
Q 1706 4372 1573 4298
Q 1441 4225 1372 4084
Q 1303 3944 1303 3738
L 1303 0
z
M 2022 3381
L 2022 2938
L 191 2938
L 191 3381
L 2022 3381
z
" transform="scale(0.015625)"/>
     </defs>
     <use xlink:href="#Roboto-Regular-46"/>
     <use xlink:href="#Roboto-Regular-65" transform="translate(55.273438 0)"/>
     <use xlink:href="#Roboto-Regular-64" transform="translate(108.300781 0)"/>
     <use xlink:href="#Roboto-Regular-65" transform="translate(164.697266 0)"/>
     <use xlink:href="#Roboto-Regular-72" transform="translate(217.724609 0)"/>
     <use xlink:href="#Roboto-Regular-61" transform="translate(251.611328 0)"/>
     <use xlink:href="#Roboto-Regular-6c" transform="translate(306.005859 0)"/>
     <use xlink:href="#Roboto-Regular-20" transform="translate(330.322266 0)"/>
     <use xlink:href="#Roboto-Regular-54" transform="translate(355.126953 0)"/>
     <use xlink:href="#Roboto-Regular-61" transform="translate(414.794922 0)"/>
     <use xlink:href="#Roboto-Regular-78" transform="translate(469.189453 0)"/>
     <use xlink:href="#Roboto-Regular-20" transform="translate(518.798828 0)"/>
     <use xlink:href="#Roboto-Regular-61" transform="translate(543.603516 0)"/>
     <use xlink:href="#Roboto-Regular-73" transform="translate(597.998047 0)"/>
     <use xlink:href="#Roboto-Regular-20" transform="translate(649.609375 0)"/>
     <use xlink:href="#Roboto-Regular-61" transform="translate(674.414062 0)"/>
     <use xlink:href="#Roboto-Regular-20" transform="translate(728.808594 0)"/>
     <use xlink:href="#Roboto-Regular-46" transform="translate(753.613281 0)"/>
     <use xlink:href="#Roboto-Regular-75" transform="translate(808.886719 0)"/>
     <use xlink:href="#Roboto-Regular-6e" transform="translate(864.013672 0)"/>
     <use xlink:href="#Roboto-Regular-63" transform="translate(919.238281 0)"/>
     <use xlink:href="#Roboto-Regular-74" transform="translate(971.582031 0)"/>
     <use xlink:href="#Roboto-Regular-69" transform="translate(1004.296875 0)"/>
     <use xlink:href="#Roboto-Regular-6f" transform="translate(1028.613281 0)"/>
     <use xlink:href="#Roboto-Regular-6e" transform="translate(1085.644531 0)"/>
     <use xlink:href="#Roboto-Regular-20" transform="translate(1140.869141 0)"/>
     <use xlink:href="#Roboto-Regular-6f" transform="translate(1165.673828 0)"/>
     <use xlink:href="#Roboto-Regular-66" transform="translate(1222.705078 0)"/>
     <use xlink:href="#Roboto-Regular-20" transform="translate(1257.470703 0)"/>
     <use xlink:href="#Roboto-Regular-57" transform="translate(1282.275391 0)"/>
     <use xlink:href="#Roboto-Regular-32" transform="translate(1370.996094 0)"/>
     <use xlink:href="#Roboto-Regular-20" transform="translate(1427.197266 0)"/>
     <use xlink:href="#Roboto-Regular-49" transform="translate(1452.001953 0)"/>
     <use xlink:href="#Roboto-Regular-6e" transform="translate(1479.199219 0)"/>
     <use xlink:href="#Roboto-Regular-63" transform="translate(1534.423828 0)"/>
     <use xlink:href="#Roboto-Regular-6f" transform="translate(1586.767578 0)"/>
     <use xlink:href="#Roboto-Regular-6d" transform="translate(1643.798828 0)"/>
     <use xlink:href="#Roboto-Regular-65" transform="translate(1731.494141 0)"/>
    </g>
   </g>
  </g>
 </g>
 <defs>
  <clipPath id="p28b98daf66">
   <rect x="57.587031" y="22.2" width="384.492969" height="269.258125"/>
  </clipPath>
 </defs>
</svg>
