<?xml version="1.0" encoding="utf-8" standalone="no"?>
<!DOCTYPE svg PUBLIC "-//W3C//DTD SVG 1.1//EN"
  "http://www.w3.org/Graphics/SVG/1.1/DTD/svg11.dtd">
<svg xmlns:xlink="http://www.w3.org/1999/xlink" width="449.28pt" height="334.08pt" viewBox="0 0 449.28 334.08" xmlns="http://www.w3.org/2000/svg" version="1.1">
 <metadata>
  <rdf:RDF xmlns:dc="http://purl.org/dc/elements/1.1/" xmlns:cc="http://creativecommons.org/ns#" xmlns:rdf="http://www.w3.org/1999/02/22-rdf-syntax-ns#">
   <cc:Work>
    <dc:type rdf:resource="http://purl.org/dc/dcmitype/StillImage"/>
    <dc:date>2026-01-31T16:57:47.805257</dc:date>
    <dc:format>image/svg+xml</dc:format>
    <dc:creator>
     <cc:Agent>
      <dc:title>Matplotlib v3.10.8, https://matplotlib.org/</dc:title>
     </cc:Agent>
    </dc:creator>
   </cc:Work>
  </rdf:RDF>
 </metadata>
 <defs>
  <style type="text/css">*{stroke-linejoin: round; stroke-linecap: butt}</style>
 </defs>
 <g id="figure_1">
  <g id="patch_1">
   <path d="M 0 334.08
L 449.28 334.08
L 449.28 0
L 0 0
z
" style="fill: #ffffff"/>
  </g>
  <g id="axes_1">
   <g id="patch_2">
    <path d="M 71.395469 291.458125
L 442.08 291.458125
L 442.08 22.2
L 71.395469 22.2
z
" style="fill: #eaeaf2"/>
   </g>
   <g id="matplotlib.axis_1">
    <g id="xtick_1">
     <g id="text_1">
      <!-- 2018 -->
      <g style="fill: #262626" transform="translate(82.198564 309.208125) scale(0.11 -0.11)">
       <defs>
        <path id="Roboto-Regular-32" d="M 3359 475
L 3359 0
L 381 0
L 381 416
L 1872 2075
Q 2147 2381 2298 2595
Q 2450 2809 2511 2979
Q 2572 3150 2572 3328
Q 2572 3553 2480 3736
Q 2388 3919 2209 4028
Q 2031 4138 1778 4138
Q 1475 4138 1273 4020
Q 1072 3903 972 3693
Q 872 3484 872 3213
L 294 3213
Q 294 3597 462 3915
Q 631 4234 962 4423
Q 1294 4613 1778 4613
Q 2209 4613 2515 4461
Q 2822 4309 2986 4036
Q 3150 3763 3150 3397
Q 3150 3197 3083 2992
Q 3016 2788 2898 2584
Q 2781 2381 2626 2184
Q 2472 1988 2297 1797
L 1078 475
L 3359 475
z
" transform="scale(0.015625)"/>
        <path id="Roboto-Regular-30" d="M 3234 2638
L 3234 1944
Q 3234 1384 3134 1000
Q 3034 616 2846 381
Q 2659 147 2395 42
Q 2131 -63 1800 -63
Q 1538 -63 1316 3
Q 1094 69 917 214
Q 741 359 616 593
Q 491 828 425 1162
Q 359 1497 359 1944
L 359 2638
Q 359 3197 461 3575
Q 563 3953 750 4183
Q 938 4413 1202 4513
Q 1466 4613 1794 4613
Q 2059 4613 2282 4548
Q 2506 4484 2681 4345
Q 2856 4206 2979 3976
Q 3103 3747 3168 3415
Q 3234 3084 3234 2638
z
M 2653 1850
L 2653 2734
Q 2653 3041 2617 3273
Q 2581 3506 2512 3672
Q 2444 3838 2339 3941
Q 2234 4044 2098 4092
Q 1963 4141 1794 4141
Q 1588 4141 1428 4064
Q 1269 3988 1161 3822
Q 1053 3656 997 3387
Q 941 3119 941 2734
L 941 1850
Q 941 1544 977 1309
Q 1013 1075 1084 904
Q 1156 734 1259 625
Q 1363 516 1498 464
Q 1634 413 1800 413
Q 2013 413 2172 494
Q 2331 575 2439 748
Q 2547 922 2600 1195
Q 2653 1469 2653 1850
z
" transform="scale(0.015625)"/>
        <path id="Roboto-Regular-31" d="M 2278 4575
L 2278 0
L 1700 0
L 1700 3853
L 534 3428
L 534 3950
L 2188 4575
L 2278 4575
z
" transform="scale(0.015625)"/>
        <path id="Roboto-Regular-38" d="M 3247 1231
Q 3247 816 3055 527
Q 2863 238 2536 87
Q 2209 -63 1800 -63
Q 1391 -63 1062 87
Q 734 238 543 527
Q 353 816 353 1231
Q 353 1503 458 1729
Q 563 1956 755 2125
Q 947 2294 1211 2386
Q 1475 2478 1794 2478
Q 2213 2478 2541 2317
Q 2869 2156 3058 1875
Q 3247 1594 3247 1231
z
M 2666 1244
Q 2666 1497 2556 1692
Q 2447 1888 2250 1997
Q 2053 2106 1794 2106
Q 1528 2106 1336 1997
Q 1144 1888 1037 1692
Q 931 1497 931 1244
Q 931 981 1036 795
Q 1141 609 1336 511
Q 1531 413 1800 413
Q 2069 413 2262 511
Q 2456 609 2561 795
Q 2666 981 2666 1244
z
M 3141 3366
Q 3141 3034 2966 2768
Q 2791 2503 2487 2350
Q 2184 2197 1800 2197
Q 1409 2197 1104 2350
Q 800 2503 628 2768
Q 456 3034 456 3366
Q 456 3763 629 4041
Q 803 4319 1106 4466
Q 1409 4613 1797 4613
Q 2188 4613 2491 4466
Q 2794 4319 2967 4041
Q 3141 3763 3141 3366
z
M 2563 3356
Q 2563 3584 2466 3759
Q 2369 3934 2197 4036
Q 2025 4138 1797 4138
Q 1569 4138 1398 4042
Q 1228 3947 1133 3772
Q 1038 3597 1038 3356
Q 1038 3122 1133 2947
Q 1228 2772 1400 2675
Q 1572 2578 1800 2578
Q 2028 2578 2198 2675
Q 2369 2772 2466 2947
Q 2563 3122 2563 3356
z
" transform="scale(0.015625)"/>
       </defs>
       <use xlink:href="#Roboto-Regular-32"/>
       <use xlink:href="#Roboto-Regular-30" transform="translate(56.201172 0)"/>
       <use xlink:href="#Roboto-Regular-31" transform="translate(112.402344 0)"/>
       <use xlink:href="#Roboto-Regular-38" transform="translate(168.603516 0)"/>
      </g>
     </g>
    </g>
    <g id="xtick_2">
     <g id="text_2">
      <!-- 2019 -->
      <g style="fill: #262626" transform="translate(128.534131 309.208125) scale(0.11 -0.11)">
       <defs>
        <path id="Roboto-Regular-39" d="M 953 484
L 1013 484
Q 1513 484 1825 625
Q 2138 766 2306 1003
Q 2475 1241 2537 1539
Q 2600 1838 2600 2153
L 2600 2850
Q 2600 3159 2529 3400
Q 2459 3641 2336 3803
Q 2213 3966 2056 4050
Q 1900 4134 1725 4134
Q 1525 4134 1367 4054
Q 1209 3975 1101 3831
Q 994 3688 937 3494
Q 881 3300 881 3072
Q 881 2869 931 2678
Q 981 2488 1084 2334
Q 1188 2181 1342 2092
Q 1497 2003 1706 2003
Q 1900 2003 2070 2079
Q 2241 2156 2373 2289
Q 2506 2422 2586 2590
Q 2666 2759 2678 2944
L 2953 2944
Q 2953 2684 2851 2432
Q 2750 2181 2569 1975
Q 2388 1769 2144 1645
Q 1900 1522 1613 1522
Q 1275 1522 1028 1653
Q 781 1784 623 2003
Q 466 2222 389 2492
Q 313 2763 313 3041
Q 313 3366 403 3650
Q 494 3934 672 4151
Q 850 4369 1114 4491
Q 1378 4613 1725 4613
Q 2116 4613 2391 4456
Q 2666 4300 2839 4037
Q 3013 3775 3094 3447
Q 3175 3119 3175 2772
L 3175 2563
Q 3175 2209 3129 1845
Q 3084 1481 2957 1150
Q 2831 819 2590 558
Q 2350 297 1964 145
Q 1578 -6 1013 -6
L 953 -6
L 953 484
z
" transform="scale(0.015625)"/>
       </defs>
       <use xlink:href="#Roboto-Regular-32"/>
       <use xlink:href="#Roboto-Regular-30" transform="translate(56.201172 0)"/>
       <use xlink:href="#Roboto-Regular-31" transform="translate(112.402344 0)"/>
       <use xlink:href="#Roboto-Regular-39" transform="translate(168.603516 0)"/>
      </g>
     </g>
    </g>
    <g id="xtick_3">
     <g id="text_3">
      <!-- 2020 -->
      <g style="fill: #262626" transform="translate(174.869697 309.208125) scale(0.11 -0.11)">
       <use xlink:href="#Roboto-Regular-32"/>
       <use xlink:href="#Roboto-Regular-30" transform="translate(56.201172 0)"/>
       <use xlink:href="#Roboto-Regular-32" transform="translate(112.402344 0)"/>
       <use xlink:href="#Roboto-Regular-30" transform="translate(168.603516 0)"/>
      </g>
     </g>
    </g>
    <g id="xtick_4">
     <g id="text_4">
      <!-- 2021 -->
      <g style="fill: #262626" transform="translate(221.205264 309.208125) scale(0.11 -0.11)">
       <use xlink:href="#Roboto-Regular-32"/>
       <use xlink:href="#Roboto-Regular-30" transform="translate(56.201172 0)"/>
       <use xlink:href="#Roboto-Regular-32" transform="translate(112.402344 0)"/>
       <use xlink:href="#Roboto-Regular-31" transform="translate(168.603516 0)"/>
      </g>
     </g>
    </g>
    <g id="xtick_5">
     <g id="text_5">
      <!-- 2022 -->
      <g style="fill: #262626" transform="translate(267.54083 309.208125) scale(0.11 -0.11)">
       <use xlink:href="#Roboto-Regular-32"/>
       <use xlink:href="#Roboto-Regular-30" transform="translate(56.201172 0)"/>
       <use xlink:href="#Roboto-Regular-32" transform="translate(112.402344 0)"/>
       <use xlink:href="#Roboto-Regular-32" transform="translate(168.603516 0)"/>
      </g>
     </g>
    </g>
    <g id="xtick_6">
     <g id="text_6">
      <!-- 2023 -->
      <g style="fill: #262626" transform="translate(313.876396 309.208125) scale(0.11 -0.11)">
       <defs>
        <path id="Roboto-Regular-33" d="M 1222 2559
L 1634 2559
Q 1938 2559 2136 2661
Q 2334 2763 2432 2939
Q 2531 3116 2531 3338
Q 2531 3600 2443 3778
Q 2356 3956 2181 4047
Q 2006 4138 1738 4138
Q 1494 4138 1308 4042
Q 1122 3947 1017 3772
Q 913 3597 913 3359
L 334 3359
Q 334 3706 509 3990
Q 684 4275 1001 4444
Q 1319 4613 1738 4613
Q 2150 4613 2459 4467
Q 2769 4322 2941 4036
Q 3113 3750 3113 3325
Q 3113 3153 3033 2958
Q 2953 2763 2786 2594
Q 2619 2425 2353 2317
Q 2088 2209 1716 2209
L 1222 2209
L 1222 2559
z
M 1222 2084
L 1222 2431
L 1716 2431
Q 2150 2431 2434 2328
Q 2719 2225 2883 2053
Q 3047 1881 3114 1676
Q 3181 1472 3181 1269
Q 3181 950 3073 703
Q 2966 456 2770 284
Q 2575 113 2312 25
Q 2050 -63 1741 -63
Q 1444 -63 1183 21
Q 922 106 722 267
Q 522 428 409 664
Q 297 900 297 1203
L 875 1203
Q 875 966 979 787
Q 1084 609 1279 511
Q 1475 413 1741 413
Q 2006 413 2198 505
Q 2391 597 2495 784
Q 2600 972 2600 1256
Q 2600 1541 2481 1723
Q 2363 1906 2145 1995
Q 1928 2084 1634 2084
L 1222 2084
z
" transform="scale(0.015625)"/>
       </defs>
       <use xlink:href="#Roboto-Regular-32"/>
       <use xlink:href="#Roboto-Regular-30" transform="translate(56.201172 0)"/>
       <use xlink:href="#Roboto-Regular-32" transform="translate(112.402344 0)"/>
       <use xlink:href="#Roboto-Regular-33" transform="translate(168.603516 0)"/>
      </g>
     </g>
    </g>
    <g id="xtick_7">
     <g id="text_7">
      <!-- 2024 -->
      <g style="fill: #262626" transform="translate(360.211963 309.208125) scale(0.11 -0.11)">
       <defs>
        <path id="Roboto-Regular-34" d="M 3453 1531
L 3453 1056
L 166 1056
L 166 1397
L 2203 4550
L 2675 4550
L 2169 3638
L 822 1531
L 3453 1531
z
M 2819 4550
L 2819 0
L 2241 0
L 2241 4550
L 2819 4550
z
" transform="scale(0.015625)"/>
       </defs>
       <use xlink:href="#Roboto-Regular-32"/>
       <use xlink:href="#Roboto-Regular-30" transform="translate(56.201172 0)"/>
       <use xlink:href="#Roboto-Regular-32" transform="translate(112.402344 0)"/>
       <use xlink:href="#Roboto-Regular-34" transform="translate(168.603516 0)"/>
      </g>
     </g>
    </g>
    <g id="xtick_8">
     <g id="text_8">
      <!-- 2025 -->
      <g style="fill: #262626" transform="translate(406.547529 309.208125) scale(0.11 -0.11)">
       <defs>
        <path id="Roboto-Regular-35" d="M 1109 2166
L 647 2284
L 875 4550
L 3209 4550
L 3209 4016
L 1366 4016
L 1228 2778
Q 1353 2850 1545 2912
Q 1738 2975 1988 2975
Q 2303 2975 2553 2867
Q 2803 2759 2979 2559
Q 3156 2359 3250 2078
Q 3344 1797 3344 1450
Q 3344 1122 3255 847
Q 3166 572 2987 367
Q 2809 163 2539 50
Q 2269 -63 1903 -63
Q 1628 -63 1383 14
Q 1138 91 945 248
Q 753 406 633 642
Q 513 878 481 1197
L 1031 1197
Q 1069 941 1181 766
Q 1294 591 1476 502
Q 1659 413 1903 413
Q 2109 413 2268 484
Q 2428 556 2537 690
Q 2647 825 2705 1015
Q 2763 1206 2763 1444
Q 2763 1659 2703 1843
Q 2644 2028 2526 2165
Q 2409 2303 2240 2379
Q 2072 2456 1853 2456
Q 1563 2456 1414 2378
Q 1266 2300 1109 2166
z
" transform="scale(0.015625)"/>
       </defs>
       <use xlink:href="#Roboto-Regular-32"/>
       <use xlink:href="#Roboto-Regular-30" transform="translate(56.201172 0)"/>
       <use xlink:href="#Roboto-Regular-32" transform="translate(112.402344 0)"/>
       <use xlink:href="#Roboto-Regular-35" transform="translate(168.603516 0)"/>
      </g>
     </g>
    </g>
    <g id="text_9">
     <!-- Year -->
     <g style="fill: #262626" transform="translate(244.655234 324.4425) scale(0.12 -0.12)">
      <defs>
       <path id="Roboto-Regular-59" d="M 738 4550
L 1919 2266
L 3103 4550
L 3788 4550
L 2219 1700
L 2219 0
L 1616 0
L 1616 1700
L 47 4550
L 738 4550
z
" transform="scale(0.015625)"/>
       <path id="Roboto-Regular-65" d="M 1844 -63
Q 1491 -63 1205 57
Q 919 178 714 397
Q 509 616 400 916
Q 291 1216 291 1572
L 291 1703
Q 291 2116 412 2439
Q 534 2763 743 2988
Q 953 3213 1218 3328
Q 1484 3444 1769 3444
Q 2131 3444 2395 3319
Q 2659 3194 2828 2970
Q 2997 2747 3078 2445
Q 3159 2144 3159 1788
L 3159 1528
L 634 1528
L 634 2000
L 2581 2000
L 2581 2044
Q 2569 2269 2489 2481
Q 2409 2694 2237 2831
Q 2066 2969 1769 2969
Q 1572 2969 1406 2886
Q 1241 2803 1122 2640
Q 1003 2478 937 2243
Q 872 2009 872 1703
L 872 1572
Q 872 1331 939 1120
Q 1006 909 1136 750
Q 1266 591 1452 500
Q 1638 409 1875 409
Q 2181 409 2393 534
Q 2606 659 2766 869
L 3116 591
Q 3006 425 2837 275
Q 2669 125 2423 31
Q 2178 -63 1844 -63
z
" transform="scale(0.015625)"/>
       <path id="Roboto-Regular-61" d="M 2434 578
L 2434 2319
Q 2434 2519 2354 2667
Q 2275 2816 2115 2897
Q 1956 2978 1722 2978
Q 1503 2978 1339 2903
Q 1175 2828 1083 2706
Q 991 2584 991 2444
L 413 2444
Q 413 2625 506 2803
Q 600 2981 776 3126
Q 953 3272 1201 3358
Q 1450 3444 1756 3444
Q 2125 3444 2408 3319
Q 2691 3194 2852 2942
Q 3013 2691 3013 2313
L 3013 738
Q 3013 569 3042 378
Q 3072 188 3131 50
L 3131 0
L 2528 0
Q 2484 100 2459 267
Q 2434 434 2434 578
z
M 2534 2050
L 2541 1644
L 1956 1644
Q 1709 1644 1515 1605
Q 1322 1566 1190 1487
Q 1059 1409 990 1292
Q 922 1175 922 1019
Q 922 859 994 728
Q 1066 597 1211 520
Q 1356 444 1569 444
Q 1834 444 2037 556
Q 2241 669 2361 831
Q 2481 994 2491 1147
L 2738 869
Q 2716 738 2619 578
Q 2522 419 2361 273
Q 2200 128 1979 32
Q 1759 -63 1484 -63
Q 1141 -63 883 71
Q 625 206 483 432
Q 341 659 341 941
Q 341 1213 447 1420
Q 553 1628 753 1767
Q 953 1906 1234 1978
Q 1516 2050 1863 2050
L 2534 2050
z
" transform="scale(0.015625)"/>
       <path id="Roboto-Regular-72" d="M 1019 2850
L 1019 0
L 441 0
L 441 3381
L 1003 3381
L 1019 2850
z
M 2075 3400
L 2072 2863
Q 2000 2878 1936 2883
Q 1872 2888 1791 2888
Q 1591 2888 1437 2825
Q 1284 2763 1178 2650
Q 1072 2538 1011 2383
Q 950 2228 931 2044
L 769 1950
Q 769 2256 830 2525
Q 891 2794 1019 3001
Q 1147 3209 1345 3326
Q 1544 3444 1819 3444
Q 1881 3444 1962 3430
Q 2044 3416 2075 3400
z
" transform="scale(0.015625)"/>
      </defs>
      <use xlink:href="#Roboto-Regular-59"/>
      <use xlink:href="#Roboto-Regular-65" transform="translate(60.058594 0)"/>
      <use xlink:href="#Roboto-Regular-61" transform="translate(113.085938 0)"/>
      <use xlink:href="#Roboto-Regular-72" transform="translate(167.480469 0)"/>
     </g>
    </g>
   </g>
   <g id="matplotlib.axis_2">
    <g id="ytick_1">
     <g id="line2d_1">
      <path d="M 71.395469 273.602034
L 442.08 273.602034
" clip-path="url(#p2fd5ca303e)" style="fill: none; stroke: #ffffff; stroke-linecap: round"/>
     </g>
     <g id="text_10">
      <!-- $13,500 -->
      <g style="fill: #262626" transform="translate(22.6375 277.810393) scale(0.11 -0.11)">
       <defs>
        <path id="Roboto-Regular-24" d="M 2106 5288
L 2106 4334
L 1638 4334
L 1638 5288
L 2106 5288
z
M 2050 184
L 2050 -650
L 1584 -650
L 1584 184
L 2050 184
z
M 2675 1172
Q 2675 1359 2590 1509
Q 2506 1659 2312 1784
Q 2119 1909 1794 2016
Q 1400 2138 1114 2313
Q 828 2488 673 2747
Q 519 3006 519 3375
Q 519 3759 684 4037
Q 850 4316 1153 4466
Q 1456 4616 1866 4616
Q 2184 4616 2434 4520
Q 2684 4425 2857 4237
Q 3031 4050 3123 3778
Q 3216 3506 3216 3150
L 2641 3150
Q 2641 3359 2591 3534
Q 2541 3709 2441 3839
Q 2341 3969 2197 4039
Q 2053 4109 1866 4109
Q 1603 4109 1433 4018
Q 1263 3928 1181 3764
Q 1100 3600 1100 3384
Q 1100 3184 1181 3034
Q 1263 2884 1458 2764
Q 1653 2644 1997 2528
Q 2400 2400 2681 2226
Q 2963 2053 3109 1801
Q 3256 1550 3256 1178
Q 3256 775 3075 498
Q 2894 222 2566 78
Q 2238 -66 1797 -66
Q 1531 -66 1272 6
Q 1013 78 803 242
Q 594 406 469 676
Q 344 947 344 1341
L 925 1341
Q 925 1075 1001 901
Q 1078 728 1206 626
Q 1334 525 1489 483
Q 1644 441 1797 441
Q 2078 441 2273 530
Q 2469 619 2572 784
Q 2675 950 2675 1172
z
" transform="scale(0.015625)"/>
        <path id="Roboto-Regular-2c" d="M 966 688
L 966 222
Q 966 -63 822 -380
Q 678 -697 419 -909
L 91 -681
Q 191 -544 259 -401
Q 328 -259 364 -107
Q 400 44 400 213
L 400 688
L 966 688
z
" transform="scale(0.015625)"/>
       </defs>
       <use xlink:href="#Roboto-Regular-24"/>
       <use xlink:href="#Roboto-Regular-31" transform="translate(56.201172 0)"/>
       <use xlink:href="#Roboto-Regular-33" transform="translate(112.402344 0)"/>
       <use xlink:href="#Roboto-Regular-2c" transform="translate(168.603516 0)"/>
       <use xlink:href="#Roboto-Regular-35" transform="translate(188.28125 0)"/>
       <use xlink:href="#Roboto-Regular-30" transform="translate(244.482422 0)"/>
       <use xlink:href="#Roboto-Regular-30" transform="translate(300.683594 0)"/>
      </g>
     </g>
    </g>
    <g id="ytick_2">
     <g id="line2d_2">
      <path d="M 71.395469 242.396002
L 442.08 242.396002
" clip-path="url(#p2fd5ca303e)" style="fill: none; stroke: #ffffff; stroke-linecap: round"/>
     </g>
     <g id="text_11">
      <!-- $13,750 -->
      <g style="fill: #262626" transform="translate(22.6375 246.604361) scale(0.11 -0.11)">
       <defs>
        <path id="Roboto-Regular-37" d="M 3319 4550
L 3319 4225
L 1434 0
L 825 0
L 2706 4075
L 244 4075
L 244 4550
L 3319 4550
z
" transform="scale(0.015625)"/>
       </defs>
       <use xlink:href="#Roboto-Regular-24"/>
       <use xlink:href="#Roboto-Regular-31" transform="translate(56.201172 0)"/>
       <use xlink:href="#Roboto-Regular-33" transform="translate(112.402344 0)"/>
       <use xlink:href="#Roboto-Regular-2c" transform="translate(168.603516 0)"/>
       <use xlink:href="#Roboto-Regular-37" transform="translate(188.28125 0)"/>
       <use xlink:href="#Roboto-Regular-35" transform="translate(244.482422 0)"/>
       <use xlink:href="#Roboto-Regular-30" transform="translate(300.683594 0)"/>
      </g>
     </g>
    </g>
    <g id="ytick_3">
     <g id="line2d_3">
      <path d="M 71.395469 211.18997
L 442.08 211.18997
" clip-path="url(#p2fd5ca303e)" style="fill: none; stroke: #ffffff; stroke-linecap: round"/>
     </g>
     <g id="text_12">
      <!-- $14,000 -->
      <g style="fill: #262626" transform="translate(22.6375 215.398329) scale(0.11 -0.11)">
       <use xlink:href="#Roboto-Regular-24"/>
       <use xlink:href="#Roboto-Regular-31" transform="translate(56.201172 0)"/>
       <use xlink:href="#Roboto-Regular-34" transform="translate(112.402344 0)"/>
       <use xlink:href="#Roboto-Regular-2c" transform="translate(168.603516 0)"/>
       <use xlink:href="#Roboto-Regular-30" transform="translate(188.28125 0)"/>
       <use xlink:href="#Roboto-Regular-30" transform="translate(244.482422 0)"/>
       <use xlink:href="#Roboto-Regular-30" transform="translate(300.683594 0)"/>
      </g>
     </g>
    </g>
    <g id="ytick_4">
     <g id="line2d_4">
      <path d="M 71.395469 179.983938
L 442.08 179.983938
" clip-path="url(#p2fd5ca303e)" style="fill: none; stroke: #ffffff; stroke-linecap: round"/>
     </g>
     <g id="text_13">
      <!-- $14,250 -->
      <g style="fill: #262626" transform="translate(22.6375 184.192297) scale(0.11 -0.11)">
       <use xlink:href="#Roboto-Regular-24"/>
       <use xlink:href="#Roboto-Regular-31" transform="translate(56.201172 0)"/>
       <use xlink:href="#Roboto-Regular-34" transform="translate(112.402344 0)"/>
       <use xlink:href="#Roboto-Regular-2c" transform="translate(168.603516 0)"/>
       <use xlink:href="#Roboto-Regular-32" transform="translate(188.28125 0)"/>
       <use xlink:href="#Roboto-Regular-35" transform="translate(244.482422 0)"/>
       <use xlink:href="#Roboto-Regular-30" transform="translate(300.683594 0)"/>
      </g>
     </g>
    </g>
    <g id="ytick_5">
     <g id="line2d_5">
      <path d="M 71.395469 148.777906
L 442.08 148.777906
" clip-path="url(#p2fd5ca303e)" style="fill: none; stroke: #ffffff; stroke-linecap: round"/>
     </g>
     <g id="text_14">
      <!-- $14,500 -->
      <g style="fill: #262626" transform="translate(22.6375 152.986266) scale(0.11 -0.11)">
       <use xlink:href="#Roboto-Regular-24"/>
       <use xlink:href="#Roboto-Regular-31" transform="translate(56.201172 0)"/>
       <use xlink:href="#Roboto-Regular-34" transform="translate(112.402344 0)"/>
       <use xlink:href="#Roboto-Regular-2c" transform="translate(168.603516 0)"/>
       <use xlink:href="#Roboto-Regular-35" transform="translate(188.28125 0)"/>
       <use xlink:href="#Roboto-Regular-30" transform="translate(244.482422 0)"/>
       <use xlink:href="#Roboto-Regular-30" transform="translate(300.683594 0)"/>
      </g>
     </g>
    </g>
    <g id="ytick_6">
     <g id="line2d_6">
      <path d="M 71.395469 117.571874
L 442.08 117.571874
" clip-path="url(#p2fd5ca303e)" style="fill: none; stroke: #ffffff; stroke-linecap: round"/>
     </g>
     <g id="text_15">
      <!-- $14,750 -->
      <g style="fill: #262626" transform="translate(22.6375 121.780234) scale(0.11 -0.11)">
       <use xlink:href="#Roboto-Regular-24"/>
       <use xlink:href="#Roboto-Regular-31" transform="translate(56.201172 0)"/>
       <use xlink:href="#Roboto-Regular-34" transform="translate(112.402344 0)"/>
       <use xlink:href="#Roboto-Regular-2c" transform="translate(168.603516 0)"/>
       <use xlink:href="#Roboto-Regular-37" transform="translate(188.28125 0)"/>
       <use xlink:href="#Roboto-Regular-35" transform="translate(244.482422 0)"/>
       <use xlink:href="#Roboto-Regular-30" transform="translate(300.683594 0)"/>
      </g>
     </g>
    </g>
    <g id="ytick_7">
     <g id="line2d_7">
      <path d="M 71.395469 86.365843
L 442.08 86.365843
" clip-path="url(#p2fd5ca303e)" style="fill: none; stroke: #ffffff; stroke-linecap: round"/>
     </g>
     <g id="text_16">
      <!-- $15,000 -->
      <g style="fill: #262626" transform="translate(22.6375 90.574202) scale(0.11 -0.11)">
       <use xlink:href="#Roboto-Regular-24"/>
       <use xlink:href="#Roboto-Regular-31" transform="translate(56.201172 0)"/>
       <use xlink:href="#Roboto-Regular-35" transform="translate(112.402344 0)"/>
       <use xlink:href="#Roboto-Regular-2c" transform="translate(168.603516 0)"/>
       <use xlink:href="#Roboto-Regular-30" transform="translate(188.28125 0)"/>
       <use xlink:href="#Roboto-Regular-30" transform="translate(244.482422 0)"/>
       <use xlink:href="#Roboto-Regular-30" transform="translate(300.683594 0)"/>
      </g>
     </g>
    </g>
    <g id="ytick_8">
     <g id="line2d_8">
      <path d="M 71.395469 55.159811
L 442.08 55.159811
" clip-path="url(#p2fd5ca303e)" style="fill: none; stroke: #ffffff; stroke-linecap: round"/>
     </g>
     <g id="text_17">
      <!-- $15,250 -->
      <g style="fill: #262626" transform="translate(22.6375 59.36817) scale(0.11 -0.11)">
       <use xlink:href="#Roboto-Regular-24"/>
       <use xlink:href="#Roboto-Regular-31" transform="translate(56.201172 0)"/>
       <use xlink:href="#Roboto-Regular-35" transform="translate(112.402344 0)"/>
       <use xlink:href="#Roboto-Regular-2c" transform="translate(168.603516 0)"/>
       <use xlink:href="#Roboto-Regular-32" transform="translate(188.28125 0)"/>
       <use xlink:href="#Roboto-Regular-35" transform="translate(244.482422 0)"/>
       <use xlink:href="#Roboto-Regular-30" transform="translate(300.683594 0)"/>
      </g>
     </g>
    </g>
    <g id="ytick_9">
     <g id="line2d_9">
      <path d="M 71.395469 23.953779
L 442.08 23.953779
" clip-path="url(#p2fd5ca303e)" style="fill: none; stroke: #ffffff; stroke-linecap: round"/>
     </g>
     <g id="text_18">
      <!-- $15,500 -->
      <g style="fill: #262626" transform="translate(22.6375 28.162138) scale(0.11 -0.11)">
       <use xlink:href="#Roboto-Regular-24"/>
       <use xlink:href="#Roboto-Regular-31" transform="translate(56.201172 0)"/>
       <use xlink:href="#Roboto-Regular-35" transform="translate(112.402344 0)"/>
       <use xlink:href="#Roboto-Regular-2c" transform="translate(168.603516 0)"/>
       <use xlink:href="#Roboto-Regular-35" transform="translate(188.28125 0)"/>
       <use xlink:href="#Roboto-Regular-30" transform="translate(244.482422 0)"/>
       <use xlink:href="#Roboto-Regular-30" transform="translate(300.683594 0)"/>
      </g>
     </g>
    </g>
    <g id="text_19">
     <!-- Federal Tax -->
     <g style="fill: #262626" transform="translate(16.2 187.957812) rotate(-90) scale(0.12 -0.12)">
      <defs>
       <path id="Roboto-Regular-46" d="M 1131 4550
L 1131 0
L 528 0
L 528 4550
L 1131 4550
z
M 3038 2503
L 3038 2009
L 1000 2009
L 1000 2503
L 3038 2503
z
M 3347 4550
L 3347 4056
L 1000 4056
L 1000 4550
L 3347 4550
z
" transform="scale(0.015625)"/>
       <path id="Roboto-Regular-64" d="M 2572 656
L 2572 4800
L 3153 4800
L 3153 0
L 2622 0
L 2572 656
z
M 297 1653
L 297 1719
Q 297 2106 392 2423
Q 488 2741 664 2969
Q 841 3197 1086 3320
Q 1331 3444 1634 3444
Q 1953 3444 2192 3333
Q 2431 3222 2598 3011
Q 2766 2800 2862 2503
Q 2959 2206 2997 1831
L 2997 1544
Q 2963 1172 2864 875
Q 2766 578 2598 368
Q 2431 159 2190 48
Q 1950 -63 1628 -63
Q 1331 -63 1086 65
Q 841 194 664 425
Q 488 656 392 970
Q 297 1284 297 1653
z
M 878 1719
L 878 1653
Q 878 1400 929 1178
Q 981 956 1090 787
Q 1200 619 1369 523
Q 1538 428 1772 428
Q 2059 428 2245 550
Q 2431 672 2543 872
Q 2656 1072 2719 1306
L 2719 2059
Q 2681 2231 2611 2392
Q 2541 2553 2430 2679
Q 2319 2806 2158 2881
Q 1997 2956 1778 2956
Q 1541 2956 1370 2857
Q 1200 2759 1090 2589
Q 981 2419 929 2195
Q 878 1972 878 1719
z
" transform="scale(0.015625)"/>
       <path id="Roboto-Regular-6c" d="M 1069 4800
L 1069 0
L 488 0
L 488 4800
L 1069 4800
z
" transform="scale(0.015625)"/>
       <path id="Roboto-Regular-20" transform="scale(0.015625)"/>
       <path id="Roboto-Regular-54" d="M 2209 4550
L 2209 0
L 1616 0
L 1616 4550
L 2209 4550
z
M 3672 4550
L 3672 4056
L 156 4056
L 156 4550
L 3672 4550
z
" transform="scale(0.015625)"/>
       <path id="Roboto-Regular-78" d="M 831 3381
L 1572 2150
L 2322 3381
L 3000 3381
L 1894 1713
L 3034 0
L 2366 0
L 1584 1269
L 803 0
L 131 0
L 1269 1713
L 166 3381
L 831 3381
z
" transform="scale(0.015625)"/>
      </defs>
      <use xlink:href="#Roboto-Regular-46"/>
      <use xlink:href="#Roboto-Regular-65" transform="translate(55.273438 0)"/>
      <use xlink:href="#Roboto-Regular-64" transform="translate(108.300781 0)"/>
      <use xlink:href="#Roboto-Regular-65" transform="translate(164.697266 0)"/>
      <use xlink:href="#Roboto-Regular-72" transform="translate(217.724609 0)"/>
      <use xlink:href="#Roboto-Regular-61" transform="translate(251.611328 0)"/>
      <use xlink:href="#Roboto-Regular-6c" transform="translate(306.005859 0)"/>
      <use xlink:href="#Roboto-Regular-20" transform="translate(330.322266 0)"/>
      <use xlink:href="#Roboto-Regular-54" transform="translate(355.126953 0)"/>
      <use xlink:href="#Roboto-Regular-61" transform="translate(414.794922 0)"/>
      <use xlink:href="#Roboto-Regular-78" transform="translate(469.189453 0)"/>
     </g>
    </g>
   </g>
   <g id="PathCollection_1">
    <path d="M 94.563252 37.439006
C 95.358861 37.439006 96.121992 37.122907 96.684572 36.560326
C 97.247153 35.997745 97.563252 35.234615 97.563252 34.439006
C 97.563252 33.643396 97.247153 32.880266 96.684572 32.317685
C 96.121992 31.755105 95.358861 31.439006 94.563252 31.439006
C 93.767643 31.439006 93.004512 31.755105 92.441932 32.317685
C 91.879351 32.880266 91.563252 33.643396 91.563252 34.439006
C 91.563252 35.234615 91.879351 35.997745 92.441932 36.560326
C 93.004512 37.122907 93.767643 37.439006 94.563252 37.439006
z
" clip-path="url(#p2fd5ca303e)" style="fill: #4c72b0; stroke: #4c72b0; stroke-width: 0.5"/>
    <path d="M 140.898818 57.785338
C 141.694428 57.785338 142.457558 57.46924 143.020139 56.906659
C 143.582719 56.344078 143.898818 55.580948 143.898818 54.785338
C 143.898818 53.989729 143.582719 53.226599 143.020139 52.664018
C 142.457558 52.101437 141.694428 51.785338 140.898818 51.785338
C 140.103209 51.785338 139.340079 52.101437 138.777498 52.664018
C 138.214917 53.226599 137.898818 53.989729 137.898818 54.785338
C 137.898818 55.580948 138.214917 56.344078 138.777498 56.906659
C 139.340079 57.46924 140.103209 57.785338 140.898818 57.785338
z
" clip-path="url(#p2fd5ca303e)" style="fill: #4c72b0; stroke: #4c72b0; stroke-width: 0.5"/>
    <path d="M 187.234385 75.635189
C 188.029994 75.635189 188.793124 75.31909 189.355705 74.756509
C 189.918286 74.193928 190.234385 73.430798 190.234385 72.635189
C 190.234385 71.839579 189.918286 71.076449 189.355705 70.513868
C 188.793124 69.951288 188.029994 69.635189 187.234385 69.635189
C 186.438775 69.635189 185.675645 69.951288 185.113064 70.513868
C 184.550484 71.076449 184.234385 71.839579 184.234385 72.635189
C 184.234385 73.430798 184.550484 74.193928 185.113064 74.756509
C 185.675645 75.31909 186.438775 75.635189 187.234385 75.635189
z
" clip-path="url(#p2fd5ca303e)" style="fill: #4c72b0; stroke: #4c72b0; stroke-width: 0.5"/>
    <path d="M 233.569951 87.493481
C 234.36556 87.493481 235.128691 87.177382 235.691272 86.614801
C 236.253852 86.05222 236.569951 85.28909 236.569951 84.493481
C 236.569951 83.697871 236.253852 82.934741 235.691272 82.37216
C 235.128691 81.80958 234.36556 81.493481 233.569951 81.493481
C 232.774342 81.493481 232.011212 81.80958 231.448631 82.37216
C 230.88605 82.934741 230.569951 83.697871 230.569951 84.493481
C 230.569951 85.28909 230.88605 86.05222 231.448631 86.614801
C 232.011212 87.177382 232.774342 87.493481 233.569951 87.493481
z
" clip-path="url(#p2fd5ca303e)" style="fill: #4c72b0; stroke: #4c72b0; stroke-width: 0.5"/>
    <path d="M 279.905518 117.576095
C 280.701127 117.576095 281.464257 117.259996 282.026838 116.697416
C 282.589419 116.134835 282.905518 115.371705 282.905518 114.576095
C 282.905518 113.780486 282.589419 113.017356 282.026838 112.454775
C 281.464257 111.892194 280.701127 111.576095 279.905518 111.576095
C 279.109908 111.576095 278.346778 111.892194 277.784197 112.454775
C 277.221617 113.017356 276.905518 113.780486 276.905518 114.576095
C 276.905518 115.371705 277.221617 116.134835 277.784197 116.697416
C 278.346778 117.259996 279.109908 117.576095 279.905518 117.576095
z
" clip-path="url(#p2fd5ca303e)" style="fill: #4c72b0; stroke: #4c72b0; stroke-width: 0.5"/>
    <path d="M 326.241084 180.986752
C 327.036693 180.986752 327.799824 180.670653 328.362404 180.108072
C 328.924985 179.545492 329.241084 178.782361 329.241084 177.986752
C 329.241084 177.191143 328.924985 176.428012 328.362404 175.865432
C 327.799824 175.302851 327.036693 174.986752 326.241084 174.986752
C 325.445475 174.986752 324.682344 175.302851 324.119764 175.865432
C 323.557183 176.428012 323.241084 177.191143 323.241084 177.986752
C 323.241084 178.782361 323.557183 179.545492 324.119764 180.108072
C 324.682344 180.670653 325.445475 180.986752 326.241084 180.986752
z
" clip-path="url(#p2fd5ca303e)" style="fill: #4c72b0; stroke: #4c72b0; stroke-width: 0.5"/>
    <path d="M 372.57665 233.288061
C 373.37226 233.288061 374.13539 232.971962 374.697971 232.409382
C 375.260551 231.846801 375.57665 231.083671 375.57665 230.288061
C 375.57665 229.492452 375.260551 228.729322 374.697971 228.166741
C 374.13539 227.60416 373.37226 227.288061 372.57665 227.288061
C 371.781041 227.288061 371.017911 227.60416 370.45533 228.166741
C 369.892749 228.729322 369.57665 229.492452 369.57665 230.288061
C 369.57665 231.083671 369.892749 231.846801 370.45533 232.409382
C 371.017911 232.971962 371.781041 233.288061 372.57665 233.288061
z
" clip-path="url(#p2fd5ca303e)" style="fill: #4c72b0; stroke: #4c72b0; stroke-width: 0.5"/>
    <path d="M 418.912217 282.219119
C 419.707826 282.219119 420.470956 281.90302 421.033537 281.34044
C 421.596118 280.777859 421.912217 280.014729 421.912217 279.219119
C 421.912217 278.42351 421.596118 277.66038 421.033537 277.097799
C 420.470956 276.535218 419.707826 276.219119 418.912217 276.219119
C 418.116607 276.219119 417.353477 276.535218 416.790896 277.097799
C 416.228316 277.66038 415.912217 278.42351 415.912217 279.219119
C 415.912217 280.014729 416.228316 280.777859 416.790896 281.34044
C 417.353477 281.90302 418.116607 282.219119 418.912217 282.219119
z
" clip-path="url(#p2fd5ca303e)" style="fill: #4c72b0; stroke: #4c72b0; stroke-width: 0.5"/>
   </g>
   <g id="line2d_10">
    <path d="M 94.563252 34.439006
L 140.898818 54.785338
L 187.234385 72.635189
L 233.569951 84.493481
L 279.905518 114.576095
L 326.241084 177.986752
L 372.57665 230.288061
L 418.912217 279.219119
" clip-path="url(#p2fd5ca303e)" style="fill: none; stroke: #4c72b0; stroke-width: 1.5; stroke-linecap: round"/>
   </g>
   <g id="patch_3">
    <path d="M 71.395469 291.458125
L 71.395469 22.2
" style="fill: none; stroke: #ffffff; stroke-width: 1.25; stroke-linejoin: miter; stroke-linecap: square"/>
   </g>
   <g id="patch_4">
    <path d="M 442.08 291.458125
L 442.08 22.2
" style="fill: none; stroke: #ffffff; stroke-width: 1.25; stroke-linejoin: miter; stroke-linecap: square"/>
   </g>
   <g id="patch_5">
    <path d="M 71.395469 291.458125
L 442.08 291.458125
" style="fill: none; stroke: #ffffff; stroke-width: 1.25; stroke-linejoin: miter; stroke-linecap: square"/>
   </g>
   <g id="patch_6">
    <path d="M 71.395469 22.2
L 442.08 22.2
" style="fill: none; stroke: #ffffff; stroke-width: 1.25; stroke-linejoin: miter; stroke-linecap: square"/>
   </g>
   <g id="text_20">
    <!-- Federal Tax on $100K W2 Income Over Time -->
    <g transform="translate(138.308047 16.2) scale(0.12 -0.12)">
     <defs>
      <path id="Roboto-Regular-6f" d="M 288 1653
L 288 1725
Q 288 2091 394 2405
Q 500 2719 700 2951
Q 900 3184 1184 3314
Q 1469 3444 1822 3444
Q 2178 3444 2464 3314
Q 2750 3184 2951 2951
Q 3153 2719 3259 2405
Q 3366 2091 3366 1725
L 3366 1653
Q 3366 1288 3259 975
Q 3153 663 2951 430
Q 2750 197 2467 67
Q 2184 -63 1828 -63
Q 1472 -63 1187 67
Q 903 197 701 430
Q 500 663 394 975
Q 288 1288 288 1653
z
M 866 1725
L 866 1653
Q 866 1400 925 1176
Q 984 953 1104 781
Q 1225 609 1406 511
Q 1588 413 1828 413
Q 2066 413 2245 511
Q 2425 609 2544 781
Q 2663 953 2723 1176
Q 2784 1400 2784 1653
L 2784 1725
Q 2784 1975 2723 2198
Q 2663 2422 2542 2595
Q 2422 2769 2242 2869
Q 2063 2969 1822 2969
Q 1584 2969 1404 2869
Q 1225 2769 1104 2595
Q 984 2422 925 2198
Q 866 1975 866 1725
z
" transform="scale(0.015625)"/>
      <path id="Roboto-Regular-6e" d="M 1019 2659
L 1019 0
L 441 0
L 441 3381
L 988 3381
L 1019 2659
z
M 881 1819
L 641 1828
Q 644 2175 744 2470
Q 844 2766 1025 2984
Q 1206 3203 1457 3323
Q 1709 3444 2016 3444
Q 2266 3444 2466 3376
Q 2666 3309 2808 3162
Q 2950 3016 3025 2783
Q 3100 2550 3100 2216
L 3100 0
L 2519 0
L 2519 2222
Q 2519 2488 2441 2648
Q 2363 2809 2213 2882
Q 2063 2956 1844 2956
Q 1628 2956 1451 2865
Q 1275 2775 1148 2615
Q 1022 2456 951 2251
Q 881 2047 881 1819
z
" transform="scale(0.015625)"/>
      <path id="Roboto-Regular-4b" d="M 1131 4550
L 1131 0
L 528 0
L 528 4550
L 1131 4550
z
M 3878 4550
L 1988 2428
L 925 1325
L 825 1969
L 1625 2850
L 3153 4550
L 3878 4550
z
M 3297 0
L 1613 2219
L 1972 2697
L 4016 0
L 3297 0
z
" transform="scale(0.015625)"/>
      <path id="Roboto-Regular-57" d="M 1725 1375
L 2628 4550
L 3066 4550
L 2813 3316
L 1841 0
L 1406 0
L 1725 1375
z
M 791 4550
L 1509 1438
L 1725 0
L 1294 0
L 191 4550
L 791 4550
z
M 4234 1441
L 4938 4550
L 5541 4550
L 4441 0
L 4009 0
L 4234 1441
z
M 3131 4550
L 4009 1375
L 4328 0
L 3894 0
L 2956 3316
L 2700 4550
L 3131 4550
z
" transform="scale(0.015625)"/>
      <path id="Roboto-Regular-49" d="M 1175 4550
L 1175 0
L 572 0
L 572 4550
L 1175 4550
z
" transform="scale(0.015625)"/>
      <path id="Roboto-Regular-63" d="M 1794 413
Q 2000 413 2175 497
Q 2350 581 2462 729
Q 2575 878 2591 1069
L 3141 1069
Q 3125 769 2939 511
Q 2753 253 2453 95
Q 2153 -63 1794 -63
Q 1413 -63 1130 71
Q 847 206 661 440
Q 475 675 383 979
Q 291 1284 291 1625
L 291 1756
Q 291 2097 383 2401
Q 475 2706 661 2940
Q 847 3175 1130 3309
Q 1413 3444 1794 3444
Q 2191 3444 2487 3283
Q 2784 3122 2954 2845
Q 3125 2569 3141 2219
L 2591 2219
Q 2575 2428 2473 2597
Q 2372 2766 2198 2867
Q 2025 2969 1794 2969
Q 1528 2969 1348 2864
Q 1169 2759 1064 2582
Q 959 2406 914 2192
Q 869 1978 869 1756
L 869 1625
Q 869 1403 912 1187
Q 956 972 1061 797
Q 1166 622 1345 517
Q 1525 413 1794 413
z
" transform="scale(0.015625)"/>
      <path id="Roboto-Regular-6d" d="M 1016 2709
L 1016 0
L 434 0
L 434 3381
L 984 3381
L 1016 2709
z
M 897 1819
L 628 1828
Q 631 2175 718 2470
Q 806 2766 978 2984
Q 1150 3203 1406 3323
Q 1663 3444 2000 3444
Q 2238 3444 2438 3376
Q 2638 3309 2784 3165
Q 2931 3022 3012 2797
Q 3094 2572 3094 2253
L 3094 0
L 2516 0
L 2516 2225
Q 2516 2491 2427 2650
Q 2338 2809 2175 2882
Q 2013 2956 1794 2956
Q 1538 2956 1366 2865
Q 1194 2775 1091 2615
Q 988 2456 942 2251
Q 897 2047 897 1819
z
M 3088 2138
L 2700 2019
Q 2703 2297 2792 2553
Q 2881 2809 3051 3009
Q 3222 3209 3472 3326
Q 3722 3444 4044 3444
Q 4316 3444 4527 3372
Q 4738 3300 4883 3151
Q 5028 3003 5103 2772
Q 5178 2541 5178 2222
L 5178 0
L 4597 0
L 4597 2228
Q 4597 2513 4508 2670
Q 4419 2828 4258 2892
Q 4097 2956 3875 2956
Q 3684 2956 3537 2890
Q 3391 2825 3291 2711
Q 3191 2597 3139 2450
Q 3088 2303 3088 2138
z
" transform="scale(0.015625)"/>
      <path id="Roboto-Regular-4f" d="M 4031 2419
L 4031 2131
Q 4031 1619 3903 1212
Q 3775 806 3534 522
Q 3294 238 2958 87
Q 2622 -63 2206 -63
Q 1803 -63 1467 87
Q 1131 238 886 522
Q 641 806 506 1212
Q 372 1619 372 2131
L 372 2419
Q 372 2931 505 3336
Q 638 3741 881 4027
Q 1125 4313 1461 4463
Q 1797 4613 2200 4613
Q 2616 4613 2952 4463
Q 3288 4313 3530 4027
Q 3772 3741 3901 3336
Q 4031 2931 4031 2419
z
M 3434 2131
L 3434 2425
Q 3434 2831 3351 3143
Q 3269 3456 3109 3668
Q 2950 3881 2720 3990
Q 2491 4100 2200 4100
Q 1919 4100 1692 3990
Q 1466 3881 1305 3668
Q 1144 3456 1056 3143
Q 969 2831 969 2425
L 969 2131
Q 969 1722 1056 1408
Q 1144 1094 1308 880
Q 1472 666 1698 556
Q 1925 447 2206 447
Q 2500 447 2728 556
Q 2956 666 3114 880
Q 3272 1094 3353 1408
Q 3434 1722 3434 2131
z
" transform="scale(0.015625)"/>
      <path id="Roboto-Regular-76" d="M 1469 522
L 2394 3381
L 2984 3381
L 1769 0
L 1381 0
L 1469 522
z
M 697 3381
L 1650 506
L 1716 0
L 1328 0
L 103 3381
L 697 3381
z
" transform="scale(0.015625)"/>
      <path id="Roboto-Regular-69" d="M 1069 3381
L 1069 0
L 488 0
L 488 3381
L 1069 3381
z
M 444 4278
Q 444 4419 530 4516
Q 616 4613 784 4613
Q 950 4613 1039 4516
Q 1128 4419 1128 4278
Q 1128 4144 1039 4048
Q 950 3953 784 3953
Q 616 3953 530 4048
Q 444 4144 444 4278
z
" transform="scale(0.015625)"/>
     </defs>
     <use xlink:href="#Roboto-Regular-46"/>
     <use xlink:href="#Roboto-Regular-65" transform="translate(55.273438 0)"/>
     <use xlink:href="#Roboto-Regular-64" transform="translate(108.300781 0)"/>
     <use xlink:href="#Roboto-Regular-65" transform="translate(164.697266 0)"/>
     <use xlink:href="#Roboto-Regular-72" transform="translate(217.724609 0)"/>
     <use xlink:href="#Roboto-Regular-61" transform="translate(251.611328 0)"/>
     <use xlink:href="#Roboto-Regular-6c" transform="translate(306.005859 0)"/>
     <use xlink:href="#Roboto-Regular-20" transform="translate(330.322266 0)"/>
     <use xlink:href="#Roboto-Regular-54" transform="translate(355.126953 0)"/>
     <use xlink:href="#Roboto-Regular-61" transform="translate(414.794922 0)"/>
     <use xlink:href="#Roboto-Regular-78" transform="translate(469.189453 0)"/>
     <use xlink:href="#Roboto-Regular-20" transform="translate(518.798828 0)"/>
     <use xlink:href="#Roboto-Regular-6f" transform="translate(543.603516 0)"/>
     <use xlink:href="#Roboto-Regular-6e" transform="translate(600.634766 0)"/>
     <use xlink:href="#Roboto-Regular-20" transform="translate(655.859375 0)"/>
     <use xlink:href="#Roboto-Regular-24" transform="translate(680.664062 0)"/>
     <use xlink:href="#Roboto-Regular-31" transform="translate(736.865234 0)"/>
     <use xlink:href="#Roboto-Regular-30" transform="translate(793.066406 0)"/>
     <use xlink:href="#Roboto-Regular-30" transform="translate(849.267578 0)"/>
     <use xlink:href="#Roboto-Regular-4b" transform="translate(905.46875 0)"/>
     <use xlink:href="#Roboto-Regular-20" transform="translate(968.212891 0)"/>
     <use xlink:href="#Roboto-Regular-57" transform="translate(993.017578 0)"/>
     <use xlink:href="#Roboto-Regular-32" transform="translate(1081.738281 0)"/>
     <use xlink:href="#Roboto-Regular-20" transform="translate(1137.939453 0)"/>
     <use xlink:href="#Roboto-Regular-49" transform="translate(1162.744141 0)"/>
     <use xlink:href="#Roboto-Regular-6e" transform="translate(1189.941406 0)"/>
     <use xlink:href="#Roboto-Regular-63" transform="translate(1245.166016 0)"/>
     <use xlink:href="#Roboto-Regular-6f" transform="translate(1297.509766 0)"/>
     <use xlink:href="#Roboto-Regular-6d" transform="translate(1354.541016 0)"/>
     <use xlink:href="#Roboto-Regular-65" transform="translate(1442.236328 0)"/>
     <use xlink:href="#Roboto-Regular-20" transform="translate(1495.263672 0)"/>
     <use xlink:href="#Roboto-Regular-4f" transform="translate(1520.068359 0)"/>
     <use xlink:href="#Roboto-Regular-76" transform="translate(1588.867188 0)"/>
     <use xlink:href="#Roboto-Regular-65" transform="translate(1637.304688 0)"/>
     <use xlink:href="#Roboto-Regular-72" transform="translate(1690.332031 0)"/>
     <use xlink:href="#Roboto-Regular-20" transform="translate(1724.21875 0)"/>
     <use xlink:href="#Roboto-Regular-54" transform="translate(1749.023438 0)"/>
     <use xlink:href="#Roboto-Regular-69" transform="translate(1808.691406 0)"/>
     <use xlink:href="#Roboto-Regular-6d" transform="translate(1833.007812 0)"/>
     <use xlink:href="#Roboto-Regular-65" transform="translate(1920.703125 0)"/>
    </g>
   </g>
  </g>
 </g>
 <defs>
  <clipPath id="p2fd5ca303e">
   <rect x="71.395469" y="22.2" width="370.684531" height="269.258125"/>
  </clipPath>
 </defs>
</svg>
